<svg version="1.1" id="Слой_1" xmlns="http://www.w3.org/2000/svg" x="0" y="0" viewBox="0 0 168.7 279.54" xml:space="preserve"><g fill="#b0bec5"><path d="M144.81 279.54H23.89C10.72 279.54 0 268.82 0 255.65V23.89C0 10.72 10.72 0 23.89 0h120.92c13.17 0 23.89 10.72 23.89 23.89v231.76c0 13.17-10.72 23.89-23.89 23.89zM23.89 7.47c-9.05 0-16.42 7.37-16.42 16.42v231.76c0 9.05 7.37 16.42 16.42 16.42h120.92c9.05 0 16.42-7.37 16.42-16.42V23.89c0-9.05-7.37-16.42-16.42-16.42H23.89z"/><path d="M99.46 27.62H69.23a3.73 3.73 0 010-7.46h30.23a3.73 3.73 0 013.73 3.73 3.717 3.717 0 01-3.73 3.73zm65.5 20.16H3.73C1.67 47.78 0 46.1 0 44.04a3.73 3.73 0 013.73-3.73h161.23a3.73 3.73 0 013.73 3.73 3.732 3.732 0 01-3.73 3.74zm0 201.53H3.73c-2.06 0-3.73-1.67-3.73-3.73s1.67-3.74 3.73-3.74h161.23c2.06 0 3.73 1.67 3.73 3.74.01 2.06-1.67 3.73-3.73 3.73zm-40.3-225.42c0-2.78-2.26-5.04-5.04-5.04-2.79 0-5.04 2.25-5.04 5.04 0 2.78 2.25 5.04 5.04 5.04 2.78 0 5.04-2.26 5.04-5.04zM84.35 143.5c-.57 0-1.15-.13-1.67-.39L32.3 117.92a3.742 3.742 0 01-2.06-3.34c0-1.42.8-2.71 2.06-3.34l50.38-25.19c1.05-.53 2.29-.53 3.34 0l50.38 25.19c1.26.63 2.06 1.93 2.06 3.34 0 1.42-.8 2.71-2.06 3.34l-50.38 25.19c-.53.26-1.1.39-1.67.39zm-42.03-28.92l42.03 21.02 42.03-21.02-42.03-21.02-42.03 21.02z"/><path d="M84.35 203.97c-.57 0-1.15-.13-1.67-.39L32.3 178.39a3.742 3.742 0 01-2.06-3.34v-60.46c0-2.06 1.67-3.73 3.73-3.73s3.74 1.67 3.74 3.73v58.15l46.65 23.32L131 172.73v-58.15c0-2.06 1.67-3.73 3.74-3.73a3.73 3.73 0 013.73 3.73v60.46c0 1.42-.8 2.71-2.06 3.34l-50.38 25.19c-.54.27-1.11.4-1.68.4z"/><path d="M84.35 203.97a3.73 3.73 0 01-3.73-3.73v-60.46a3.73 3.73 0 017.46 0v60.46a3.73 3.73 0 01-3.73 3.73z"/></g></svg>