<svg version="1.1" id="Слой_1" xmlns="http://www.w3.org/2000/svg" x="0" y="0" viewBox="0 0 480.04 480" xml:space="preserve"><g id="Online_Shopping-Shopping-Smartphone-Shopping_Bag-Commerce" fill="#b0bec5"><path d="M128 32h16v16h-16V32zm32 0h64v16h-64V32z"/><path d="M312 344c-.03 22.08-17.92 39.97-40 40H125.86l27.5-47.63c-.87 2.45-1.33 5.03-1.36 7.63 0 13.25 10.75 24 24 24h32c13.25 0 24-10.75 24-24s-10.75-24-24-24h-32c-7.73.01-14.97 3.76-19.46 10.06 6.89-16.23-.68-34.97-16.91-41.85-14.85-6.3-32.07-.53-40.13 13.45L72.3 348.8c-.2-1.59-.3-3.18-.3-4.78V56c.03-22.08 17.92-39.97 40-40h160a40.16 40.16 0 0134.64 20l13.85-8A56.236 56.236 0 00272 0H112C81.09.04 56.04 25.09 56 56v154.4a23.986 23.986 0 00-11.58 11.53L8.1 300.7A86.773 86.773 0 000 337.6V480h16V337.6a70.976 70.976 0 016.62-30.17L56 235.02V344a55.748 55.748 0 007.11 27.29c1.8 4.03 6.53 5.84 10.57 4.04a7.982 7.982 0 003.68-3.33l36-62.35c4.47-7.62 14.27-10.18 21.89-5.71 7.55 4.43 10.14 14.1 5.82 21.71l-36 62.35a7.999 7.999 0 00.07 8.13l17.14 28.48a40.17 40.17 0 015.72 20.62v34.69h16v-34.69c0-10.17-2.77-20.15-8-28.86L126.15 400H272c30.91-.04 55.96-25.09 56-56v-40h-16v40zm-136-8h32c4.42 0 8 3.58 8 8s-3.58 8-8 8h-32c-4.42 0-8-3.58-8-8s3.58-8 8-8z"/><path d="M456.88 94.56C416.39 36.61 336.6 22.45 278.64 62.94c-48.77 34.08-67.64 97.27-45.52 152.5l-27.04 45.84a8.002 8.002 0 00.32 8.64 8.157 8.157 0 008.08 3.28l52.24-9.76a127.51 127.51 0 0063.04 30.64c7.37 1.27 14.84 1.91 22.32 1.92 70.69-.02 127.98-57.34 127.96-128.04 0-26.26-8.09-51.89-23.16-73.4zm5.44 92.88c-10.74 60.92-68.83 101.59-129.75 90.85a111.912 111.912 0 01-57.85-29.25 8.115 8.115 0 00-5.52-2.16c-.48-.01-.96.01-1.44.08l-38.96 7.28 20.16-34.08a8.324 8.324 0 00.48-7.28 111.103 111.103 0 01-7.76-64.32c10.74-60.93 68.83-101.62 129.76-90.88s101.62 68.83 90.88 129.76z"/><path d="M408 120h-24v-8c0-17.67-14.33-32-32-32s-32 14.33-32 32v8h-24c-4.42 0-8 3.58-8 8v96c.04 13.24 10.76 23.96 24 24h80c13.24-.04 23.96-10.76 24-24v-96c0-4.42-3.58-8-8-8zm-72-8c0-8.84 7.16-16 16-16s16 7.16 16 16v8h-32v-8zm64 112c0 4.42-3.58 8-8 8h-80c-4.42 0-8-3.58-8-8v-8h96v8zm0-24h-96v-64h16v16h16v-16h32v16h16v-16h16v64zm-237.66-93.66l-12.32 12.32c-18.48-12.23-43.37-7.17-55.6 11.31s-7.17 43.37 11.31 55.6 43.37 7.17 55.6-11.31a40.11 40.11 0 000-44.29l12.32-12.32-11.31-11.31zM152 152c0 13.25-10.75 24-24 24s-24-10.75-24-24 10.75-24 24-24c3.56.01 7.08.83 10.28 2.4l-23.94 23.94 11.31 11.31 23.94-23.93c1.58 3.2 2.4 6.72 2.41 10.28zm32-24h32v16h-32v-16zm0 32h32v16h-32v-16z"/></g></svg>