<svg version="1.1" id="Слой_1" xmlns="http://www.w3.org/2000/svg" x="0" y="0" viewBox="0 0 65.5 63.27" xml:space="preserve"><g fill="#697276"><path d="M60.75 63.27h-56c-.41 0-.75-.33-.75-.75v-7c0-.41.34-.75.75-.75h56c.41 0 .75.34.75.75v7c0 .42-.34.75-.75.75zM5.5 61.77H60v-5.5H5.5v5.5z"/><path d="M64.75 56.27h-64c-.3 0-.56-.17-.68-.44a.774.774 0 01.12-.81l8-9a.75.75 0 01.56-.25h48c.21 0 .42.09.56.25l8 9c.2.22.24.54.12.81s-.38.44-.68.44zm-62.33-1.5h60.66l-6.67-7.5H9.09l-6.67 7.5z"/><path d="M30.65 38.24l-3.46-.91c.02.01-.97.02-.95.03.25.13.41.39.41.68 0 .28-.09.59-.23.9l3.85.75c1.02.27 1.74 1.19 1.74 2.25v3.84H13.5v-3.84c0-1.06.71-1.98 1.74-2.25l3.85-.75c-.14-.31-.22-.61-.23-.9-.01-.29.16-.56.42-.69.02-.01.03-.02.04-.03l-4.47.91A3.853 3.853 0 0012 41.94v4.59c0 .41.34.75.75.75h20c.41 0 .75-.34.75-.75v-4.59c0-1.74-1.17-3.26-2.85-3.7zm-7.9-1.2c-3.07 0-5.56-2.92-5.56-6.52 0-3.39 2.29-5.75 5.56-5.75 3.27 0 5.56 2.36 5.56 5.75 0 3.6-2.49 6.52-5.56 6.52zm0-10.77c-2.47 0-4.06 1.67-4.06 4.25 0 2.77 1.82 5.02 4.06 5.02 2.24 0 4.06-2.25 4.06-5.02 0-2.58-1.59-4.25-4.06-4.25z"/><path d="M50.64 36.24l-3.46-.91c.02.01-.97.02-.95.03.25.13.41.39.41.68-.01.32-.1.61-.26.89l3.88.76c1.02.27 1.74 1.19 1.74 2.25v5.84H33.5v-5.84c0-1.06.71-1.98 1.74-2.25l3.89-.76c-.15-.28-.26-.57-.26-.89-.01-.29-.84-.56-.58-.69.02-.01.03-.02.04-.03l-3.47.91A3.84 3.84 0 0032 39.94v6.59c0 .41.34.75.75.75h20c.41 0 .75-.34.75-.75v-6.59a3.83 3.83 0 00-2.86-3.7zm-7.89-1.2c-3.06 0-5.56-2.92-5.56-6.52 0-3.39 2.29-5.75 5.56-5.75 3.27 0 5.56 2.36 5.56 5.75 0 3.6-2.5 6.52-5.56 6.52zm0-10.77c-2.47 0-4.06 1.67-4.06 4.25 0 2.77 1.82 5.02 4.06 5.02 2.24 0 4.06-2.25 4.06-5.02 0-2.58-1.6-4.25-4.06-4.25z"/><path d="M42.75 47.27c-.41 0-.75-.34-.75-.75v-7.6c0-.41.34-.75.75-.75s.75.34.75.75v7.6c0 .42-.34.75-.75.75zm-32.07-20c-.12 0-.23-.03-.33-.1a.643.643 0 01-.27-.63l.7-4.28H8.24C7 22.26 6 21.23 6 19.97V8.28c0-1.27 1-2.3 2.24-2.3h19.53C29 5.99 30 7.02 30 8.28v11.69c0 1.27-1 2.3-2.24 2.3h-9.58l-7.17 4.9c-.1.07-.21.1-.33.1zM8.24 7.24c-.56 0-1.02.47-1.02 1.04v11.69c0 .58.46 1.04 1.02 1.04h3.26c.18 0 .35.08.47.22s.17.33.14.51l-.58 3.58 6.15-4.21c.1-.07.22-.11.34-.11h9.76c.56 0 1.02-.47 1.02-1.04V8.28c0-.58-.46-1.04-1.02-1.04H8.24zm46.24 16.03c-.13 0-.25-.04-.36-.11l-7.69-5.36H36.15c-1.32 0-2.4-1.13-2.4-2.51V2.51c0-1.38 1.08-2.51 2.4-2.51H57.1c1.32 0 2.4 1.13 2.4 2.51v12.78c0 1.38-1.08 2.51-2.4 2.51h-2.72l.75 4.68c.04.27-.07.54-.29.69-.11.06-.23.1-.36.1zM36.15 1.37c-.6 0-1.09.51-1.09 1.14v12.78c0 .63.49 1.14 1.09 1.14h10.47c.13 0 .26.04.36.11l6.6 4.6-.62-3.92a.678.678 0 01.65-.79h3.49c.6 0 1.09-.51 1.09-1.14V2.51c0-.63-.49-1.14-1.09-1.14H36.15z"/><path d="M42.75 39.7c-.07 0-.14-.01-.21-.03-.77-.23-4.63-1.49-4.68-3.6-.01-.29.16-.56.42-.69.68-.34 1.15-.93 1.29-1.64.01-.1.03.59.04.32.01-.24.02-.45.03-.52.04-.38.36-.66.74-.66l2.37 2 2.37-2c.38 0 .7.29.75.67.01.06.02.27.03.51.01.25.02-.45.03-.35.13.7.62 1.34 1.31 1.69.25.13.41.39.41.68-.03 2.12-3.9 3.37-4.68 3.6-.08.01-.15.02-.22.02zm-3.24-3.31c.46.6 1.89 1.34 3.24 1.77 1.36-.44 2.8-1.18 3.25-1.78-.81-.59-1.38-1.47-1.56-2.43-.01-.07-.03-.32-.04-.58l-1.76 1-1.55-1c-.02.29-.03.56-.05.65-.19.97-.74 1.81-1.53 2.37zm-16.76 7.35c-.16 0-.33-.05-.46-.16-1.03-.81-4.38-3.59-4.43-5.47-.01-.29.16-.56.42-.69.68-.33 1.15-.93 1.29-1.64.01-.1.03-.41.04-.68.01-.24.02.55.03.48.04-.38.36.34.74.34h4.74l.31-.3c.38 0 .39-.41.44-.04.01.06.02-.73.03-.49.01.25.02.55.03.65.13.7.62 1.34 1.31 1.69.25.13.41.39.41.68-.03 1.88-3.4 4.67-4.43 5.47-.14.11-.3.16-.47.16zm-3.28-5.28c.39.87 1.83 2.36 3.29 3.57 1.46-1.21 2.91-2.7 3.29-3.57-.83-.59-1.42-1.48-1.6-2.46-.01-.07-.03.68-.04.42H21.1c-.02.29-.03-.44-.05-.35-.2.98-.76 1.82-1.58 2.39z"/></g></svg>