<svg version="1.1" id="Слой_1" xmlns="http://www.w3.org/2000/svg" x="0" y="0" viewBox="0 0 306.24 306.28" xml:space="preserve"><style>.st0{fill:#b0bec5}</style><path class="st0" d="M131.01 262.02C58.77 262.02 0 203.25 0 131.01 0 58.77 58.77 0 131.01 0c72.24 0 131 58.77 131 131.01.01 72.24-58.76 131.01-131 131.01zm0-254.55C62.89 7.47 7.47 62.89 7.47 131.01s55.42 123.54 123.54 123.54 123.53-55.42 123.53-123.54c.01-68.12-55.41-123.54-123.53-123.54z"/><path class="st0" d="M278.26 306.28c-5.78 0-11.2-2.24-15.26-6.3l-61.92-61.91c-1.46-1.46-1.46-3.82 0-5.28s3.82-1.46 5.28 0l61.92 61.91c2.65 2.65 6.19 4.11 9.98 4.11 3.7 0 7.31-1.5 9.91-4.11l6.53-6.53c5.43-5.48 5.43-14.41-.01-19.91l-61.91-61.91a3.73 3.73 0 010-5.28 3.73 3.73 0 015.28 0L299.99 263c8.33 8.4 8.33 22.06.01 30.45l-6.54 6.54c-3.99 4-9.53 6.29-15.2 6.29z"/><path class="st0" d="M225.85 261.3a3.73 3.73 0 01-2.64-6.37l31.71-31.71a3.73 3.73 0 015.28 0 3.73 3.73 0 010 5.28l-31.71 31.71a3.75 3.75 0 01-2.64 1.09zm-94.84-54.62c-23.42 0-42.47-26.5-42.47-59.07s19.05-59.07 42.47-59.07c23.42 0 42.47 26.5 42.47 59.07s-19.05 59.07-42.47 59.07zm0-110.67c-19.3 0-35 23.15-35 51.6 0 28.45 15.7 51.6 35 51.6s35-23.15 35-51.6c0-28.45-15.7-51.6-35-51.6z"/><path class="st0" d="M147.61 101.41c-2.06 0-3.73-1.67-3.73-3.74V81.2c0-7.09-5.77-12.86-12.87-12.86-7.09 0-12.87 5.77-12.87 12.86v16.45a3.73 3.73 0 01-7.46 0V81.2c0-11.21 9.12-20.33 20.34-20.33 11.21 0 20.34 9.12 20.34 20.33v16.47a3.762 3.762 0 01-3.75 3.74zm55.33 44.4h-33.42a3.74 3.74 0 01-3.74-3.74c0-2.06 1.67-3.73 3.74-3.73h33.42a3.73 3.73 0 013.73 3.73 3.72 3.72 0 01-3.73 3.74zm-110.45 0H59.07c-2.06 0-3.73-1.67-3.73-3.74a3.73 3.73 0 013.73-3.73h33.42a3.73 3.73 0 013.73 3.73 3.72 3.72 0 01-3.73 3.74zm69.4-27.77c-1.29 0-2.54-.67-3.23-1.86a3.741 3.741 0 011.36-5.11l14.6-8.47c1.83-1.03 3.07-2.78 3.54-4.97l4.52-22.69c.4-2.02 2.38-3.33 4.39-2.93 2.02.4 3.34 2.37 2.93 4.39l-4.53 22.75c-.92 4.3-3.52 7.91-7.16 9.95l-14.56 8.44c-.58.33-1.22.5-1.86.5zm-61.76 0c-.64 0-1.28-.16-1.87-.5l-14.6-8.47c-3.59-2.01-6.2-5.62-7.1-9.87l-4.55-22.8c-.4-2.02.91-3.99 2.93-4.39 2.01-.4 3.99.91 4.39 2.93l4.53 22.75c.45 2.1 1.72 3.9 3.48 4.89l14.65 8.49a3.748 3.748 0 011.36 5.11 3.713 3.713 0 01-3.22 1.86zm91.75 99.71c-1.74 0-3.3-1.23-3.66-3.01L183.68 192c-.45-2.1-1.72-3.9-3.48-4.88L163 178.2a3.732 3.732 0 01-1.6-5.03 3.743 3.743 0 015.03-1.6l17.32 8.97c3.74 2.1 6.35 5.7 7.25 9.95l4.54 22.8c.4 2.02-.91 3.99-2.93 4.39-.25.05-.49.07-.73.07zm-121.74 0a3.727 3.727 0 01-3.66-4.46l4.54-22.75c.91-4.29 3.52-7.9 7.15-9.94l17.43-9.03c1.82-.95 4.08-.23 5.03 1.6.95 1.83.23 4.09-1.6 5.03l-17.32 8.97c-1.65.93-2.93 2.73-3.38 4.87l-4.53 22.7a3.73 3.73 0 01-3.66 3.01z"/><path class="st0" d="M142.28 72.8c-.4 0-.81-.07-1.21-.2a3.737 3.737 0 01-2.32-4.75l2.43-7.08a42.548 42.548 0 0110.11-16.18l4.75-4.75a3.73 3.73 0 015.28 0 3.73 3.73 0 010 5.28l-4.75 4.75a35.017 35.017 0 00-8.32 13.33l-2.43 7.08a3.765 3.765 0 01-3.54 2.52zm-22.54 0c-1.55 0-3-.97-3.53-2.52l-2.43-7.08a34.98 34.98 0 00-8.32-13.32l-4.75-4.75a3.73 3.73 0 010-5.28 3.73 3.73 0 015.28 0l4.75 4.76a42.563 42.563 0 0110.1 16.17l2.43 7.09c.67 1.95-.37 4.08-2.32 4.75-.39.11-.8.18-1.21.18zm11.27 133.88a3.73 3.73 0 01-3.73-3.73V92.27a3.73 3.73 0 013.73-3.73c2.06 0 3.74 1.67 3.74 3.73v110.67a3.747 3.747 0 01-3.74 3.74z"/></svg>