<svg version="1.1" id="Слой_1" xmlns="http://www.w3.org/2000/svg" x="0" y="0" viewBox="0 0 68 65.66" xml:space="preserve"><g fill="#697276"><path d="M20.12 41.38C9.03 41.38 0 32.12 0 20.74S9.03.1 20.12.1c11.09 0 20.12 9.26 20.12 20.64s-9.02 20.64-20.12 20.64zm0-39.85c-10.33 0-18.73 8.62-18.73 19.22s8.4 19.22 18.73 19.22 18.73-8.62 18.73-19.22-8.4-19.22-18.73-19.22z"/><path d="M6.55 20.74c0-.25.05-.49.12-.71H.69c-.38 0-.69.32-.69.71s.31.71.69.71h5.98c-.07-.22-.12-.46-.12-.71zm33-.71H11.06c.07.23.12.46.12.71 0 .25-.05.49-.12.71h28.49c.38 0 .69-.32.69-.71s-.31-.71-.69-.71z"/><path d="M8.87 23.83c-1.66 0-3.01-1.38-3.01-3.08 0-1.7 1.35-3.08 3.01-3.08s3.01 1.38 3.01 3.08c-.01 1.69-1.36 3.08-3.01 3.08zm0-4.75c-.89 0-1.62.75-1.62 1.66 0 .92.73 1.66 1.62 1.66.89 0 1.62-.75 1.62-1.66-.01-.91-.73-1.66-1.62-1.66zm8.94-6.59c0-.3.06-.58.16-.85-4.19-.49-8.07-2.39-11.1-5.49a.677.677 0 00-.98 0 .73.73 0 000 1.01c3.27 3.35 7.46 5.4 11.99 5.91-.04-.19-.07-.38-.07-.58zm16.54-6.34a.677.677 0 00-.98 0c-3.03 3.1-6.91 5-11.09 5.49a2.255 2.255 0 01.08 1.43c4.53-.51 8.72-2.56 11.99-5.91a.73.73 0 000-1.01z"/><path d="M20.12 15.57c-1.66 0-3.01-1.38-3.01-3.08s1.35-3.08 3.01-3.08c1.66 0 3.01 1.38 3.01 3.08s-1.35 3.08-3.01 3.08zm0-4.74c-.89 0-1.62.75-1.62 1.66 0 .92.73 1.66 1.62 1.66.89 0 1.62-.75 1.62-1.66 0-.92-.73-1.66-1.62-1.66zm9.65 19.98a19.578 19.578 0 00-9.65-2.53h-.01c-5.37 0-10.42 2.15-14.22 6.04a.73.73 0 000 1.01c.27.28.71.28.98 0 3.54-3.63 8.24-5.63 13.24-5.63h.01c3.16 0 6.19.8 8.9 2.3.13-.46.4-.87.75-1.19zm4.58 3.52c-.21-.22-.44-.41-.66-.61-.2.44-.52.81-.92 1.07.2.19.4.36.6.55.14.14.31.21.49.21s.36-.07.49-.21a.73.73 0 000-1.01z"/><path d="M31.42 35.94c-1.79 0-3.25-1.46-3.25-3.25s1.46-3.25 3.25-3.25 3.25 1.46 3.25 3.25-1.46 3.25-3.25 3.25zm0-5c-.96 0-1.75.79-1.75 1.75s.79 1.75 1.75 1.75 1.75-.79 1.75-1.75c0-.97-.79-1.75-1.75-1.75zm27.68-7.02a.75.75 0 01-.53-.22l-7.14-7.14a.751.751 0 01.53-1.28h3.12C53.65 5.48 39.7 1.51 39.56 1.47a.747.747 0 01-.54-.82c.04-.37.36-.65.73-.65 8.97 0 15.53 2.16 19.49 6.41 3.2 3.44 3.73 7.24 3.8 8.87h3.2c.3 0 .58.18.69.46.12.28.05.6-.16.82l-7.14 7.14a.75.75 0 01-.53.22zm-5.33-7.15l5.33 5.33 5.33-5.33h-2.14c-.21 0-.41-.09-.55-.24a.775.775 0 01-.2-.56c0-.05.26-4.63-3.42-8.57-2.96-3.16-7.55-5.06-13.68-5.68 4.77 2.19 11.67 6.65 12.22 14.25a.76.76 0 01-.2.56c-.14.15-.34.24-.55.24h-2.14zM27.73 65.5c-8.97 0-15.53-2.16-19.49-6.41-3.2-3.44-3.73-7.24-3.8-8.87h-3.2a.74.74 0 01-.69-.46c-.12-.28-.05-.6.16-.82l7.14-7.14c.28-.28.78-.28 1.06 0l7.14 7.14a.751.751 0 01-.53 1.28H12.4c1.42 9.79 15.38 13.76 15.52 13.8.36.1.59.45.54.82-.04.38-.36.66-.73.66zM3.05 48.73h2.14c.21 0 .41.09.55.24.14.15.21.36.2.56 0 .05-.26 4.63 3.42 8.57 2.96 3.16 7.55 5.06 13.68 5.68-4.77-2.19-11.67-6.65-12.22-14.25a.76.76 0 01.2-.56c.14-.15.34-.24.55-.24h2.14L8.38 43.4l-5.33 5.33z"/><path d="M48.58 65.73c-10.74 0-19.49-8.52-19.49-19s8.74-19 19.49-19c10.74 0 19.49 8.52 19.49 19s-8.74 19-19.49 19zm0-36.69c-10 0-18.14 7.94-18.14 17.69s8.14 17.69 18.14 17.69 18.14-7.94 18.14-17.69-8.13-17.69-18.14-17.69z"/><path d="M48.58 51.55c-4.79 0-8.68-4.56-8.68-10.17 0-5.19 3.49-8.68 8.68-8.68 5.19 0 8.68 3.49 8.68 8.68 0 5.61-3.89 10.17-8.68 10.17zm0-17.54c-4.46 0-7.34 2.89-7.34 7.37 0 4.89 3.29 8.86 7.34 8.86s7.34-3.97 7.34-8.86c0-4.48-2.88-7.37-7.34-7.37z"/><path d="M48.58 51.55c-4.79 0-8.68-4.56-8.68-10.17 0-.97.12-1.91.36-2.77.06-.23.25-.4.48-.46 1.79-.44 4.64-.71 8.06.52 2.82 1.01 5.61.67 7.45.21.18-.05.37-.02.53.08.16.1.27.25.3.43.12.63.18 1.3.18 2 0 5.6-3.89 10.16-8.68 10.16zm-7.12-12.22c-.15.65-.22 1.34-.22 2.05 0 4.89 3.29 8.86 7.34 8.86s7.34-3.97 7.34-8.86c0-.37-.02-.73-.06-1.08-2 .41-4.74.59-7.52-.41-2.85-1.02-5.26-.9-6.88-.56zm7.13 26.33c-.18 0-.35-.07-.47-.19a.629.629 0 01-.2-.46v-7.69c0-.24.14-.46.35-.58l6.63-3.45c.18-.09.4-.1.59-.02.23.1.48.17.73.22l4.68.79c1.49.25 2.84 1.02 3.8 2.17.19.22.2.54.04.78-3.62 5.28-9.65 8.43-16.15 8.43zm.67-7.95v6.63c5.62-.2 10.81-2.94 14.08-7.43a4.955 4.955 0 00-2.66-1.35L56 54.77c-.25-.04-.5-.11-.74-.19l-6 3.13z"/><path d="M48.59 65.66c-6.5 0-12.54-3.15-16.16-8.44a.646.646 0 01.04-.78 6.308 6.308 0 013.8-2.17l4.68-.79c.25-.04.5-.12.73-.22.19-.08.4-.07.59.02l6.64 3.45c.22.11.35.33.35.58V65c0 .37-.3.66-.67.66zm-14.76-8.74c3.27 4.49 8.46 7.23 14.08 7.43v-6.63L41.9 54.6c-.24.08-.48.15-.74.19l-4.68.79c-1 .16-1.92.63-2.65 1.34z"/><path d="M55.49 53.28c-.87-.38-1.5-1.11-1.74-2.02l-.47-1.83a.666.666 0 00-.65-.49h-.49c-1.06.7-2.28 1.1-3.58 1.1-1.3 0-2.52-.4-3.58-1.1h-.45c-.31 0-.57.2-.65.49l-.47 1.83c-.23.9-.87 1.64-1.74 2.02-.23.1-.39.32-.4.57-.01.25.13.48.35.6l6.64 3.45c.1.05.21.08.31.08.11 0 .22-.03.31-.08l6.63-3.45a.64.64 0 00.35-.6c.02-.25-.14-.47-.37-.57zm-6.9 3.3l-5.31-2.76c.7-.58 1.2-1.35 1.43-2.24l.35-1.33h7.05l.34 1.33c.23.89.73 1.67 1.43 2.24l-5.29 2.76zM20.12 14.86c-.24 0-.47-.05-.69-.12v25.93c0 .39.31.71.69.71.38 0 .69-.32.69-.71V14.74c-.22.07-.45.12-.69.12zm0-4.74c.24 0 .47.05.69.12V.81c0-.39-.31-.71-.69-.71-.38 0-.69.32-.69.71v9.42c.22-.06.45-.11.69-.11z"/><path d="M20.47.2a.677.677 0 00-.7 0C13.23 4.11 8.97 11.06 8.28 18.68a2.27 2.27 0 011.37.17c.62-7.04 4.5-13.48 10.46-17.2 6.53 4.11 10.56 11.35 10.56 19 0 7.81-4.04 15.12-10.56 19.19-5.86-3.69-9.71-9.92-10.43-16.69-.3.14-.63.23-.98.23-.14 0-.27-.02-.4-.04.79 7.34 5.02 14.06 11.45 17.95.11.07.23.1.35.1.12 0 .24-.03.35-.1 7.15-4.28 11.6-12.19 11.6-20.64.02-8.29-4.42-16.13-11.58-20.45z"/></g></svg>