<svg version="1.1" id="Capa_1" xmlns="http://www.w3.org/2000/svg" x="0" y="0" viewBox="0 0 512 399.08" xml:space="preserve"><g fill="#b0bec5"><path d="M34.51 399.08H477.5c19.03 0 34.51-15.6 34.51-34.77V344.1c0-7.38-5.98-13.38-13.32-13.38h-25.64c6.13-7.4 9.81-16.85 9.81-26.92v-94.88c0-4.14-3.36-7.5-7.5-7.5s-7.5 3.36-7.5 7.5v94.87c0 13.11-9.63 24.58-22.49 26.92H66.67c-12.86-2.34-22.49-13.81-22.49-26.92V42.36C44.16 27.27 56.43 15 71.51 15h368.98c15.08 0 27.36 12.27 27.36 27.36v131.57c0 4.14 3.36 7.5 7.5 7.5s7.5-3.36 7.5-7.5V42.36C482.85 19 463.85 0 440.49 0H71.51C48.16 0 29.16 19 29.16 42.36V303.8c0 10.07 3.68 19.51 9.81 26.92H13.32c-7.34 0-13.32 6-13.32 13.38v20.21c0 19.17 15.48 34.77 34.51 34.77zm156.5-53.36H321v6.06c0 2.5-2.06 4.62-4.5 4.62H195.51c-2.44 0-4.5-2.11-4.5-4.62v-6.06zm-176.01 0h161.01v6.06c0 10.82 8.75 19.62 19.5 19.62h120.98c10.75 0 19.5-8.8 19.5-19.62v-6.06H497v18.59c0 10.9-8.75 19.77-19.51 19.77H34.51c-10.76 0-19.51-8.87-19.51-19.77v-18.59z"/><path d="M238.5 46.08c4.14 0 7.5-3.36 7.5-7.5s-3.36-7.5-7.5-7.5H74.22c-7.58 0-13.75 6.17-13.75 13.75v256.1c0 7.58 6.17 13.75 13.75 13.75h363.56c7.58 0 13.75-6.17 13.75-13.75V44.83c0-7.58-6.17-13.75-13.75-13.75H273.5c-4.14 0-7.5 3.36-7.5 7.5s3.36 7.5 7.5 7.5h163.03v22.09H116.11V46.08H238.5zm148.15 253.61h-73.26v-9.02c0-10.37 8.43-18.8 18.8-18.8h35.66c10.36 0 18.8 8.43 18.8 18.8v9.02zm-51.52-57.7c0-8.23 6.66-14.89 14.89-14.89 13.21 0 19.88 16.06 10.53 25.42-5.82 5.82-15.24 5.82-21.06 0a14.83 14.83 0 01-4.36-10.53zM263.5 83.17h173.03v100.76h-34.89v-9.01c0-16.04-11.23-29.49-26.23-32.93 7.15-11.53 5.74-26.89-4.26-36.89-5.65-5.65-13.15-8.75-21.14-8.75-16.52 0-29.89 13.37-29.89 29.89 0 5.66 1.57 11.07 4.49 15.76-15 3.45-26.23 16.9-26.23 32.93v9.01H263.5V83.17zm104.35 72.94c10.36 0 18.8 8.43 18.8 18.8v9.01h-73.26v-9.01c0-10.37 8.43-18.8 18.8-18.8h35.66zm-32.72-29.89c0-8.23 6.66-14.89 14.89-14.89 13.21 0 19.88 16.06 10.53 25.42-5.82 5.82-15.24 5.82-21.06 0a14.795 14.795 0 01-4.36-10.53zm-71.63 72.71h173.03v100.76h-34.89v-9.02c0-16.04-11.23-29.49-26.23-32.93 7.15-11.53 5.74-26.89-4.26-36.89-18.87-18.87-51.02-5.3-51.02 21.14 0 5.66 1.57 11.07 4.49 15.76-15 3.45-26.23 16.9-26.23 32.93v9.02H263.5V198.93zM75.47 46.08h25.65v22.09H75.47V46.08zm123.14 253.61h-73.26v-9.02c0-10.37 8.43-18.8 18.8-18.8h35.66c10.37 0 18.8 8.43 18.8 18.8v9.02zm-36.62-72.59c13.21 0 19.88 16.06 10.53 25.42-5.82 5.82-15.24 5.82-21.06 0-9.41-9.42-2.63-25.42 10.53-25.42zm86.51 72.59h-34.89v-9.02c0-16.04-11.23-29.49-26.23-32.93 7.15-11.53 5.74-26.89-4.26-36.89-18.87-18.87-51.02-5.3-51.02 21.14 0 5.66 1.57 11.07 4.49 15.76-15 3.45-26.23 16.9-26.23 32.93v9.02H75.47V198.93H248.5v100.76zm-68.68-143.58c10.37 0 18.8 8.43 18.8 18.8v9.01h-73.26v-9.01c0-10.37 8.43-18.8 18.8-18.8h35.66zm-17.83-44.78c13.21 0 19.88 16.06 10.53 25.42-5.82 5.82-15.24 5.82-21.06 0-9.31-9.31-2.77-25.42 10.53-25.42zm86.51-28.16v100.76h-34.89v-9.01c0-16.04-11.23-29.49-26.24-32.93 7.15-11.53 5.74-26.89-4.26-36.89-5.65-5.65-13.15-8.75-21.13-8.75-16.52 0-29.89 13.37-29.89 29.89 0 5.66 1.57 11.07 4.49 15.76-15 3.45-26.23 16.9-26.23 32.93v9.01H75.47V83.17H248.5z"/></g></svg>