<svg height="512" viewBox="0 0 60 60" width="512" xmlns="http://www.w3.org/2000/svg"><g id="Page-1" fill="none" fill-rule="evenodd"><g id="037---Cloud-Data" fill="#b0bec5" fill-rule="nonzero" transform="translate(-1)"><path id="Shape" d="M51.2 12.176A14.814 14.814 0 0036.93 0a14.3 14.3 0 00-11.838 6.345 11.431 11.431 0 00-2.452-.265 12.086 12.086 0 00-11.6 9.7A10.954 10.954 0 001 26.88a11.016 11.016 0 008 10.754V55a5.006 5.006 0 005 5h34a5.006 5.006 0 005-5V37.1a13.011 13.011 0 008-12.17 12.91 12.91 0 00-9.8-12.754zM19 58a1 1 0 01-1-1V39a1 1 0 011-1h24a1 1 0 011 1v18a1 1 0 01-1 1zm32-3a3 3 0 01-3 3h-2.184c.118-.32.18-.659.184-1V39a3 3 0 00-3-3H19a3 3 0 00-3 3v18c.003.341.066.68.184 1H14a3 3 0 01-3-3V32h13a1 1 0 000-2H11v-3a1 1 0 011-1h12a5.019 5.019 0 014.95 4.289A2 2 0 0030.922 32H50a1 1 0 011 1zM37 15a2 2 0 110-4 2 2 0 010 4zm16 19.907V33a3 3 0 00-3-3h-6.152l2.777-2.222A1 1 0 0047 27v-4.142a4 4 0 10-2 0v3.662L40.644 30H38V16.858a4 4 0 10-2 0v13.148h-5.069A7.032 7.032 0 0024 24H12a3 3 0 00-3 3v8.541a9.051 9.051 0 01-6-8.661 8.918 8.918 0 018.68-9.12h.2a1 1 0 00.989-.857A10.114 10.114 0 0122.64 8.08c.887 0 1.77.124 2.621.371a1 1 0 001.131-.436A12.359 12.359 0 0136.93 2a12.835 12.835 0 0112.411 11.164 1 1 0 00.82.842A10.882 10.882 0 0159 24.93a11.068 11.068 0 01-6 9.977zM46 21a2 2 0 110-4 2 2 0 010 4z"/><path id="Shape" d="M21 44h14a1 1 0 000-2H21a1 1 0 000 2zm20-2h-2a1 1 0 000 2h2a1 1 0 000-2zm0 5H21a1 1 0 000 2h20a1 1 0 000-2zm-17 5h-3a1 1 0 000 2h3a1 1 0 000-2zm17 0H28a1 1 0 000 2h13a1 1 0 000-2z"/></g></g></svg>