<svg version="1.1" id="Слой_1" xmlns="http://www.w3.org/2000/svg" x="0" y="0" viewBox="0 0 65.5 65.5" xml:space="preserve"><g fill="#697276"><path d="M35.75 9.5h-20C13.68 9.5 12 7.82 12 5.75v-5c0-.41.34-.75.75-.75h26c.41 0 .75.34.75.75v5c0 2.07-1.68 3.75-3.75 3.75zm-22.25-8v4.25C13.5 6.99 14.51 8 15.75 8h20C36.99 8 38 6.99 38 5.75V1.5H13.5zm-2.75 20h-4c-.96 0-1.75-.78-1.75-1.75v-4c0-.96.79-1.75 1.75-1.75h4c.96 0 1.75.79 1.75 1.75v4c0 .97-.78 1.75-1.75 1.75zm-4-6c-.14 0-.25.11-.25.25v4c0 .14.11.25.25.25h4c.14 0 .25-.11.25-.25v-4c0-.14-.11-.25-.25-.25h-4zm4 18h-4c-.96 0-1.75-.78-1.75-1.75v-4c0-.96.79-1.75 1.75-1.75h4c.96 0 1.75.79 1.75 1.75v4c0 .97-.78 1.75-1.75 1.75zm-4-6c-.14 0-.25.11-.25.25v4c0 .14.11.25.25.25h4c.14 0 .25-.11.25-.25v-4c0-.14-.11-.25-.25-.25h-4zm4 18.01h-4c-.96 0-1.75-.79-1.75-1.75v-4c0-.96.79-1.75 1.75-1.75h4c.96 0 1.75.79 1.75 1.75v4c0 .96-.78 1.75-1.75 1.75zm-4-6c-.14 0-.25.11-.25.25v4c0 .14.11.25.25.25h4c.14 0 .25-.11.25-.25v-4c0-.14-.11-.25-.25-.25h-4zm4 18h-4c-.96 0-1.75-.79-1.75-1.75v-4c0-.96.79-1.75 1.75-1.75h4c.96 0 1.75.79 1.75 1.75v4c0 .96-.78 1.75-1.75 1.75zm-4-6c-.14 0-.25.11-.25.25v4c0 .14.11.25.25.25h4c.14 0 .25-.11.25-.25v-4c0-.14-.11-.25-.25-.25h-4zm13.6-35.01h-4.6c-.41 0-.75-.34-.75-.75s.34-.75.75-.75h4.6a.749.749 0 110 1.5zm7.4 4h-12c-.41 0-.75-.34-.75-.75s.34-.75.75-.75h12a.749.749 0 110 1.5zm-5 8h-7c-.41 0-.75-.34-.75-.75s.34-.75.75-.75h7a.749.749 0 110 1.5zm-1 4h-6c-.41 0-.75-.34-.75-.75s.34-.75.75-.75h6a.749.749 0 110 1.5zm0 8.01h-6c-.41 0-.75-.34-.75-.75s.34-.75.75-.75h6c.41 0 .75.34.75.75s-.34.75-.75.75zm1 4h-7c-.41 0-.75-.34-.75-.75s.34-.75.75-.75h7c.41 0 .75.34.75.75s-.34.75-.75.75zm5 8h-12c-.41 0-.75-.34-.75-.75s.34-.75.75-.75h12c.41 0 .75.34.75.75s-.34.75-.75.75zm-5 4h-7c-.41 0-.75-.34-.75-.75s.34-.75.75-.75h7c.41 0 .75.34.75.75s-.34.75-.75.75z"/><path d="M50 55.03v6.72c0 1.24-1.01 2.25-2.25 2.25h-44c-1.24 0-2.25-1.01-2.25-2.25v-58c0-1.24 1.01-2.25 2.25-2.25h44C48.99 1.5 50 2.51 50 3.75v12.72c.51.14 1.01.3 1.5.47V3.75C51.5 1.69 49.82 0 47.75 0h-44C1.68 0 0 1.69 0 3.75v58c0 2.07 1.68 3.75 3.75 3.75h44c2.07 0 3.75-1.68 3.75-3.75v-7.19c-.49.18-.99.34-1.5.47z"/><path d="M44.75 56.5C33.31 56.5 24 47.19 24 35.75S33.31 15 44.75 15 65.5 24.31 65.5 35.75 56.19 56.5 44.75 56.5zm0-40c-10.61 0-19.25 8.64-19.25 19.25C25.5 46.37 34.14 55 44.75 55 55.37 55 64 46.37 64 35.75c0-10.61-8.63-19.25-19.25-19.25z"/><path d="M44.75 48.5C37.72 48.5 32 42.78 32 35.75c0-5.18 3.1-9.81 7.89-11.79a.751.751 0 11.57 1.39 11.221 11.221 0 00-6.96 10.4c0 6.2 5.05 11.25 11.25 11.25S56 41.96 56 35.75c0-.41.34-.75.75-.75s.75.34.75.75c0 7.03-5.72 12.75-12.75 12.75z"/><path d="M40.21 26.73l2.66-2.83-3.78-.9zm4.54 6.52c.26 0 .51.05.75.13v-9.63c0-.41-.34-.75-.75-.75s-.75.34-.75.75v9.63c.24-.07.49-.13.75-.13zm9 1.75h-6.63c.08.24.13.49.13.75s-.05.51-.13.75h6.63c.41 0 .75-.34.75-.75s-.34-.75-.75-.75z"/><path d="M44.75 39c-1.79 0-3.25-1.46-3.25-3.25s1.46-3.25 3.25-3.25S48 33.96 48 35.75c0 1.8-1.46 3.25-3.25 3.25zm0-5c-.96 0-1.75.79-1.75 1.75s.79 1.75 1.75 1.75 1.75-.79 1.75-1.75S45.71 34 44.75 34z"/></g></svg>