<svg version="1.1" id="Слой_1" xmlns="http://www.w3.org/2000/svg" x="0" y="0" viewBox="0 0 65.5 65.5" xml:space="preserve"><g fill="#697276"><path d="M64.75 9.5h-48c-.41 0-.75-.34-.75-.75 0-4-3.25-7.25-7.25-7.25-.41 0-.75-.34-.75-.75S8.34 0 8.75 0h48c4.83 0 8.75 3.92 8.75 8.75 0 .41-.34.75-.75.75zM17.47 8h46.49c-.38-3.65-3.47-6.5-7.21-6.5H13.64A8.76 8.76 0 0117.47 8zm1.28 32.5C11.17 40.5 5 34.33 5 26.75S11.17 13 18.75 13 32.5 19.17 32.5 26.75 26.33 40.5 18.75 40.5zm0-26C12 14.5 6.5 19.99 6.5 26.75 6.5 33.5 12 39 18.75 39S31 33.5 31 26.75c0-6.76-5.5-12.25-12.25-12.25z"/><path d="M18.41 21.04c.26 0 .52.02.78.05v-7.32a.781.781 0 00-1.56 0v7.32c.26-.03.52-.05.78-.05zm8.9-4.92a.777.777 0 00-1.09.12l-4.56 5.72c.45.27.86.6 1.22.97l4.56-5.71a.79.79 0 00-.13-1.1z"/><path d="M18.75 33.5c-3.72 0-6.75-3.03-6.75-6.75S15.03 20 18.75 20s6.75 3.03 6.75 6.75-3.03 6.75-6.75 6.75zm0-12c-2.89 0-5.25 2.36-5.25 5.25S15.86 32 18.75 32 24 29.64 24 26.75c0-2.9-2.36-5.25-5.25-5.25zm43 34h-6c-.41 0-.75-.34-.75-.75v-18c0-.41.34-.75.75-.75h9c.41 0 .75.34.75.75v15c0 2.07-1.68 3.75-3.75 3.75zM56.5 54h5.25c1.24 0 2.25-1.01 2.25-2.25V37.5h-7.5V54z"/><path d="M64.75 37.5h-9c-.41 0-.75-.34-.75-.75v-9c0-.41.34-.75.75-.75h9c.41 0 .75.34.75.75v9c0 .42-.34.75-.75.75zM56.5 36H64v-7.5h-7.5V36z"/><path d="M55.74 37.5h-9c-.41 0-.75-.34-.75-.75v-9c0-.41.34-.75.75-.75h9c.41 0 .75.34.75.75v9c0 .42-.34.75-.75.75zM47.49 36h7.5v-7.5h-7.5V36z"/><path d="M46.75 37.5h-9c-.41 0-.75-.34-.75-.75v-9c0-.41.34-.75.75-.75h9c.41 0 .75.34.75.75v9c0 .42-.34.75-.75.75zM38.5 36H46v-7.5h-7.5V36z"/><path d="M55.74 46.5h-9c-.41 0-.75-.34-.75-.75v-9c0-.41.34-.75.75-.75h9c.41 0 .75.34.75.75v9c0 .42-.34.75-.75.75zM47.49 45h7.5v-7.5h-7.5V45z"/><path d="M46.75 46.5h-9c-.41 0-.75-.34-.75-.75v-9c0-.41.34-.75.75-.75h9c.41 0 .75.34.75.75v9c0 .42-.34.75-.75.75zM38.5 45H46v-7.5h-7.5V45z"/><path d="M55.74 55.5h-9c-.41 0-.75-.34-.75-.75v-9c0-.41.34-.75.75-.75h9c.41 0 .75.34.75.75v9c0 .42-.34.75-.75.75zM47.49 54h7.5v-7.5h-7.5V54z"/><path d="M46.75 55.5h-6c-2.07 0-3.75-1.68-3.75-3.75v-6c0-.41.34-.75.75-.75h9c.41 0 .75.34.75.75v9c0 .42-.34.75-.75.75zm-8.25-9v5.25c0 1.24 1.01 2.25 2.25 2.25H46v-7.5h-7.5zm26.25-18h-27c-.41 0-.75-.34-.75-.75v-6c0-2.07 1.68-3.75 3.75-3.75h21c2.07 0 3.75 1.68 3.75 3.75v6c0 .42-.34.75-.75.75zM38.5 27H64v-5.25c0-1.24-1.01-2.25-2.25-2.25h-21c-1.24 0-2.25 1.01-2.25 2.25V27z"/><path d="M49.75 23.75c-.27 0-.53-.11-.71-.29-.19-.19-.29-.45-.29-.71 0-.26.1-.52.29-.71.37-.37 1.04-.37 1.41 0 .19.19.3.45.3.71a1.009 1.009 0 01-1 1zm4-1c0-.55.45-1 1-1s1 .45 1 1-.45 1-1 1-1-.45-1-1zm6 1c-.27 0-.52-.11-.71-.29-.19-.19-.29-.45-.29-.71 0-.26.1-.52.29-.71.38-.37 1.04-.37 1.42 0 .18.19.29.45.29.71 0 .26-.11.52-.29.71-.19.18-.45.29-.71.29zM8.35 55.21c-1.39 0-2.61-.77-3.11-1.97a.75.75 0 01.4-.98c.38-.16.82.02.98.4.26.63.96 1.05 1.73 1.05 1.01 0 1.84-.72 1.84-1.6 0-1.06-.62-1.6-1.85-1.6C5.88 50.5 5 48.9 5 47.4c0-1.71 1.5-3.1 3.34-3.1 1.39 0 2.61.77 3.11 1.97a.75.75 0 01-.4.98.75.75 0 01-.98-.4c-.26-.63-.96-1.05-1.73-1.05-1.01 0-1.84.72-1.84 1.6 0 1.06.62 1.6 1.84 1.6 2.47 0 3.35 1.6 3.35 3.1 0 1.71-1.5 3.11-3.34 3.11z"/><path d="M8.34 45.79c-.41 0-.75-.34-.75-.75v-1.29c0-.41.34-.75.75-.75s.75.34.75.75v1.29c0 .42-.34.75-.75.75zm0 10.71c-.41 0-.75-.34-.75-.75v-1.29c0-.41.34-.75.75-.75s.75.34.75.75v1.29c0 .41-.34.75-.75.75zm24.41-6h-4.84c-.41 0-.75-.34-.75-.75s.34-.75.75-.75h4.84c.41 0 .75.34.75.75s-.34.75-.75.75zm-8.84 0h-8.84c-.41 0-.75-.34-.75-.75s.34-.75.75-.75h8.84a.749.749 0 110 1.5zm8.84-5h-8.84c-.41 0-.75-.34-.75-.75s.34-.75.75-.75h8.84c.41 0 .75.34.75.75s-.34.75-.75.75zm-12.84 0h-4.84c-.41 0-.75-.34-.75-.75s.34-.75.75-.75h4.84a.749.749 0 110 1.5zm8.84 10h-4.84c-.41 0-.75-.34-.75-.75s.34-.75.75-.75h4.84c.41 0 .75.34.75.75s-.34.75-.75.75zm-8.84 0h-4.84c-.41 0-.75-.34-.75-.75s.34-.75.75-.75h4.84a.749.749 0 110 1.5zM55.03 8.25h1.47v10.76h-1.47z"/><path d="M55.03 27.01v35.74c0 .69-.55 1.25-1.23 1.25H2.7c-.68 0-1.23-.56-1.23-1.25v-54c0-4 3.2-7.25 7.12-7.25H53v-.25h3.49v-.5a.732.732 0 00-.73-.75H8.6C3.86 0 0 3.92 0 8.75v54c0 1.52 1.21 2.75 2.7 2.75h51.1c1.49 0 2.7-1.23 2.7-2.75V27.01h-1.47z"/><path d="M13.78 30.9l-4.52 4.76c-.29.3-.27.77.03 1.06.14.14.33.21.52.21.2 0 .4-.08.54-.23l4.55-4.8a7.09 7.09 0 01-1.12-1zm17.13.51l-6.52-2.94c-.14.49-.34.95-.59 1.38l6.49 2.93c.38.17.82 0 .99-.38.18-.37.01-.82-.37-.99z"/></g></svg>