<svg version="1.1" id="Слой_1" xmlns="http://www.w3.org/2000/svg" x="0" y="0" viewBox="0 0 65.5 65.5" xml:space="preserve"><g fill="#697276"><path d="M2.53 53.38c.16.18.31.36.49.52.03-.12.05-.24.09-.35-.2-.05-.39-.1-.58-.17z"/><path d="M12.75 65.5C8.48 65.5 5 62.03 5 57.75c0-.57.06-1.13.19-1.69A7.716 7.716 0 010 48.75C0 44.48 3.48 41 7.75 41c1.85 0 3.6.65 5 1.83a7.666 7.666 0 015-1.83c4.27 0 7.75 3.48 7.75 7.75 0 3.33-2.1 6.23-5.19 7.31.13.56.19 1.12.19 1.69 0 4.28-3.48 7.75-7.75 7.75zm-5-23c-3.45 0-6.25 2.8-6.25 6.25 0 2.9 1.97 5.39 4.79 6.07.2.05.38.18.48.37.1.18.12.4.06.6a6.3 6.3 0 00-.32 1.97C6.5 61.2 9.3 64 12.75 64S19 61.2 19 57.75c0-.66-.11-1.33-.32-1.96-.07-.2-.05-.42.06-.6.1-.18.28-.32.48-.37a6.226 6.226 0 004.79-6.07c0-3.45-2.8-6.25-6.25-6.25-1.69 0-3.28.67-4.46 1.88-.28.29-.79.29-1.07 0a6.272 6.272 0 00-4.48-1.88z"/><path d="M7.75 52.25c-1.93 0-3.5-1.57-3.5-3.5s1.57-3.5 3.5-3.5 3.5 1.57 3.5 3.5-1.57 3.5-3.5 3.5zm0-5.5c-1.1 0-2 .9-2 2s.9 2 2 2 2-.9 2-2-.9-2-2-2zm10 5.5c-1.93 0-3.5-1.57-3.5-3.5s1.57-3.5 3.5-3.5 3.5 1.57 3.5 3.5-1.57 3.5-3.5 3.5zm0-5.5c-1.1 0-2 .9-2 2s.9 2 2 2 2-.9 2-2-.9-2-2-2zm-5 14.5c-1.93 0-3.5-1.57-3.5-3.5s1.57-3.5 3.5-3.5 3.5 1.57 3.5 3.5-1.57 3.5-3.5 3.5zm0-5.5c-1.1 0-2 .9-2 2s.9 2 2 2 2-.9 2-2-.9-2-2-2zm0-11.14c-.41 0-.75-.34-.75-.75V.77c0-.41.34-.75.75-.75s.75.34.75.75v43.09c0 .41-.33.75-.75.75z"/><path d="M12.75 20.02h-12c-.41 0-.75-.34-.75-.75v-5c0-.41.34-.75.75-.75H7v-3.5H.75A.764.764 0 010 9.26v-5c0-.41.34-.75.75-.75h12c.41 0 .75.34.75.75v15c0 .42-.33.76-.75.76zM1.5 18.52H12V5.01H1.5v3.5h6.25c.41 0 .75.34.75.75v5c0 .41-.34.75-.75.75H1.5v3.51zM54.28 49.5H31.23c-.41 0-.75-.34-.75-.75V47.5c0-3.2-1.27-6.25-3.47-8.37-4.65-4.46-7.2-10.7-6.99-17.14C20.4 10.29 29.84.65 41.51.02c6.31-.34 12.32 1.87 16.9 6.2 4.58 4.34 7.1 10.21 7.1 16.51 0 6.16-2.43 11.92-6.85 16.24-2.34 2.29-3.63 5.22-3.63 8.27v1.49c0 .44-.34.77-.75.77zM31.98 48h21.55v-.74c0-3.46 1.45-6.78 4.08-9.35 4.13-4.03 6.4-9.42 6.4-15.17 0-5.89-2.36-11.37-6.63-15.42S47.5 1.21 41.6 1.53c-10.9.58-19.72 9.59-20.07 20.52a21.298 21.298 0 006.53 16.01c2.5 2.4 3.93 5.84 3.93 9.45V48h-.01zm18.77 9.5h-16c-1.52 0-2.75-1.23-2.75-2.75S33.23 52 34.75 52h16c1.52 0 2.75 1.23 2.75 2.75s-1.23 2.75-2.75 2.75zm-16-4a1.25 1.25 0 000 2.5h16a1.25 1.25 0 000-2.5h-16z"/><path d="M50.75 61.5h-16c-1.52 0-2.75-1.23-2.75-2.75S33.23 56 34.75 56h16c1.52 0 2.75 1.23 2.75 2.75s-1.23 2.75-2.75 2.75zm-16-4a1.25 1.25 0 000 2.5h16a1.25 1.25 0 000-2.5h-16zm16-4h-16c-1.52 0-2.75-1.23-2.75-2.75v-2c0-.41.34-.75.75-.75h20c.41 0 .75.34.75.75v2c0 1.52-1.23 2.75-2.75 2.75zm-17.25-4v1.25c0 .69.56 1.25 1.25 1.25h16c.69 0 1.25-.56 1.25-1.25V49.5H33.5zm15.25 16h-12c-.41 0-.75-.34-.75-.75s.34-.75.75-.75h12c.41 0 .75.34.75.75 0 .42-.33.75-.75.75zm.04-29H36.72c-.23 0-.44-.1-.58-.28a.749.749 0 01-.15-.63l2.27-10.76a6.713 6.713 0 01-2.29-5.05c0-3.74 3.04-6.78 6.78-6.78s6.78 3.04 6.78 6.78c0 1.94-.83 3.75-2.29 5.05l2.27 10.76c.05.22-.01.45-.15.63-.13.18-.35.28-.57.28zM37.65 35h10.22L45.7 24.7c-.06-.28.05-.57.28-.75 1.32-1.02 2.07-2.54 2.07-4.17 0-2.91-2.37-5.28-5.28-5.28s-5.28 2.37-5.28 5.28c0 1.63.76 3.15 2.07 4.17.23.18.33.47.28.75L37.65 35z"/></g></svg>