<svg version="1.1" id="Слой_1" xmlns="http://www.w3.org/2000/svg" x="0" y="0" viewBox="0 0 273.9 204.83" xml:space="preserve"><style>.st0{fill:#b0bec5}</style><path class="st0" d="M28.4 18.54c0-2.73-2.21-4.93-4.93-4.93a4.936 4.936 0 100 9.87 4.949 4.949 0 004.93-4.94zm19.74 0c0-2.73-2.21-4.93-4.93-4.93-2.73 0-4.93 2.21-4.93 4.93 0 2.73 2.2 4.94 4.93 4.94a4.949 4.949 0 004.93-4.94zm19.74 0a4.93 4.93 0 00-4.94-4.93 4.936 4.936 0 100 9.87c2.73-.01 4.94-2.22 4.94-4.94z"/><path class="st0" d="M250.43 204.83H23.47C10.53 204.83 0 194.3 0 181.36V23.47C0 10.53 10.53 0 23.47 0h226.96c12.94 0 23.47 10.53 23.47 23.47v157.89c0 12.94-10.53 23.47-23.47 23.47zM23.47 7.47c-8.82 0-16 7.18-16 16v157.89c0 8.82 7.18 16 16 16h226.96c8.82 0 16-7.18 16-16V23.47c0-8.82-7.18-16-16-16H23.47z"/><path class="st0" d="M270.17 37.07H3.73a3.73 3.73 0 010-7.46h266.43a3.73 3.73 0 013.73 3.73 3.715 3.715 0 01-3.72 3.73zm-83.88 118.41c-.86 0-1.72-.3-2.43-.9a3.728 3.728 0 01-.4-5.27l27.52-32.1-27.52-32.11a3.747 3.747 0 01.4-5.27 3.739 3.739 0 015.27.41l29.6 34.54a3.73 3.73 0 010 4.86l-29.6 34.53c-.75.87-1.79 1.31-2.84 1.31zm-98.68 0c-1.05 0-2.1-.44-2.84-1.3l-29.6-34.53a3.73 3.73 0 010-4.86l29.6-34.54a3.747 3.747 0 015.27-.41c1.57 1.34 1.75 3.7.4 5.27l-27.52 32.11 27.52 32.1a3.747 3.747 0 01-.4 5.27c-.71.6-1.57.89-2.43.89zm24.67 19.74c-.52 0-1.04-.11-1.54-.34a3.729 3.729 0 01-1.85-4.95L158.22 61.4a3.735 3.735 0 014.95-1.86c1.88.85 2.71 3.07 1.85 4.95l-49.34 108.55a3.738 3.738 0 01-3.4 2.18z"/></svg>