<svg width="27" height="30" fill="none" xmlns="http://www.w3.org/2000/svg"><path d="M9.24 17.8c1.04 0 1.89.85 1.89 1.9v8.1a1.89 1.89 0 0 1-3.78 0v-8.1c0-1.05.85-1.9 1.9-1.9z" fill="#111"/><path d="M4.93 8.07v12.49a2.36 2.36 0 0 0 2.33 2.38h12.48c1.3 0 2.34-1.06 2.34-2.38V8.29v-.22H4.92z" fill="#111"/><path d="M17.76 17.8c1.04 0 1.89.85 1.89 1.9v8.1a1.89 1.89 0 0 1-3.78 0v-8.1c0-1.05.85-1.9 1.89-1.9zM1.89 9.17c1.04 0 1.89.85 1.89 1.9v8.09a1.89 1.89 0 0 1-3.78 0v-8.1c0-1.04.85-1.89 1.89-1.89zm23.22 0c1.04 0 1.89.85 1.89 1.9v8.09a1.89 1.89 0 0 1-3.78 0v-8.1c0-1.04.85-1.89 1.9-1.89zM5 7.26C5.04 3.5 8.33.42 12.55 0h1.9c4.22.4 7.51 3.5 7.56 7.27H5z" fill="#111"/><path d="M10.96 3.89c0 .52-.43.95-.97.95a.97.97 0 0 1-.98-.95c0-.53.44-.96.97-.96.54 0 .98.43.98.95zm7.3 0c0 .52-.44.95-.98.95a.97.97 0 0 1-.98-.95c0-.53.44-.96.97-.96.54 0 .98.43.98.95z" fill="#fff"/></svg>