<svg width="35" height="23" fill="none" xmlns="http://www.w3.org/2000/svg"><path d="M1.15 21.7v.12H2V7.05h-.85V21.7zm22.78-1.68l-.12-.08-.06.13-.27.6-.04.1.07.06c.48.36 1.18.67 1.96.9.79.23 1.66.36 2.48.36 1.96 0 3.5-.63 4.56-1.65a5.5 5.5 0 0 0 1.62-4 4.8 4.8 0 0 0-1.22-3.42 11.3 11.3 0 0 0-3.48-2.33l-.26-.13a14.34 14.34 0 0 1-3-1.7 3.37 3.37 0 0 1-1.3-2.78c0-1.83 1.44-4.32 4.75-4.32.74 0 1.45.11 2.05.27.6.16 1.05.36 1.3.53l.11.09.07-.14.24-.52.04-.1-.08-.06a6.83 6.83 0 0 0-3.7-.93c-3.27 0-5.7 2.17-5.7 5.24 0 1.48.59 2.52 1.5 3.33.9.8 2.12 1.37 3.39 1.91a9.34 9.34 0 0 1 3.26 2.06c.75.82 1.16 1.81 1.16 3.13 0 2.8-2.43 4.74-5.2 4.74a8.3 8.3 0 0 1-4.13-1.3zM1.55 3.47a.7.7 0 0 0 .54-.22c.13-.14.19-.33.19-.54 0-.4-.26-.76-.7-.76-.4 0-.7.35-.7.76 0 .42.27.76.67.76zm11.61 18.65c2.26 0 4.42-.84 6.02-2.62 1.6-1.77 2.62-4.47 2.62-8.15 0-3.37-.9-5.99-2.38-7.76A7.54 7.54 0 0 0 13.48.88c-2.4 0-4.57.94-6.14 2.77-1.57 1.82-2.53 4.51-2.53 8 0 3.4.93 6.02 2.44 7.79a7.6 7.6 0 0 0 5.91 2.68zm.03-.88a6.64 6.64 0 0 1-5.58-2.8c-1.28-1.74-1.95-4.18-1.95-6.94 0-2.7.68-5.1 2-6.85a7.03 7.03 0 0 1 5.86-2.81 6.49 6.49 0 0 1 5.62 2.9c1.21 1.77 1.78 4.17 1.78 6.7 0 2.72-.7 5.17-2.03 6.94a6.88 6.88 0 0 1-5.7 2.86z" fill="#000" stroke="#000" stroke-width=".25"/></svg>