<svg width="50" height="34" viewBox="0 0 50 34" fill="none" xmlns="http://www.w3.org/2000/svg">
<path d="M41.4838 4.48686C42.3743 5.25999 44.2432 4.63945 43.9092 3.10101C42.5253 2.98637 41.7236 3.45608 41.4838 4.48686Z" fill="#111111"/>
<path d="M47.5704 2.93074L47.5702 2.93098C47.3269 3.3984 47.0025 4.02165 47.0025 5.09116C47.0006 5.30831 46.8376 5.45718 46.8349 5.12246C46.8461 3.99415 47.1195 3.45058 47.4314 2.8304L47.4321 2.8291C47.4617 2.77012 47.4918 2.71044 47.5219 2.6495C47.6835 2.36173 47.7808 2.48047 47.6929 2.68882C47.6564 2.76545 47.6147 2.84551 47.5704 2.93074Z" fill="#111111"/>
<path d="M47.3041 2.74346C47.361 2.65397 47.4122 2.57342 47.4544 2.5018C47.5607 2.30186 47.4736 2.1751 47.2884 2.44722C47.2526 2.5059 47.2158 2.56535 47.1784 2.62582C46.7892 3.25503 46.3318 3.99433 46.2212 5.11659C46.1946 5.45053 46.3703 5.31672 46.3908 5.10075C46.4853 4.03109 46.9844 3.24621 47.3041 2.74346Z" fill="#111111"/>
<path d="M46.9813 2.57938C47.0861 2.45043 47.175 2.34095 47.2369 2.25374C47.359 2.06339 47.2831 1.92938 47.0757 2.18566C46.9973 2.29268 46.9066 2.40898 46.8089 2.53425C46.3297 3.14882 45.682 3.97926 45.4958 4.98924C45.441 5.31985 45.6273 5.20091 45.6662 4.98767C45.8407 3.98335 46.547 3.11402 46.9813 2.57938Z" fill="#111111"/>
<path d="M45.0406 4.90453C45.4299 3.70101 46.6647 2.37659 47.0428 1.97712C47.1905 1.80555 47.1344 1.66235 46.8928 1.88674C46.3456 2.44722 45.2642 3.71001 44.8715 4.88223C44.7706 5.20189 44.9717 5.11014 45.0406 4.90453Z" fill="#111111"/>
<path fill-rule="evenodd" clip-rule="evenodd" d="M48.1503 0.180688C48.3881 0.0734356 48.5219 0.01311 48.9029 0.00086074C49.606 -0.0214411 49.9884 0.390556 49.9992 1.13004C50.0326 3.42576 49.0146 4.40215 47.9022 5.40554C47.5769 5.69898 47.2372 5.95887 46.8902 6.22424C46.0511 6.8661 45.1699 7.54008 44.3496 8.79875C43.8667 9.53988 43.5942 10.9658 43.3013 12.4984L43.3013 12.4985L43.3013 12.4986L43.3013 12.4987L43.3012 12.4987C43.1268 13.4116 42.9451 14.3623 42.7075 15.2287C42.5113 15.9436 42.3164 16.7081 42.122 17.4704L42.122 17.4705L42.1219 17.4708L42.1219 17.4708C41.7286 19.0135 41.3376 20.547 40.9435 21.6415C40.3218 23.3689 40.8308 27.2893 42.6726 27.8107C40.5737 29.3397 37.1909 28.8882 35.9473 26.9765C34.6965 27.3058 34.06 28.3031 33.422 29.3027C32.9214 30.087 32.4198 30.8728 31.6199 31.3385C30.139 32.2004 28.725 32.5913 26.7628 33.0765C25.672 33.2833 24.7157 33.2449 25.0336 32.9026C25.324 32.4738 25.6348 32.065 25.9457 31.6561C26.7335 30.6201 27.5217 29.5835 27.9792 28.2192C27.386 28.1336 26.7932 28.0444 26.2021 27.9554L26.2021 27.9554C22.5056 27.3991 18.8804 26.8535 15.6753 27.2807C13.5343 27.5662 12.1728 28.5306 10.8545 29.4645C10.404 29.7836 9.95848 30.0992 9.48866 30.3828C5.52773 32.774 1.17065 32.166 0.799345 31.269C0.578952 30.7363 1.19994 30.3458 1.77145 29.9865C2.1146 29.7707 2.4399 29.5661 2.55454 29.3487C1.07792 29.5453 0.749264 29.3331 0 28.5754C1.28867 27.0614 3.4386 26.9249 5.39343 26.8007C6.96738 26.7007 8.41484 26.6087 9.18445 25.8123C9.95034 25.0198 10.3617 24.3397 10.7478 23.7015C11.1749 22.9954 11.571 22.3406 12.382 21.6415C14.3712 19.9272 16.773 18.5153 18.9685 17.8269C20.1334 17.4616 21.2403 17.2261 22.4238 16.9691C24.7861 16.4559 27.2546 15.9197 29.7084 14.5337C32.1002 13.1827 33.5069 10.7915 34.9823 8.35647C36.6301 5.63686 38.2837 2.90767 41.1434 1.70832C42.3315 1.17209 43.4522 1.10963 44.6025 0.981608C45.3355 0.900016 46.0485 0.820669 46.7048 0.659157C47.5513 0.450881 47.9058 0.290975 48.1503 0.180688ZM8.40076 30.1232C6.13575 31.1053 4.42047 31.5095 1.59987 31.1053V31.1055C1.44208 30.8929 1.82437 30.653 2.28892 30.3616C2.87841 29.9918 3.60036 29.5389 3.51939 28.953C3.12239 28.9091 2.78528 28.9156 2.47169 28.9216C1.91326 28.9324 1.42942 28.9417 0.814804 28.6625C0.920835 28.4672 1.07656 28.3047 1.27258 28.1693C2.13028 27.5756 3.75783 27.4925 5.35542 27.4111C7.0337 27.3254 8.67891 27.2415 9.36385 26.569C10.1038 25.8429 10.6155 25.0863 11.1176 24.3439L11.1176 24.3439C11.1754 24.2584 11.2331 24.1731 11.291 24.088C11.8345 23.2885 12.3965 22.5113 13.2526 21.8109C13.5831 21.5419 13.925 21.2871 14.2773 21.0474C15.7361 20.0489 17.541 19.1433 19.3173 18.519C20.4527 18.1199 21.5953 17.8926 22.7547 17.662C24.066 17.4011 25.3523 17.154 26.7677 16.613C28.3609 16.004 30.0934 15.252 31.5059 14.1995C31.8384 13.9529 32.1544 13.6847 32.4517 13.3966C33.9343 11.9606 34.8929 10.2522 35.893 8.52717C37.7303 5.3583 39.5015 2.30338 43.5753 1.88498C44.1111 1.83 44.5786 1.82626 45.0062 1.82285C45.1858 1.82141 45.3583 1.82003 45.5259 1.81494C46.1793 1.79538 46.7576 1.71947 47.3866 1.36499C47.5724 1.99805 47.8629 2.28876 49.1191 2.40496C48.9356 3.99759 47.8733 4.86873 46.6819 5.70466C46.5586 5.79117 46.4338 5.8773 46.3085 5.96381C45.3691 6.61251 44.4373 7.22249 43.7474 8.29598C43.3241 8.95467 42.9874 10.5066 42.5673 12.4429L42.5672 12.443L42.5672 12.4431C42.237 13.9653 41.8552 15.725 41.3392 17.475C40.3259 20.9106 38.7958 24.3075 36.1237 25.7961C35.9795 25.4739 35.995 25.1282 35.9795 24.7454C35.9567 24.1845 35.934 23.6236 35.6039 23.3703C35.2448 24.395 34.8386 25.3725 34.3629 26.2813C32.7949 29.2781 30.4733 31.522 26.594 32.2071C28.4347 29.7163 30.1948 27.144 30.2329 22.8509C29.5626 22.9959 29.2464 23.8852 28.913 24.823C28.6021 25.6976 28.2762 26.6144 27.634 27.0092C26.7806 27.1021 25.9161 27.1015 25.046 27.0493C24.0201 26.9878 22.9867 26.8554 21.9555 26.7233L21.9553 26.7233C19.3948 26.3954 16.848 26.0692 14.4653 26.8337C13.1566 27.2537 11.985 28.002 10.8591 28.721C10.027 29.2525 9.20458 29.7747 8.40076 30.1232ZM41.1053 27.7246C40.4894 27.145 39.7918 24.7608 39.7167 23.5591C39.5644 23.7202 39.3818 23.8967 39.1857 24.0862L39.1854 24.0865L39.1854 24.0865C38.4422 24.8047 37.5048 25.7105 37.2881 26.6825C37.8212 27.5333 39.899 28.0181 41.1053 27.7246Z" fill="#111111"/>
</svg>
