<svg width="24" height="24" fill="none" xmlns="http://www.w3.org/2000/svg"><path d="M14.88 19c1.56.61 3.03 1.18 4.03 1.93a.16.16 0 0 1 0 .26c-2 1.46-4.36 2.24-6.84 2.24A11.46 11.46 0 0 1 .57 12 11.46 11.46 0 0 1 12.07.57c2.84 0 5.57 1.04 7.68 2.93.06.05.07.12.04.19-.03.06-.1.1-.17.1-.82-.12-1.7-.18-2.63-.18-3.35 0-6.07.75-7.86 2.15a6.16 6.16 0 0 0-2.45 5.01c0 2.26.87 4.05 2.66 5.46 1.58 1.25 3.68 2.06 5.54 2.78z" fill="#111"/><path d="M23.32 10.84c.04.02.06.06.06.1a11.35 11.35 0 0 1-.74 5.22.16.16 0 0 1-.15.11c-.03 0-.06 0-.08-.02-1.37-.75-2.86-1.3-4.3-1.84-2.8-1.03-5.2-1.93-5.2-3.9 0-.7.29-1.29.84-1.72.65-.5 1.61-.74 2.87-.74 2.36 0 4.3.8 6.7 2.79z" fill="#111"/></svg>