<svg width="26" height="28" fill="none" xmlns="http://www.w3.org/2000/svg"><path fill-rule="evenodd" clip-rule="evenodd" d="M26 7c0-3.5-1.5-6-3.4-7-3.2.1-7 4.1-5.7 7.8 1.4 3.7 2.3 6.4 2.4 10.5 3.4-3.4 6.4-7 6.7-11.3zm-11.5 7.8c-.5 1-1.2 2.1-2.2 3.3A13.4 13.4 0 0 0 9.4 28c7.7-.8 9.6-7 9.5-9.7v-.5l-.1-.2v-.3l-.2-1v-.1l-.2-.7-.1-.5v-.2l-.1-.3v-.1l-.1-.2V14L18 14v-.2l-.2-.3-.1-.4-.1-.3v-.1l-.1-.1-.2-.6v-.1l-.1-.2-.1-.2v-.1l-.1-.1V11c-.2-.1-.2-.3-.3-.5l-.2-.3V10h-.1l-.1-.2v-.1l-.3-.4v-.1l-.1-.1V9a27.5 27.5 0 0 0-1.2-1.7A12.5 12.5 0 0 0 0 2.6a9 9 0 0 0 6.8 9.6l1.7.5a61.9 61.9 0 0 1 6 2.1z" fill="#111"/></svg>