<?xml version="1.0" encoding="UTF-8"?>
<svg width="1498px" height="278px" viewBox="0 0 1498 278" version="1.1" xmlns="http://www.w3.org/2000/svg" xmlns:xlink="http://www.w3.org/1999/xlink">
    <!-- Generator: Sketch 49.3 (51167) - http://www.bohemiancoding.com/sketch -->
    <title>Artboard</title>
    <desc>Created with Sketch.</desc>
    <defs></defs>
    <g id="Artboard" stroke="none" stroke-width="1" fill="none" fill-rule="evenodd">
        <g id="city-v6" transform="translate(0.000000, 3.000000)">
            <g id="Group-3" transform="translate(383.000000, 194.000000)">
                <path d="M6.5,2.6 C7.28,2.6 7.8,3.12 7.8,3.9 L7.8,6.5 C7.8,7.28 7.28,7.8 6.5,7.8 C5.72,7.8 5.2,7.28 5.2,6.5 L5.2,3.9 C5.2,3.12 5.72,2.6 6.5,2.6 Z" id="Shape-Copy-9" fill="#eaeeef"></path>
                <path d="M6.5,5.2 C8.06,5.2 9.1,6.37 9.1,8.125 L9.1,13.975 C9.1,15.73 8.06,16.9 6.5,16.9 C4.94,16.9 3.9,15.73 3.9,13.975 L3.9,8.125 C3.9,6.37 4.94,5.2 6.5,5.2 Z" id="Shape-Copy-8" fill="#eaeeef"></path>
                <circle id="Oval" stroke="#eaeeef" stroke-width="1.3" cx="6.5" cy="3.9" r="3.9"></circle>
                <path d="M1.86494141,1.25969238 C3.14050293,0.317700195 4.76984049,5.28981934 6.5,5.28981934 C8.23015951,5.28981934 10.3276367,0.598583984 11.5597168,1.25969238 C12.3811035,1.70043132 11.544165,4.70445964 9.04890137,10.2717773 L3.97807617,10.2717773 C1.71894531,4.89171549 1.01456706,1.88768717 1.86494141,1.25969238 Z" id="Rectangle-2" fill="#eaeeef"></path>
                <rect id="Rectangle" fill="#eaeeef" x="0" y="55.9" width="13" height="9.1"></rect>
                <rect id="Rectangle-Copy" fill="#eaeeef" x="3.9" y="14.3" width="5.2" height="42.9"></rect>
                <polygon id="Rectangle-Copy-2" fill="#eaeeef" points="1.3 14.3 11.7 14.3 10.4 16.9 2.6 16.9"></polygon>
            </g>
            <polygon id="Shape" fill="#eaeeef" points="185 129.5 205 129.5 205 245 185 245"></polygon>
            <polygon id="Shape" fill="#eaeeef" points="181 119 209 119 209 124 205 133 185 133 181 124"></polygon>
            <polygon id="Shape" fill="#eaeeef" points="181 206 209 206 209 212 181 212"></polygon>
            <polygon id="Shape" fill="#eaeeef" points="183 180 207 180 207 182 183 182"></polygon>
            <polygon id="Shape" fill="#eaeeef" points="188 91 202 91 202 93 188 93"></polygon>
            <polygon id="Shape" fill="#eaeeef" points="193 42 197 42 197 44 193 44"></polygon>
            <polygon id="Shape" fill="#eaeeef" points="193 12 197 12 197 14 193 14"></polygon>
            <polygon id="Shape" fill="#eaeeef" points="183 214 207 214 207 216 183 216"></polygon>
            <polygon id="Shape" fill="#eaeeef" points="183.4 243 206.6 243 206.6 245 183.4 245"></polygon>
            <polygon id="Shape" fill="#eaeeef" points="189 91 201 91 201 157.5 189 157.5"></polygon>
            <polygon id="Shape" fill="#eaeeef" points="193 73 197 73 197 91 193 91"></polygon>
            <polygon id="Shape" fill="#eaeeef" points="193 239 197 239 197 259 193 259"></polygon>
            <polygon id="Shape" fill="#eaeeef" points="185 239 187 239 187 273.5 185 273.5"></polygon>
            <polygon id="Shape" fill="#eaeeef" points="203 239 205 239 205 273.8 203 273.8"></polygon>
            <polygon id="Shape" fill="#eaeeef" points="171.2 264.7 188.9 218.5 190.8 219.2 173.1 265.4"></polygon>
            <polygon id="Shape" fill="#eaeeef" points="219 265.3 200.9 219 199 219.7 217.1 266"></polygon>
            <polygon id="Shape" fill="#eaeeef" points="195.1 239.3 197 238.7 208 272.8 206.1 273.4"></polygon>
            <polygon id="Shape" fill="#eaeeef" points="205 239.6 203.1 239 192.3 272.4 194.2 273"></polygon>
            <polygon id="Shape" fill="#eaeeef" points="185.1 239.3 187 238.7 198 272.8 196.1 273.4"></polygon>
            <polygon id="Shape" fill="#eaeeef" points="195 239.6 193.1 239 182.2 273.2 184.1 273.8"></polygon>
            <polygon id="Shape" fill="#eaeeef" points="210.4 235.2 212 236.4 205.4 245.6 203.8 244.4"></polygon>
            <polygon id="Shape" fill="#eaeeef" points="208 225.6 209.6 226.8 203 236 201.4 234.8"></polygon>
            <polygon id="Shape" fill="#eaeeef" points="179.5 234.8 178 236 184.5 245 186.1 243.9"></polygon>
            <polygon id="Shape" fill="#eaeeef" points="181.5 225 179.9 226.1 186.4 235.1 188 234"></polygon>
            <path d="M175.5,255 C178,255 180,257 180,259.5 C180,262 178,264 175.5,264 C173,264 171,262 171,259.5 C171,257 173,255 175.5,255 Z" id="Shape" fill="#eaeeef"></path>
            <path d="M214.5,255 C217,255 219,257 219,259.5 C219,262 217,264 214.5,264 C212,264 210,262 210,259.5 C210,257 212,255 214.5,255 Z" id="Shape" fill="#eaeeef"></path>
            <polygon id="Shape" fill="#eaeeef" points="205.5 242.3 203.8 243.4 221.5 270.7 223.2 269.6"></polygon>
            <polygon id="Shape" fill="#eaeeef" points="183.9 243 185.6 244.1 166.6 273.5 164.9 272.4"></polygon>
            <polygon id="Shape" fill="#eaeeef" points="182.6 214 184.6 214.4 171.5 273.9 169.5 273.5"></polygon>
            <polygon id="Shape" fill="#eaeeef" points="207 214 205 214.4 218 272.6 220 272.2"></polygon>
            <polygon id="Shape" fill="#eaeeef" points="194 0 196 0 196 105 194 105"></polygon>
            <polygon id="Shape" fill="#eaeeef" points="434 155 475 155 475 258 434 258"></polygon>
            <polygon id="Shape-Copy-2" fill="#eaeeef" points="486 155 527 155 527 258 486 258"></polygon>
            <polygon id="Shape-Copy-2" fill="#eaeeef" points="502 149 524 149 524 258 502 258"></polygon>
            <polygon id="Shape-Copy-2" fill="#eaeeef" points="479 240 534 240 534 258 479 258"></polygon>
            <path d="M728,235.013995 C728,230.9212 724.857143,227.543019 720.732143,227.218194 C720.011905,227.153229 719.357143,227.153229 718.702381,227.283159 C717.720238,227.478054 716.738095,227.023299 716.214286,226.178754 C714.577381,223.645118 711.696429,221.956028 708.422619,221.956028 C707.244048,221.956028 706.065476,222.150923 705.017857,222.605678 C703.77381,223.125398 702.39881,222.540713 701.744048,221.371343 C699.517857,217.408477 695.196429,214.874842 690.220238,215.004772 C684.327381,215.134702 679.220238,219.032602 677.910714,224.944418 C677.779762,225.594069 677.190476,226.048824 676.535714,226.048824 L673,226.048824 L673,261 L728,261 L728,236.313295 L728,235.013995 Z" id="Shape" fill="#eaeeef"></path>
            <polygon id="Shape" fill="#eaeeef" points="438 151 472 151 472 260 438 260"></polygon>
            <polygon id="Shape-Copy-4" fill="#eaeeef" points="449 148 469 148 469 253 449 253"></polygon>
            <polygon id="Shape" fill="#eaeeef" points="136.5 214.5 159.5 214.5 159.5 258.5 136.5 258.5"></polygon>
            <polygon id="Shape" fill="#eaeeef" points="80.5 246.5 101.5 246.5 101.5 265.5 80.5 265.5"></polygon>
            <polygon id="Shape" fill="#eaeeef" points="90.5 249.5 111.5 249.5 111.5 268.5 90.5 268.5"></polygon>
            <polygon id="Shape" fill="#eaeeef" points="53.5 227.5 87.5 227.5 87.5 258.5 53.5 258.5"></polygon>
            <polygon id="Shape" fill="#eaeeef" points="104.5 235.5 138.5 235.5 138.5 258.5 104.5 258.5"></polygon>
            <polygon id="Shape" fill="#eaeeef" points="230 247 258 247 258 258 230 258"></polygon>
            <polygon id="Shape" fill="#eaeeef" points="748 241 772 241 772 260 748 260"></polygon>
            <polygon id="Shape" fill="#eaeeef" points="748 237 755 237 755 256 748 256"></polygon>
            <polygon id="Shape" fill="#eaeeef" points="784 246 803 246 803 252 784 252"></polygon>
            <polygon id="Shape" fill="#eaeeef" points="777 249 806.4 249 806.4 257 777 257"></polygon>
            <path d="M793.3,248.4 C788.5,248.4 784.6,247.3 782.6,245.3 C781.8,244.5 781.8,243.2 782.6,242.3 C783.4,241.5 784.7,241.5 785.5,242.3 C786.2,243 788.6,244.2 793.3,244.2 C798,244.2 800.4,243 801.1,242.3 C801.9,241.5 803.2,241.5 804,242.3 C804.8,243.1 804.8,244.4 804,245.3 C802,247.3 798.1,248.4 793.3,248.4 Z" id="Shape" fill="#eaeeef" fill-rule="nonzero"></path>
            <polygon id="Shape" fill="#eaeeef" points="261 224 275 224 275 259 261 259"></polygon>
            <polygon id="Shape-Copy" fill="#eaeeef" points="278 231 300 231 300 259 278 259"></polygon>
            <polygon id="Shape" fill="#eaeeef" points="268 252 282 252 282 271 268 271"></polygon>
            <polygon id="Shape" fill="#eaeeef" points="656 239 670 239 670 258 656 258"></polygon>
            <polygon id="Shape" fill="#eaeeef" points="551.4 255.5 565.4 255.5 565.4 259 551.4 259"></polygon>
            <polygon id="Shape" fill="#eaeeef" points="725 239 745 239 745 258 725 258"></polygon>
            <polygon id="Shape" fill="#eaeeef" points="663 252 677 252 677 271 663 271"></polygon>
            <polygon id="Shape" fill="#eaeeef" points="116.5 230.5 132.5 230.5 132.5 253.5 116.5 253.5"></polygon>
            <polygon id="Shape" fill="#eaeeef" points="1144 229 1199 229 1199 273 1144 273"></polygon>
            <polygon id="Shape" fill="#eaeeef" points="1288 205 1316 205 1316 273 1288 273"></polygon>
            <polygon id="Shape" fill="#eaeeef" points="1304 216 1344.5 216 1344.5 273 1304 273"></polygon>
            <polygon id="Shape" fill="#eaeeef" points="1370 207 1390 207 1390 242 1370 242"></polygon>
            <polygon id="Shape" fill="#eaeeef" points="1321 213 1327 213 1327 248 1321 248"></polygon>
            <polygon id="Shape" fill="#eaeeef" points="1384 237 1390 237 1390 272 1384 272"></polygon>
            <polygon id="Shape" fill="#eaeeef" points="1350 210 1390 210 1390 266.5 1350 266.5"></polygon>
            <polygon id="Shape" fill="#eaeeef" points="1396 209 1419 209 1419 272 1396 272"></polygon>
            <polygon id="Shape" fill="#eaeeef" points="1407 206 1419 206 1419 269 1407 269"></polygon>
            <polygon id="Shape" fill="#eaeeef" points="1350 240 1390 240 1390 271 1350 271"></polygon>
            <polygon id="Shape" fill="#eaeeef" points="1427 237 1454 237 1454 263 1427 263"></polygon>
            <polygon id="Shape" fill="#eaeeef" points="1398 245 1424 245 1424 265 1398 265"></polygon>
            <polygon id="Shape" fill="#eaeeef" points="1363 251 1409 251 1409 274.2 1363 274.2"></polygon>
            <polygon id="Shape" fill="#eaeeef" points="1221 243 1249 243 1249 266 1221 266"></polygon>
            <polygon id="Shape" fill="#eaeeef" points="1197 248 1243 248 1243 271 1197 271"></polygon>
            <polygon id="Shape" fill="#eaeeef" points="1275 198 1280 198 1280 258 1275 258"></polygon>
            <polygon id="Shape" fill="#eaeeef" points="1275.4 243 1279.6 243 1281 248 1274 248"></polygon>
            <polygon id="Shape" fill="#eaeeef" points="1258 248 1284 248 1284 264 1258 264"></polygon>
            <polygon id="Shape" fill="#eaeeef" points="1279 255 1305 255 1305 271 1279 271"></polygon>
            <polygon id="Shape" fill="#eaeeef" points="1255 252 1281 252 1281 268 1255 268"></polygon>
            <polygon id="Shape" fill="#eaeeef" points="1219 224 1239 224 1239 230 1219 230"></polygon>
            <polygon id="Shape" fill="#eaeeef" points="1226 219 1232 219 1232 225 1226 225"></polygon>
            <polygon id="Shape" fill="#eaeeef" points="1166 217 1182 217 1182 240 1166 240"></polygon>
            <polygon id="Shape" fill="#eaeeef" points="1221 227 1237 227 1237 250 1221 250"></polygon>
            <polygon id="Shape" fill="#eaeeef" points="1144 222 1160 222 1160 245 1144 245"></polygon>
            <polygon id="Shape" fill="#eaeeef" points="143.5 210.5 159.5 210.5 159.5 233.5 143.5 233.5"></polygon>
            <polygon id="Shape" fill="#eaeeef" points="47.5 247.5 63.5 247.5 63.5 270.5 47.5 270.5"></polygon>
            <g id="Group-4" transform="translate(307.000000, 199.000000)" fill="#eaeeef">
                <polygon id="Shape" points="1.20588235 45.7407407 22.9117647 45.7407407 22.9117647 58.9814815 1.20588235 58.9814815"></polygon>
                <polygon id="Shape" points="2.41176471 32.5 21.7058824 32.5 21.7058824 45.7407407 2.41176471 45.7407407"></polygon>
                <polygon id="Shape" points="3.61764706 24.0740741 20.5 24.0740741 20.5 34.3055556 3.61764706 34.3055556"></polygon>
                <polygon id="Shape" points="4.82352941 15.4074074 19.2941176 15.4074074 19.2941176 25.3981481 4.82352941 25.3981481"></polygon>
                <polygon id="Shape" points="2.41176471 24.0740741 21.7058824 24.0740741 21.7058824 26.4814815 2.41176471 26.4814815"></polygon>
                <polygon id="Shape" points="1.20588235 32.5 22.9117647 32.5 22.9117647 34.9074074 1.20588235 34.9074074"></polygon>
                <polygon id="Shape" points="0 44.537037 24.1176471 44.537037 24.1176471 46.9444444 0 46.9444444"></polygon>
                <path d="M12.0588235,2.40740741 C14.4705882,14.6851852 19.4147059,9.99074074 19.2941176,16.0092593 C19.1735294,20.3425926 4.82352941,20.462963 4.82352941,16.0092593 C4.82352941,9.87037037 9.52647059,14.5648148 12.0588235,2.40740741 Z" id="Shape" fill-rule="nonzero"></path>
                <polygon id="Shape" points="10.8529412 0 13.2647059 0 13.2647059 7.22222222 10.8529412 7.22222222"></polygon>
                <polygon id="Shape" points="8.44117647 2.40740741 15.6764706 2.40740741 15.6764706 4.81481481 8.44117647 4.81481481"></polygon>
                <path d="M34.9705882,52.962963 C38.3470588,52.962963 41,55.6111111 41,58.9814815 C41,62.3518519 38.3470588,65 34.9705882,65 C31.5941176,65 28.9411765,62.3518519 28.9411765,58.9814815 C28.9411765,55.6111111 31.5941176,52.962963 34.9705882,52.962963 Z" id="Shape"></path>
                <path d="M33.7647059,49.3518519 L36.1764706,49.3518519 C37.5029412,49.3518519 38.5882353,50.4351852 38.5882353,51.7592593 C38.5882353,53.0833333 37.5029412,54.1666667 36.1764706,54.1666667 L33.7647059,54.1666667 C32.4382353,54.1666667 31.3529412,53.0833333 31.3529412,51.7592593 C31.3529412,50.4351852 32.4382353,49.3518519 33.7647059,49.3518519 Z" id="Shape"></path>
                <path d="M31.3529412,48.1481481 C32.0764706,48.1481481 32.5588235,48.6296296 32.5588235,49.3518519 C32.5588235,50.0740741 32.0764706,50.5555556 31.3529412,50.5555556 C30.6294118,50.5555556 30.1470588,50.0740741 30.1470588,49.3518519 C30.1470588,48.6296296 30.6294118,48.1481481 31.3529412,48.1481481 Z" id="Shape"></path>
                <path d="M34.9705882,46.9444444 C35.6941176,46.9444444 36.1764706,47.4259259 36.1764706,48.1481481 L36.1764706,50.5555556 C36.1764706,51.2777778 35.6941176,51.7592593 34.9705882,51.7592593 C34.2470588,51.7592593 33.7647059,51.2777778 33.7647059,50.5555556 L33.7647059,48.1481481 C33.7647059,47.4259259 34.2470588,46.9444444 34.9705882,46.9444444 Z" id="Shape"></path>
            </g>
            <polygon id="Shape" fill="#eaeeef" points="351 245 365 245 365 260 351 260"></polygon>
            <polygon id="Shape" fill="#eaeeef" points="353 241 363 241 365 245 365 246 351 246 351 245"></polygon>
            <polygon id="Shape" fill="#eaeeef" points="368 248 380 248 380 263 368 263"></polygon>
            <polygon id="Shape-Copy-6" fill="#eaeeef" points="399 251 411 251 411 262 399 262"></polygon>
            <polygon id="Shape-Copy-3" fill="#eaeeef" points="413 246 431 246 431 261 413 261"></polygon>
            <polygon id="Shape" fill="#eaeeef" points="357 253 369 253 369 268 357 268"></polygon>
            <polygon id="Shape" fill="#eaeeef" points="370 244 378 244 380 248 380 249 368 249 368 248"></polygon>
            <polygon id="Shape-Copy-7" fill="#eaeeef" points="401 247 409 247 411 250.2 411 251 399 251 399 250.2"></polygon>
            <polygon id="Shape-Copy-5" fill="#eaeeef" points="415 242 429 242 431 246 431 247 413 247 413 246"></polygon>
            <g id="Group-2" transform="translate(827.000000, 160.000000)" fill="#eaeeef">
                <polygon id="Shape" points="6.07142857 74.0555556 26.7142857 74.0555556 30.3571429 86 2.42857143 86"></polygon>
                <polygon id="Shape" points="9.71428571 37.625 23.0714286 37.625 24.7714286 74.5333333 8.13571429 74.5333333"></polygon>
                <path d="M24.2857143,14.3333333 C24.2857143,14.3333333 26.2285714,13.1388889 29.1428571,13.1388889 C31.6928571,13.1388889 34,14.3333333 34,14.3333333 L34,23.8888889 C34,23.8888889 31.8142857,31.0555556 29.1428571,31.0555556 C26.35,31.0555556 24.2857143,23.8888889 24.2857143,23.8888889 L24.2857143,14.3333333 Z" id="Shape"></path>
                <polygon id="Shape" points="1.21428571 0 3.64285714 0 3.64285714 21.5 1.21428571 21.5"></polygon>
                <path d="M2.42857143,19.1111111 C3.76428571,19.1111111 4.85714286,20.1861111 4.85714286,21.5 C4.85714286,22.8138889 3.76428571,23.8888889 2.42857143,23.8888889 C1.09285714,23.8888889 0,22.8138889 0,21.5 C0,20.1861111 1.09285714,19.1111111 2.42857143,19.1111111 Z" id="Shape"></path>
                <polygon id="Shape" points="0.728571429 22.2166667 2.67142857 20.7833333 14.8142857 34.1611111 10.9285714 37.1472222"></polygon>
                <polygon id="Shape" points="31.5714286 21.8583333 29.6285714 20.1861111 17 34.9972222 21.0071429 38.2222222"></polygon>
                <path d="M16.3928571,31.0555556 C20.0357143,31.0555556 23.0714286,34.0416667 23.0714286,37.625 C23.0714286,41.2083333 20.0357143,44.1944444 16.3928571,44.1944444 C12.75,44.1944444 9.71428571,41.2083333 9.71428571,37.625 C9.71428571,34.0416667 12.75,31.0555556 16.3928571,31.0555556 Z" id="Shape"></path>
                <path d="M16.3928571,25.0833333 C18.0928571,25.0833333 19.4285714,26.3972222 19.4285714,28.0694444 C19.4285714,29.7416667 18.0928571,31.0555556 16.3928571,31.0555556 C14.6928571,31.0555556 13.3571429,29.7416667 13.3571429,28.0694444 C13.3571429,26.3972222 14.6928571,25.0833333 16.3928571,25.0833333 Z" id="Shape"></path>
            </g>
            <path d="M813.5,237 C816,237 818,239 818,241.5 C818,244 816,246 813.5,246 C811,246 809,244 809,241.5 C809,239 811,237 813.5,237 Z" id="Shape" fill="#eaeeef"></path>
            <path d="M820.5,235 C823,235 825,237 825,239.5 C825,242 823,244 820.5,244 C818,244 816,242 816,239.5 C816,237 818,235 820.5,235 Z" id="Shape" fill="#eaeeef"></path>
            <path d="M811.5,243 C815.1,243 818,245.9 818,249.5 C818,253.1 815.1,256 811.5,256 C807.9,256 805,253.1 805,249.5 C805,245.9 807.9,243 811.5,243 Z" id="Shape" fill="#eaeeef"></path>
            <path d="M825.5,238 C828,238 830,240 830,242.5 C830,245 828,247 825.5,247 C823,247 821,245 821,242.5 C821,240 823,238 825.5,238 Z" id="Shape" fill="#eaeeef"></path>
            <path d="M830.5,237 C833,237 835,239 835,241.5 C835,244 833,246 830.5,246 C828,246 826,244 826,241.5 C826,239 828,237 830.5,237 Z" id="Shape" fill="#eaeeef"></path>
            <path d="M1118.5,256 C1121,256 1123,258 1123,260.5 C1123,263 1121,265 1118.5,265 C1116,265 1114,263 1114,260.5 C1114,258 1116,256 1118.5,256 Z" id="Shape" fill="#eaeeef"></path>
            <path d="M1125.5,254 C1128,254 1130,256 1130,258.5 C1130,261 1128,263 1125.5,263 C1123,263 1121,261 1121,258.5 C1121,256 1123,254 1125.5,254 Z" id="Shape" fill="#eaeeef"></path>
            <path d="M1144.5,252 C1147,252 1149,254 1149,256.5 C1149,259 1147,261 1144.5,261 C1142,261 1140,259 1140,256.5 C1140,254 1142,252 1144.5,252 Z" id="Shape" fill="#eaeeef"></path>
            <path d="M1131.5,255 C1134,255 1136,257 1136,259.5 C1136,262 1134,264 1131.5,264 C1129,264 1127,262 1127,259.5 C1127,257 1129,255 1131.5,255 Z" id="Shape" fill="#eaeeef"></path>
            <path d="M1131.5,257 C1134,257 1136,259 1136,261.5 C1136,264 1134,266 1131.5,266 C1129,266 1127,264 1127,261.5 C1127,259 1129,257 1131.5,257 Z" id="Shape" fill="#eaeeef"></path>
            <path d="M1137.5,256 C1140,256 1142,258 1142,260.5 C1142,263 1140,265 1137.5,265 C1135,265 1133,263 1133,260.5 C1133,258 1135,256 1137.5,256 Z" id="Shape" fill="#eaeeef"></path>
            <path d="M779.5,253 C782,253 784,255 784,257.5 C784,260 782,262 779.5,262 C777,262 775,260 775,257.5 C775,255 777,253 779.5,253 Z" id="Shape" fill="#eaeeef"></path>
            <path d="M1463.5,249 C1466,249 1468,251 1468,253.5 C1468,256 1466,258 1463.5,258 C1461,258 1459,256 1459,253.5 C1459,251 1461,249 1463.5,249 Z" id="Shape" fill="#eaeeef"></path>
            <path d="M1470.5,250 C1473,250 1475,252 1475,254.5 C1475,257 1473,259 1470.5,259 C1468,259 1466,257 1466,254.5 C1466,252 1468,250 1470.5,250 Z" id="Shape" fill="#eaeeef"></path>
            <path d="M1477.5,251 C1480,251 1482,253 1482,255.5 C1482,258 1480,260 1477.5,260 C1475,260 1473,258 1473,255.5 C1473,253 1475,251 1477.5,251 Z" id="Shape" fill="#eaeeef"></path>
            <path d="M1483.5,250 C1486,250 1488,252 1488,254.5 C1488,257 1486,259 1483.5,259 C1481,259 1479,257 1479,254.5 C1479,252 1481,250 1483.5,250 Z" id="Shape" fill="#eaeeef"></path>
            <path d="M1488.5,252 C1491,252 1493,254 1493,256.5 C1493,259 1491,261 1488.5,261 C1486,261 1484,259 1484,256.5 C1484,254 1486,252 1488.5,252 Z" id="Shape" fill="#eaeeef"></path>
            <path d="M1480.5,255 C1483,255 1485,257 1485,259.5 C1485,262 1483,264 1480.5,264 C1478,264 1476,262 1476,259.5 C1476,257 1478,255 1480.5,255 Z" id="Shape" fill="#eaeeef"></path>
            <path d="M1493.5,255 C1496,255 1498,257 1498,259.5 C1498,262 1496,264 1493.5,264 C1491,264 1489,262 1489,259.5 C1489,257 1491,255 1493.5,255 Z" id="Shape" fill="#eaeeef"></path>
            <path d="M1480.5,252 C1483,252 1485,254 1485,256.5 C1485,259 1483,261 1480.5,261 C1478,261 1476,259 1476,256.5 C1476,254 1478,252 1480.5,252 Z" id="Shape" fill="#eaeeef"></path>
            <path d="M1464.5,252 C1467,252 1469,254 1469,256.5 C1469,259 1467,261 1464.5,261 C1462,261 1460,259 1460,256.5 C1460,254 1462,252 1464.5,252 Z" id="Shape" fill="#eaeeef"></path>
            <path d="M1450.5,254 C1453,254 1455,256 1455,258.5 C1455,261 1453,263 1450.5,263 C1448,263 1446,261 1446,258.5 C1446,256 1448,254 1450.5,254 Z" id="Shape" fill="#eaeeef"></path>
            <path d="M1454.5,252 C1457,252 1459,254 1459,256.5 C1459,259 1457,261 1454.5,261 C1452,261 1450,259 1450,256.5 C1450,254 1452,252 1454.5,252 Z" id="Shape" fill="#eaeeef"></path>
            <polygon id="Shape" fill="#eaeeef" points="1295 199 1312 199 1316 205 1316 207 1295 205.9"></polygon>
            <polygon id="Shape" fill="#eaeeef" points="1434 246 1468 246 1468 272 1434 272"></polygon>
            <path d="M855.5,238 C858,238 860,240 860,242.5 C860,245 858,247 855.5,247 C853,247 851,245 851,242.5 C851,240 853,238 855.5,238 Z" id="Shape" fill="#eaeeef"></path>
            <path d="M862.5,240 C865,240 867,242 867,244.5 C867,247 865,249 862.5,249 C860,249 858,247 858,244.5 C858,242 860,240 862.5,240 Z" id="Shape" fill="#eaeeef"></path>
            <path d="M868.5,238 C871,238 873,240 873,242.5 C873,245 871,247 868.5,247 C866,247 864,245 864,242.5 C864,240 866,238 868.5,238 Z" id="Shape" fill="#eaeeef"></path>
            <path d="M880.5,237 C883,237 885,239 885,241.5 C885,244 883,246 880.5,246 C878,246 876,244 876,241.5 C876,239 878,237 880.5,237 Z" id="Shape" fill="#eaeeef"></path>
            <path d="M951.5,239 C954,239 956,241 956,243.5 C956,246 954,248 951.5,248 C949,248 947,246 947,243.5 C947,241 949,239 951.5,239 Z" id="Shape" fill="#eaeeef"></path>
            <path d="M957.5,238 C960,238 962,240 962,242.5 C962,245 960,247 957.5,247 C955,247 953,245 953,242.5 C953,240 955,238 957.5,238 Z" id="Shape" fill="#eaeeef"></path>
            <path d="M962.5,240 C965,240 967,242 967,244.5 C967,247 965,249 962.5,249 C960,249 958,247 958,244.5 C958,242 960,240 962.5,240 Z" id="Shape" fill="#eaeeef"></path>
            <path d="M966.5,244 C969.5,244 972,246.5 972,249.5 C972,252.5 969.5,255 966.5,255 C963.5,255 961,252.5 961,249.5 C961,246.5 963.5,244 966.5,244 Z" id="Shape" fill="#eaeeef"></path>
            <path d="M972.5,253 C975,253 977,255 977,257.5 C977,260 975,262 972.5,262 C970,262 968,260 968,257.5 C968,255 970,253 972.5,253 Z" id="Shape" fill="#eaeeef"></path>
            <path d="M970.5,249 C973,249 975,251 975,253.5 C975,256 973,258 970.5,258 C968,258 966,256 966,253.5 C966,251 968,249 970.5,249 Z" id="Shape" fill="#eaeeef"></path>
            <path d="M874.5,239 C877,239 879,241 879,243.5 C879,246 877,248 874.5,248 C872,248 870,246 870,243.5 C870,241 872,239 874.5,239 Z" id="Shape" fill="#eaeeef"></path>
            <path d="M226.5,254 C229,254 231,256 231,258.5 C231,261 229,263 226.5,263 C224,263 222,261 222,258.5 C222,256 224,254 226.5,254 Z" id="Shape" fill="#eaeeef"></path>
            <path d="M219.5,252 C222,252 224,254 224,256.5 C224,259 222,261 219.5,261 C217,261 215,259 215,256.5 C215,254 217,252 219.5,252 Z" id="Shape" fill="#eaeeef"></path>
            <path d="M208.5,255 C211,255 213,257 213,259.5 C213,262 211,264 208.5,264 C206,264 204,262 204,259.5 C204,257 206,255 208.5,255 Z" id="Shape" fill="#eaeeef"></path>
            <path d="M203.5,252 C206,252 208,254 208,256.5 C208,259 206,261 203.5,261 C201,261 199,259 199,256.5 C199,254 201,252 203.5,252 Z" id="Shape" fill="#eaeeef"></path>
            <path d="M196.5,254 C199,254 201,256 201,258.5 C201,261 199,263 196.5,263 C194,263 192,261 192,258.5 C192,256 194,254 196.5,254 Z" id="Shape" fill="#eaeeef"></path>
            <path d="M192.5,252 C195,252 197,254 197,256.5 C197,259 195,261 192.5,261 C190,261 188,259 188,256.5 C188,254 190,252 192.5,252 Z" id="Shape" fill="#eaeeef"></path>
            <path d="M185.5,255 C188,255 190,257 190,259.5 C190,262 188,264 185.5,264 C183,264 181,262 181,259.5 C181,257 183,255 185.5,255 Z" id="Shape" fill="#eaeeef"></path>
            <path d="M181.5,253 C184,253 186,255 186,257.5 C186,260 184,262 181.5,262 C179,262 177,260 177,257.5 C177,255 179,253 181.5,253 Z" id="Shape" fill="#eaeeef"></path>
            <path d="M173.5,255 C176,255 178,257 178,259.5 C178,262 176,264 173.5,264 C171,264 169,262 169,259.5 C169,257 171,255 173.5,255 Z" id="Shape" fill="#eaeeef"></path>
            <path d="M168.5,254 C171,254 173,256 173,258.5 C173,261 171,263 168.5,263 C166,263 164,261 164,258.5 C164,256 166,254 168.5,254 Z" id="Shape" fill="#eaeeef"></path>
            <path d="M162.5,250 C165,250 167,252 167,254.5 C167,257 165,259 162.5,259 C160,259 158,257 158,254.5 C158,252 160,250 162.5,250 Z" id="Shape" fill="#eaeeef"></path>
            <path d="M46.5,251 C49,251 51,253 51,255.5 C51,258 49,260 46.5,260 C44,260 42,258 42,255.5 C42,253 44,251 46.5,251 Z" id="Shape" fill="#eaeeef"></path>
            <path d="M40.5,253 C43,253 45,255 45,257.5 C45,260 43,262 40.5,262 C38,262 36,260 36,257.5 C36,255 38,253 40.5,253 Z" id="Shape" fill="#eaeeef"></path>
            <path d="M33.5,254 C36,254 38,256 38,258.5 C38,261 36,263 33.5,263 C31,263 29,261 29,258.5 C29,256 31,254 33.5,254 Z" id="Shape" fill="#eaeeef"></path>
            <path d="M31.5,253 C34,253 36,255 36,257.5 C36,260 34,262 31.5,262 C29,262 27,260 27,257.5 C27,255 29,253 31.5,253 Z" id="Shape" fill="#eaeeef"></path>
            <path d="M23.5,251 C26,251 28,253 28,255.5 C28,258 26,260 23.5,260 C21,260 19,258 19,255.5 C19,253 21,251 23.5,251 Z" id="Shape" fill="#eaeeef"></path>
            <path d="M16.5,250 C19.5,250 22,252.5 22,255.5 C22,258.5 19.5,261 16.5,261 C13.5,261 11,258.5 11,255.5 C11,252.5 13.5,250 16.5,250 Z" id="Shape" fill="#eaeeef"></path>
            <path d="M10.5,253 C13,253 15,255 15,257.5 C15,260 13,262 10.5,262 C8,262 6,260 6,257.5 C6,255 8,253 10.5,253 Z" id="Shape" fill="#eaeeef"></path>
            <path d="M4.5,256 C7,256 9,258 9,260.5 C9,263 7,265 4.5,265 C2,265 0,263 0,260.5 C0,258 2,256 4.5,256 Z" id="Shape" fill="#eaeeef"></path>
            <path d="M23.5,254 C26,254 28,256 28,258.5 C28,261 26,263 23.5,263 C21,263 19,261 19,258.5 C19,256 21,254 23.5,254 Z" id="Shape" fill="#eaeeef"></path>
            <polygon id="Shape" fill="#eaeeef" points="926 231 932 231 932 236 926 236"></polygon>
            <polygon id="Shape" fill="#eaeeef" points="932 227 940 227 940 236 931 236"></polygon>
            <polygon id="Shape" fill="#eaeeef" points="944 231 948 231 948 240 944 240"></polygon>
            <path d="M920,230 C923.3,230 926,232.5 926,235.5 C926,238.5 923.3,241 920,241 C916.7,241 914,238.5 914,235.5 C914,232.5 916.7,230 920,230 Z" id="Shape" fill="#eaeeef"></path>
            <polygon id="Shape" fill="#eaeeef" points="880 235 900 235 951 235 951 243 880 243"></polygon>
            <polygon id="Shape" fill="#eaeeef" points="883 230 897 230 897 236 880 236 880 235"></polygon>
            <polygon id="Shape" fill="#eaeeef" points="950 232 936 232 936 237 953 237"></polygon>
            <polygon id="Shape" fill="#eaeeef" points="891 226.5 911 226.5 911 235.5 891 235.5"></polygon>
            <polygon id="Shape" fill="#eaeeef" points="893 213.2 909 213.2 909 226 893 226"></polygon>
            <polygon id="Shape" fill="#eaeeef" points="895 198.1 907 198.1 907 211.9 895 211.9"></polygon>
            <polygon id="Shape" fill="#eaeeef" points="892 224 910 224 912 227 890 227"></polygon>
            <polygon id="Shape" fill="#eaeeef" points="894 211 908 211 910 214 892 214"></polygon>
            <polygon id="Shape" fill="#eaeeef" points="895 195 907 195 909 198 908 199 894.3 199 893 198"></polygon>
            <path d="M901,189.2 C903.8,189.2 906,191.9 906,195.2 C906,198.5 903.8,201.2 901,201.2 C898.2,201.2 896,198.5 896,195.2 C896,191.9 898.2,189.2 901,189.2 Z" id="Shape" fill="#eaeeef"></path>
            <polygon id="Shape" fill="#eaeeef" points="900 183.2 902 183.2 902 191.2 900 191.2"></polygon>
            <polygon id="Shape" fill="#eaeeef" points="898 185.2 904 185.2 904 187.2 898 187.2"></polygon>
            <polygon id="Shape" fill="#eaeeef" points="919.3 226 920.6 226 920.6 231 919.3 231"></polygon>
            <path d="M936,220 C937.5,223.4 941,222.2 941,225 C941,227.8 938.8,230 936,230 C933.2,230 931,227.8 931,225 C931,222.2 934.4,223.3 936,220 Z" id="Shape" fill="#eaeeef"></path>
            <path d="M929,225 C930.2,227.7 933,226.8 933,229 C933,231.2 931.2,233 929,233 C926.8,233 925,231.2 925,229 C925,226.8 927.7,227.7 929,225 Z" id="Shape" fill="#eaeeef"></path>
            <path d="M945,225 C946.2,227.7 949,226.8 949,229 C949,231.2 947.2,233 945,233 C942.8,233 941,231.2 941,229 C941,226.8 943.7,227.7 945,225 Z" id="Shape" fill="#eaeeef"></path>
            <polygon id="Shape" fill="#eaeeef" points="918 227.2 922 227.2 922 228.4 918 228.4"></polygon>
            <polygon id="Shape" fill="#eaeeef" points="935.3 216 936.6 216 936.6 222 935.3 222"></polygon>
            <polygon id="Shape" fill="#eaeeef" points="934 217.5 938 217.5 938 219 934 219"></polygon>
            <polygon id="Shape" fill="#eaeeef" points="928.3 222 929.6 222 929.6 227 928.3 227"></polygon>
            <polygon id="Shape" fill="#eaeeef" points="927 223.2 931 223.2 931 224.4 927 224.4"></polygon>
            <polygon id="Shape" fill="#eaeeef" points="944.3 222 945.6 222 945.6 227 944.3 227"></polygon>
            <polygon id="Shape" fill="#eaeeef" points="943 223.2 947 223.2 947 224.4 943 224.4"></polygon>
            <polygon id="Shape" fill="#eaeeef" points="978 258 1111 258 1111 261 978 261"></polygon>
            <polygon id="Shape" fill="#eaeeef" points="1049 258 1052 258 1052 274 1049 274"></polygon>
            <polygon id="Shape" fill="#eaeeef" points="1073 258 1076 258 1076 274 1073 274"></polygon>
            <polygon id="Shape" fill="#eaeeef" points="1085 258 1088 258 1088 274 1085 274"></polygon>
            <polygon id="Shape" fill="#eaeeef" points="1097 258 1100 258 1100 274 1097 274"></polygon>
            <polygon id="Shape" fill="#eaeeef" points="1061 203 1064 203 1066 207.9 1066 274 1059 274 1059 207.7"></polygon>
            <polygon id="Shape" fill="#eaeeef" points="1059.1 230.7 1061 231.4 1051 260.4 1049.1 259.7"></polygon>
            <polygon id="Shape" fill="#eaeeef" points="1062.2 202.3 1063.7 203.6 1013.7 260.6 1012.2 259.3"></polygon>
            <polygon id="Shape" fill="#eaeeef" points="1026.8 259.6 1025.2 258.4 1062.2 209.4 1063.8 210.6"></polygon>
            <polygon id="Shape" fill="#eaeeef" points="1061.8 218.3 1063.5 219.4 1038.1 259.8 1036.4 258.7"></polygon>
            <polygon id="Shape" fill="#eaeeef" points="1065.8 230.2 1063.9 230.8 1074 259.6 1075.9 259"></polygon>
            <polygon id="Shape" fill="#eaeeef" points="1062.6 202 1061.1 203.3 1111.5 260 1113 258.7"></polygon>
            <polygon id="Shape" fill="#eaeeef" points="1098.3 259 1099.9 257.8 1062.6 209 1061 210.2"></polygon>
            <polygon id="Shape" fill="#eaeeef" points="1063 217.8 1061.3 218.9 1086.9 259.1 1088.6 258"></polygon>
            <polygon id="Shape" fill="#eaeeef" points="1036 258 1039 258 1039 274 1036 274"></polygon>
            <polygon id="Shape" fill="#eaeeef" points="1024 258 1027 258 1027 274 1024 274"></polygon>
            <polygon id="Shape" fill="#eaeeef" points="1012 258 1015 258 1015 274 1012 274"></polygon>
            <polygon id="Shape" fill="#eaeeef" points="1000 258 1003 258 1003 274 1000 274"></polygon>
            <polygon id="Shape" fill="#eaeeef" points="987 258 990 258 990 274 987 274"></polygon>
            <polygon id="Shape" fill="#eaeeef" points="985 258 992 258 992 263 985 263"></polygon>
            <polygon id="Shape" fill="#eaeeef" points="973 258 980 258 980 263 973 263"></polygon>
            <polygon id="Shape" fill="#eaeeef" points="998 258 1005 258 1005 263 998 263"></polygon>
            <polygon id="Shape" fill="#eaeeef" points="1010 258 1017 258 1017 263 1010 263"></polygon>
            <polygon id="Shape" fill="#eaeeef" points="1022 258 1029 258 1029 263 1022 263"></polygon>
            <polygon id="Shape" fill="#eaeeef" points="1034 258 1041 258 1041 263 1034 263"></polygon>
            <polygon id="Shape" fill="#eaeeef" points="1071 258 1078 258 1078 263 1071 263"></polygon>
            <polygon id="Shape" fill="#eaeeef" points="1083 258 1090 258 1090 263 1083 263"></polygon>
            <polygon id="Shape" fill="#eaeeef" points="1095 258 1102 258 1102 263 1095 263"></polygon>
            <polygon id="Shape" fill="#eaeeef" points="1107 258 1114 258 1114 263 1107 263"></polygon>
            <polygon id="Shape" fill="#eaeeef" points="1047 258 1054 258 1054 263 1047 263"></polygon>
            <g id="Group" transform="translate(538.000000, 217.000000)" fill="#eaeeef" fill-rule="nonzero">
                <polygon id="Shape" points="106.02766 33.6441176 106.147872 35.0911765 6.0106383 35.0911765 6.25106383 33.6441176 0.480851064 14.9529412 111.797872 14.9529412"></polygon>
                <polygon id="Shape" points="98.8148936 0.602941176 100.858511 0.602941176 111.797872 14.9529412 108.431915 15.6764706"></polygon>
                <polygon id="Shape" points="92.0829787 0.602941176 93.8861702 0.602941176 102.541489 14.9529412 99.8968085 15.6764706"></polygon>
                <rect id="Rectangle-path" x="55.5382979" y="0.602941176" width="1.56276596" height="14.8323529"></rect>
                <rect id="Rectangle-path" x="11.0595745" y="1.92941176" width="90.5202128" height="1.56764706"></rect>
                <polygon id="Shape" points="86.5531915 0.602941176 84.9904255 0.602941176 90.5202128 16.1588235 92.9244681 15.3147059"></polygon>
                <polygon id="Shape" points="66.7180851 0.602941176 65.1553191 0.602941176 68.2808511 16.6411765 69.9638298 15.5558824"></polygon>
                <polygon id="Shape" points="76.8159574 0.602941176 75.3734043 0.602941176 79.4606383 16.0382353 81.6244681 15.6764706"></polygon>
                <path d="M58.4234043,15.0735294 C57.4617021,15.0735294 60.2265957,16.6411765 62.3904255,16.6411765 C64.5542553,16.6411765 68.0404255,15.0735294 66.3574468,15.0735294 C65.5159574,15.0735294 64.5542553,13.5058824 62.3904255,13.5058824 C60.2265957,13.5058824 59.2648936,15.0735294 58.4234043,15.0735294 Z" id="Shape"></path>
                <path d="M71.0457447,15.0735294 C70.2042553,15.0735294 72.6085106,16.4 74.4117021,16.4 C76.2148936,16.4 79.2202128,15.0735294 77.7776596,15.0735294 C77.056383,15.0735294 76.2148936,13.7470588 74.4117021,13.7470588 C72.6085106,13.7470588 71.7670213,15.0735294 71.0457447,15.0735294 Z" id="Shape"></path>
                <path d="M82.9468085,15.0735294 C82.2255319,15.0735294 84.3893617,16.4 86.1925532,16.4 C87.9957447,16.4 90.7606383,15.0735294 89.4382979,15.0735294 C88.7170213,15.0735294 87.9957447,13.7470588 86.1925532,13.7470588 C84.3893617,13.7470588 83.6680851,15.0735294 82.9468085,15.0735294 Z" id="Shape"></path>
                <path d="M93.5255319,15.1941176 C92.9244681,15.1941176 94.6074468,16.1588235 95.8095745,16.1588235 C97.0117021,16.1588235 99.0553191,15.1941176 98.093617,15.1941176 C97.612766,15.1941176 97.0117021,14.2294118 95.8095745,14.2294118 C94.6074468,14.2294118 94.006383,15.1941176 93.5255319,15.1941176 Z" id="Shape"></path>
                <path d="M103.382979,15.0735294 C102.902128,15.0735294 104.224468,15.7970588 105.306383,15.7970588 C106.388298,15.7970588 108.071277,15.0735294 107.229787,15.0735294 C106.748936,15.0735294 106.388298,14.35 105.306383,14.35 C104.224468,14.35 103.86383,15.0735294 103.382979,15.0735294 Z" id="Shape"></path>
                <polygon id="Shape" points="13.5840426 0.602941176 11.5404255 0.602941176 0.480851064 14.9529412 3.84680851 15.6764706"></polygon>
                <polygon id="Shape" points="20.1957447 0.602941176 18.512766 0.602941176 9.73723404 14.9529412 12.5021277 15.6764706"></polygon>
                <polygon id="Shape" points="25.7255319 0.602941176 27.4085106 0.602941176 21.8787234 16.1588235 19.3542553 15.3147059"></polygon>
                <polygon id="Shape" points="45.5606383 0.602941176 47.243617 0.602941176 44.1180851 16.6411765 42.4351064 15.5558824"></polygon>
                <polygon id="Shape" points="35.462766 0.602941176 37.0255319 0.602941176 32.8180851 16.0382353 30.6542553 15.6764706"></polygon>
                <path d="M53.8553191,15.0735294 C54.8170213,15.0735294 52.0521277,16.6411765 49.8882979,16.6411765 C47.7244681,16.6411765 44.2382979,15.0735294 45.9212766,15.0735294 C46.762766,15.0735294 47.7244681,13.5058824 49.8882979,13.5058824 C52.0521277,13.5058824 53.0138298,15.0735294 53.8553191,15.0735294 Z" id="Shape"></path>
                <path d="M41.2329787,15.0735294 C42.0744681,15.0735294 39.6702128,16.4 37.8670213,16.4 C35.943617,16.4 33.0585106,15.0735294 34.5010638,15.0735294 C35.2223404,15.0735294 36.0638298,13.7470588 37.8670213,13.7470588 C39.7904255,13.7470588 40.5117021,15.0735294 41.2329787,15.0735294 Z" id="Shape"></path>
                <path d="M29.4521277,15.0735294 C30.1734043,15.0735294 28.0095745,16.4 26.206383,16.4 C24.4031915,16.4 21.6382979,15.0735294 22.9606383,15.0735294 C23.6819149,15.0735294 24.4031915,13.7470588 26.206383,13.7470588 C28.0095745,13.7470588 28.7308511,15.0735294 29.4521277,15.0735294 Z" id="Shape"></path>
                <path d="M18.7531915,15.1941176 C19.3542553,15.1941176 17.6712766,16.1588235 16.4691489,16.1588235 C15.2670213,16.1588235 13.2234043,15.1941176 14.1851064,15.1941176 C14.6659574,15.1941176 15.2670213,14.2294118 16.4691489,14.2294118 C17.6712766,14.2294118 18.2723404,15.1941176 18.7531915,15.1941176 Z" id="Shape"></path>
                <path d="M8.89574468,15.0735294 C9.37659574,15.0735294 8.05425532,15.7970588 6.97234043,15.7970588 C5.89042553,15.7970588 4.20744681,15.0735294 5.04893617,15.0735294 C5.52978723,15.0735294 5.89042553,14.35 6.97234043,14.35 C8.05425532,14.35 8.53510638,15.0735294 8.89574468,15.0735294 Z" id="Shape"></path>
                <polygon id="Shape" points="110.83617 41 1.44255319 41 6.25106383 33.6441176 106.02766 33.6441176"></polygon>
            </g>
            <rect id="Rectangle-path" fill="#eaeeef" x="0" y="257.5" width="977" height="18"></rect>
            <rect id="Rectangle-path" fill="#eaeeef" x="1110.5" y="257.8" width="507" height="18"></rect>
            <polygon id="Shape" fill="#eaeeef" points="971.5 262 813.5 263 813.5 241 962 241"></polygon>
            <rect id="Rectangle-path" fill="#eaeeef" x="779.5" y="252" width="45.5" height="10"></rect>
        </g>
    </g>
</svg>