<?xml version="1.0" encoding="utf-8"?>
<!-- Generator: Adobe Illustrator 23.1.0, SVG Export Plug-In . SVG Version: 6.00 Build 0)  -->
<svg version="1.1" id="Слой_1" xmlns="http://www.w3.org/2000/svg" xmlns:xlink="http://www.w3.org/1999/xlink" x="0px" y="0px"
	 viewBox="0 0 1400 200" style="enable-background:new 0 0 1400 200;" xml:space="preserve">
<style type="text/css">
	.st0{fill:#d8dedf;}
</style>
<g>
	<path class="st0" d="M512.46,190.33v-6.2h2.19c0.33,0,0.59-0.26,0.59-0.58v-13.9h3.38c0.33,0,0.59-0.26,0.59-0.58v-13.9h2.98
		c0.33,0,0.59-0.26,0.59-0.58v-13.9h2.58c0.33,0,0.59-0.26,0.59-0.58v-14.48c0-0.32-0.26-0.58-0.59-0.58h-6.74h-6.15v-5.29
		c0-0.32-0.26-0.58-0.59-0.58h-36.48c-0.33,0-0.59,0.26-0.59,0.58v5.29h-10.12c-0.33,0-0.59,0.26-0.59,0.58v14.48
		c0,0.32,0.26,0.58,0.59,0.58h2.58v13.9c0,0.32,0.26,0.58,0.59,0.58h2.98v13.9c0,0.32,0.26,0.58,0.59,0.58h3.38v13.9
		c0,0.32,0.26,0.58,0.59,0.58h2.19v4.9v1.3h-37.58v-3.48c0-0.15-0.06-0.29-0.16-0.4l-12.82-13.5c-0.11-0.12-0.27-0.18-0.43-0.18
		h-2.67l-3.19-8.62c-0.08-0.23-0.31-0.38-0.55-0.38h-2.47l-1.58-8.52c-0.05-0.28-0.29-0.48-0.58-0.48h-4.03v-13.31h1.26
		c0.33,0,0.59-0.26,0.59-0.58v-7.05h0.07c0-0.3-0.03-0.58-0.07-0.87v-1.04l1.36-1.34c0.11-0.11,0.17-0.26,0.17-0.41v-3.41l3.24-3.48
		c0.1-0.11,0.16-0.25,0.16-0.39v-2.7l3.75-3.51c0.12-0.11,0.18-0.26,0.18-0.42v-6.34c0-0.26-0.18-0.49-0.44-0.56l-3.93-1.02
		c-0.1-0.03-0.2-0.03-0.3,0l-3.93,1.02c-0.26,0.07-0.44,0.3-0.44,0.56v6.34c0,0.16,0.07,0.31,0.18,0.42l1.64,1.53l-4.21,4.68
		l-0.45-0.24c0.2-0.45,0.31-0.95,0.31-1.47c0-2.06-1.7-3.74-3.79-3.74c-2.09,0-3.79,1.68-3.79,3.74c0,0.52,0.11,1.02,0.31,1.47
		l-0.45,0.24l-6.32-7.03v-3.33h1.51v-1.16h-1.51v-9.64h-1.18v9.64h-1.51v1.16h1.51v3.55v6.81c0,0.15,0.06,0.29,0.16,0.39l3.24,3.48
		v3.41c0,0.15,0.06,0.3,0.17,0.41l1.36,1.34v1.04c-0.04,0.29-0.07,0.57-0.07,0.87h0.07v7.05c0,0.32,0.26,0.58,0.59,0.58h1.26v13.31
		h-2.55c-0.28,0-0.53,0.2-0.58,0.48l-1.58,8.52h-2.47c-0.25,0-0.47,0.15-0.55,0.38l-3.19,8.62h-2.67c-0.16,0-0.32,0.07-0.43,0.18
		l-12.82,13.5c-0.1,0.11-0.16,0.25-0.16,0.4v3.48h-24.25v-35.19c0-4.22-1.7-8.05-4.45-10.87v-26.6h2.4v-1.16h-2.41
		c-0.3-5.77-5-10.4-10.84-10.7v-3.67h3.48v-1.16h-3.48v-4.24h-1.18v4.24h-3.48v1.16h3.48v3.67c-5.84,0.29-10.54,4.93-10.84,10.7
		h-2.41v1.16h2.4v8.28h-6.04v-3.61v-11.14v-7.53h3.84v-1.16h-3.85c-0.3-8.62-7.35-15.58-16.08-15.88v-6h5.45v-1.16h-5.45v-6.57
		h-1.18v6.57h-5.45v1.16h5.45v6c-8.73,0.3-15.78,7.26-16.08,15.88h-3.85v1.16h3.84v7.53v11.14v3.61h-6.04v-8.28h2.4v-1.16h-2.41
		c-0.3-5.77-5-10.4-10.84-10.7v-3.67h3.48v-1.16h-3.48v-4.24h-1.18v4.24h-3.48v1.16h3.48v3.67c-5.84,0.29-10.54,4.93-10.84,10.7
		h-2.41v1.16h2.4v26.6c-2.75,2.82-4.45,6.65-4.45,10.87v35.19h-21.32v-9.21h3.06c0.25,0,0.47-0.15,0.55-0.38
		c0.09-0.23,0.02-0.48-0.17-0.64l-3.44-2.93v-16.65h0.3c0.25,0,0.47-0.15,0.55-0.38c0.09-0.23,0.02-0.48-0.17-0.64l-3.44-2.93
		v-16.24h1.6c0.25,0,0.47-0.15,0.55-0.38c0.09-0.23,0.02-0.48-0.17-0.64l-3.44-2.93v-5.2h1.37V130h-1.37v-10.28h1.37v-1.16h-1.37
		v-4.98c0-5.54-1.91-8.11-3.51-9.3c-2.19-1.62-3.84-3.49-4.9-5.56c-1.49-2.89-2.1-5.42-2.19-5.81v-6.95h1.81V84.8h-1.81v-2.94h-1.18
		v2.94h-1.81v1.16h1.81v6.95c-0.09,0.39-0.7,2.9-2.19,5.81c-1.07,2.08-2.72,3.95-4.9,5.56c-1.6,1.18-3.51,3.76-3.51,9.3v4.98h-1.37
		v1.16h1.37V130h-1.37v1.16h1.37v5.2l-3.44,2.93c-0.19,0.16-0.25,0.41-0.17,0.64c0.09,0.23,0.31,0.38,0.55,0.38h1.6v16.24
		l-3.44,2.93c-0.19,0.16-0.25,0.41-0.17,0.64c0.09,0.23,0.31,0.38,0.55,0.38h0.3v16.65l-3.44,2.93c-0.19,0.16-0.25,0.41-0.17,0.64
		c0.09,0.23,0.31,0.38,0.55,0.38h3.06v9.21H147.2v-7.88l1.84-2.01c0.16-0.17,0.2-0.42,0.1-0.63c-0.09-0.21-0.31-0.35-0.54-0.35h-1.4
		v-46.18c0-0.32-0.26-0.58-0.59-0.58h-3v-4.26c0-0.32-0.26-0.58-0.59-0.58h-3.64v-3.85h-1.18v3.85h-3.64
		c-0.33,0-0.59,0.26-0.59,0.58v4.26h-4.1v-11.54h0.95V120h-1.54h-1.3v-9.06h2.85v-1.16h-3.44h-19.13v-7.19h-1.18v7.19H87.96h-3.44
		v1.16h2.85V120h-1.3h-1.54v1.16h0.95v11.54h-4.1v-4.26c0-0.32-0.26-0.58-0.59-0.58h-3.64v-3.85h-1.18v3.85h-3.64
		c-0.33,0-0.59,0.26-0.59,0.58v4.26h-3c-0.33,0-0.59,0.26-0.59,0.58v46.18h-1.4c-0.23,0-0.44,0.14-0.54,0.35
		c-0.09,0.21-0.05,0.46,0.1,0.63l1.84,2.01v8.51c-31.54,0.94-67.63,3.28-67.63,9.05v0H589.2v0
		C589.2,191.47,535.39,190.43,512.46,190.33z"/>
	<path class="st0" d="M1401.05,146.99l-11.84-0.67v-5.63l-4.83-0.44l-0.73-0.52l-4.23-0.28l-3,0.36v1.63h-1.64v-1.31l-1.18-0.2
		l-1.09,0.28v1.03l-2.41,2.58l-3.06-0.24l-1.09,1.11c-2.02-0.07-4.78,0.04-4.78,0.04v-0.91l-1.59-0.24l-0.96,0.79v3.57l-2.09,0.24
		v1.35h-1.96l-1.28,1.85v1l-6.33-0.47l-2.46-1.51v-5.27l-7.42-0.4l-3.55,0.32v3.09l-3.32,0.12v-0.44l-1.59-0.83l-1.82,1.39v0.32
		l-3.19,0.28v8.21h-3.37l-1.68-0.32v-0.44h-0.87v-2.62c-4.78-0.38-9.11-0.04-9.11-0.04v2.62l-5.48,0.16v-0.27v-16.38h0.77
		c0,0-0.28-1.07-2.28-1.07v-0.95l-1.32-1.47v-4.03l-2.41-1.16v-2.7l-2.14-0.67v-1.27l-3.32-0.63l1.14-1.42v-0.8l-1.14-1.7
		l-0.73-3.05l-0.73,3.05l-1.14,1.7v0.8l1.14,1.42l-3.32,0.63v1.27l-2.14,0.67v2.7l-2.41,1.16v4.03l-1.32,1.47v0.95
		c-1.99,0-2.28,1.07-2.28,1.07h0.77v18.04h-3.99v-1.7h-6.88v2.58h-5.14v1.23h-5.14v4.74h-4.38v-24.87h0.77c0,0-0.28-1.07-2.28-1.07
		v-0.95l-1.32-1.47v-4.03l-2.41-1.16v-2.7l-2.14-0.67v-1.27l-3.32-0.63l1.14-1.42v-0.8l-1.14-1.7l-0.73-3.05l-0.73,3.05l-1.14,1.7
		v0.8l1.14,1.42l-3.32,0.63v1.27l-2.14,0.67v2.7l-2.41,1.16v4.03l-1.32,1.47v0.95c-1.99,0-2.28,1.07-2.28,1.07h0.77v40h-11.38v-26
		h-2.82l-3.01-1.82l-1,0.71h-4.01v-0.48h-12.24l-2.06,2.14h-2.73v12.45h-0.64v14.35h-2.67v-33.67c0,0-3.78-1.72-4.75-1.97
		c-0.96-0.25-7.78-0.21-7.78-0.21V67.73l-1.52-7.78l-4.84,0.36v-4.16c-32.52,12.38-34.87,36.76-34.87,36.76v66.58l-10.05,4.75v17.49
		c0,0-9.82-78.99-94.27-78.99c-84.46,0-94.27,78.99-94.27,78.99l-5.15-2.65h-5.9v-1.34h-1.29v-9.32l0.79-1.39v-0.74l0.65-0.7h-1.46
		v-1.05l0.65-1.27v-0.74h-2.61v-3.89l0.25-0.87v-0.7h-0.84v-3.28l0.2-0.5l-0.8-2.73l-0.8,2.73l0.2,0.5v3.28h-1.76
		c0,0,0.22-1.59-0.4-2.01c-0.62-0.42-1.06-1.24-1.06-1.24s0.46-0.52,0.23-0.71c-0.22-0.2-0.69-0.47-0.69-0.47v-1.27l-0.37-0.74
		V99.45c0,0,1.52-2.16,1.02-2.62c-0.26-0.24-0.39-0.36-0.45-0.41c0.13,0.1,0.44,0.28,0.68-0.31c0.3-0.76,0.23-1.37,0.6-1.82
		c0.37-0.45-0.52-0.76-0.33-1c0.18-0.25,0.3-1.63,0.3-1.63s0.07-0.75-0.05-0.83c-0.12-0.08-0.12-0.08-0.12-0.08s-0.31-0.26-1.16,0
		c-0.85,0.26-0.46,0.35-1.14-0.12c-0.68-0.47-0.49-0.71-0.49-0.71s0.51-0.42,0.51-1.19c0-0.51-0.4-1-1.03-1.29l0.13-1.26
		c0,0,0.43-0.22,0.72-0.72c0.29-0.5,0.02-4.82,0.02-4.82c0.51-0.12,0.54-0.47,1.07-1.01c0.53-0.54,0.53-0.36,1.01-0.81
		c0.47-0.45,0.13-0.48,0.09-1.38c-0.04-0.9,0.64-0.41,1.21-0.94c0.57-0.52,0.04-0.34,0.28-1.18c0.24-0.84,0.56-0.27,1.11-0.63
		c0.56-0.36,0.35-0.76,0.35-1.42c0-0.66-0.66-0.49-1-0.93c-0.34-0.44-0.91,0.38-0.91,0.38s-0.76,0.74-0.85,0.79
		c-0.09,0.06-1.18-0.39-2.13-0.89c-0.95-0.5-0.69-0.17-1.53-0.23c-0.83-0.06-1.41,0.19-2.41,0.64c-1,0.45-1.14,1.6-1.2,1.85
		c-0.06,0.25-1.29-0.38-1.8-0.73c-0.52-0.35-1.53-0.03-1.86,0c-0.33,0.03-0.06,1-0.05,1c0.01,0,0.32,0.4,0.51,0.71
		c0.2,0.31,0.83,0.59,1.6,0.53c0.78-0.07,0.58,0.29,1.21,0.94c0.64,0.65,0.42,0.86,0.93,1.8c0.51,0.94,1.17,1.55,1.17,1.55
		c-0.4,0.72-0.38,5.25-0.38,5.25c0.52,0.47,0.22,1.6,0.22,1.6c-0.54,0.29-0.88,0.75-0.88,1.21c0,0.77,0.51,1.19,0.51,1.19
		s0.19,0.24-0.49,0.71c-0.68,0.47-0.29,0.38-1.14,0.12c-0.85-0.26-1.16,0-1.16,0s0,0-0.12,0.08c-0.12,0.08-0.05,0.83-0.05,0.83
		s0.12,1.38,0.3,1.63c0.18,0.25-0.7,0.55-0.33,1c0.37,0.45,0.3,1.07,0.6,1.82c0.24,0.59,0.55,0.42,0.68,0.31
		c-0.06,0.06-0.18,0.17-0.45,0.41c-0.5,0.47,1.02,2.62,1.02,2.62v51.16l-0.37,0.74v1.27c0,0-0.46,0.27-0.69,0.47
		c-0.22,0.2,0.23,0.71,0.23,0.71s-0.44,0.82-1.06,1.24c-0.62,0.42-0.4,2.01-0.4,2.01h-1.76v-3.28l0.2-0.5l-0.8-2.73l-0.8,2.73
		l0.2,0.5v3.28h-0.84v0.7l0.25,0.87v3.89h-2.61v0.74l0.65,1.27v1.05h-1.46l0.65,0.7v0.74l0.79,1.39v9.32h-1.29v1.34h-5.9l-5.15,2.65
		h-1.09v-3.7v-12.7h-3.71v-5.25h-3.33v-4.58h-2.08v-3.22l0.99-0.57v-1.8l-2.06-0.74h-10.08v-1.48h-1.27v-12.26l0.28-0.7h-4.11
		l-0.61-1.36h-0.61c0,0-1.46-2.64-4.23-2.64c-1.63,0-3.11,1.32-3.11,1.32l-0.67-1.33v-2.8c0,0-0.7-3.43-4.11-3.43
		s-4.11,3.43-4.11,3.43v2.8l-0.67,1.33c0,0-1.48-1.32-3.11-1.32c-2.77,0-4.23,2.64-4.23,2.64h-0.61l-0.61,1.36h-4.11l0.28,0.7v12.26
		h-1.27v1.48h-10.08l-2.06,0.74v1.8l0.99,0.57v3.22h-2.08v4.58h-3.33v5.25h-3.71l0.01,12.38l-1.42-1.27v-7.42h0.56l-1.5-0.76v-4.71
		h1.05l-5.92-5.92v-1.6l0.8-0.45l-0.83-0.64v-3.09l-0.9-1.39l-0.28-1.39l-0.43,1.61l-0.51,0.73v-9.96h0.99c0,0-2.51-1.41-2.64-2.64
		c0,0,0.23-3.38-0.65-4.69c-0.88-1.31-3.04-1.05-4.18-3.42c-1.14-2.36-0.73-4.73-0.73-4.73l0.94-0.7c0,0-1.18-0.29-1.18-1.21
		c0-0.92,0.49-0.59,0.49-1.64s-1.6-1.82-2.33-2.4v-1.73c0,0,0.47-0.14,0.47-0.67s-0.56-0.75-0.56-0.75V114c0,0,0.36-0.3,0.45-0.51
		h1.45c0,0,0.39-0.05,0.39-0.25c0-0.2-0.39-0.25-0.39-0.25h-1.43c0,0-0.32-0.31-0.57-0.39v-1.26c0,0-0.06-0.34-0.29-0.34
		c-0.23,0-0.29,0.34-0.29,0.34v1.26c-0.25,0.08-0.57,0.39-0.57,0.39h-1.43c0,0-0.39,0.05-0.39,0.25c0,0.2,0.39,0.25,0.39,0.25h1.45
		c0.09,0.21,0.45,0.51,0.45,0.51v2.86c0,0-0.56,0.22-0.56,0.75s0.47,0.67,0.47,0.67v1.73c-0.72,0.58-2.33,1.35-2.33,2.4
		s0.49,0.71,0.49,1.64c0,0.92-1.18,1.21-1.18,1.21l0.94,0.7c0,0,0.41,2.37-0.73,4.73c-0.62,1.28-1.53,1.79-2.38,2.2
		c-0.85-0.41-1.76-0.92-2.38-2.2c-1.14-2.36-0.73-4.73-0.73-4.73l0.94-0.7c0,0-1.18-0.29-1.18-1.21c0-0.92,0.49-0.59,0.49-1.64
		s-1.6-1.82-2.33-2.4v-1.73c0,0,0.47-0.14,0.47-0.67s-0.56-0.75-0.56-0.75V114c0,0,0.36-0.3,0.45-0.51h1.45c0,0,0.39-0.05,0.39-0.25
		c0-0.2-0.39-0.25-0.39-0.25h-1.43c0,0-0.32-0.31-0.57-0.39v-1.26c0,0-0.06-0.34-0.29-0.34s-0.29,0.34-0.29,0.34v1.26
		c-0.25,0.08-0.57,0.39-0.57,0.39h-1.43c0,0-0.39,0.05-0.39,0.25c0,0.2,0.39,0.25,0.39,0.25h1.45c0.09,0.21,0.45,0.51,0.45,0.51
		v2.86c0,0-0.56,0.22-0.56,0.75s0.47,0.67,0.47,0.67v1.73c-0.72,0.58-2.33,1.35-2.33,2.4s0.49,0.71,0.49,1.64
		c0,0.92-1.18,1.21-1.18,1.21l0.94,0.7c0,0,0.41,2.37-0.73,4.73c-1.14,2.36-3.3,2.11-4.18,3.42c-0.88,1.31-0.65,4.69-0.65,4.69
		c-0.13,1.23-2.64,2.64-2.64,2.64h0.99v7.15c0,0-0.94-1.13-2.85-1.13c-3.44,0-4.63,3.23-4.63,3.23v-6.5h1.18
		c0,0-1.74-1.55-1.77-3.51c-0.03-1.96-3.34-3.54-3.34-3.54v-2.6l0.59-0.51c0,0-2.25-1.65-2.75-5.45c-0.5,3.81-2.75,5.45-2.75,5.45
		l0.59,0.51v2.6c0,0-1.48,0.71-2.47,1.76v-3.64l-0.63-0.61v-3.82l0.73-1.06h1.22c0,0-4.28-2.19-4.28-3.51c0-1.32,0.98-1.81,0.98-3.8
		c0-1.99-1.88-3.1-2.86-3.87c-0.98-0.77-2.82-1.8-2.82-3.59s0-5.76,0-5.76l1.16-0.91c0,0-2.07-0.16-2.07-0.87
		c0-1.32,1.23-1.43,1.23-2.86c0-1.42-0.68-1.63-1.41-2.08c-0.73-0.45-1.95-0.78-1.95-1.96v-2.82c0,0,0.47-0.14,0.47-0.67
		c0-0.53-0.56-0.75-0.56-0.75v-3.59c0,0,0.36-0.3,0.45-0.51h1.45c0,0,0.39-0.05,0.39-0.25c0-0.2-0.39-0.25-0.39-0.25h-1.43
		c0,0-0.32-0.31-0.57-0.39v-1.26c0,0-0.06-0.34-0.29-0.34s-0.29,0.34-0.29,0.34v1.26c-0.25,0.08-0.57,0.39-0.57,0.39h-1.43
		c0,0-0.39,0.05-0.39,0.25c0,0.2,0.39,0.25,0.39,0.25h1.45c0.09,0.21,0.45,0.51,0.45,0.51v3.59c0,0-0.56,0.22-0.56,0.75
		c0,0.53,0.47,0.67,0.47,0.67v2.82c0,1.17-1.22,1.51-1.95,1.96s-1.41,0.66-1.41,2.08c0,1.42,1.23,1.54,1.23,2.86
		c0,0.71-2.07,0.87-2.07,0.87l1.16,0.91c0,0,0,3.97,0,5.76s-1.84,2.82-2.82,3.59c-0.98,0.77-2.86,1.87-2.86,3.87
		c0,1.99,0.98,2.48,0.98,3.8c0,1.32-4.28,3.51-4.28,3.51h1.22l0.73,1.06v3.82l-0.63,0.61v3.64c-0.99-1.05-2.47-1.76-2.47-1.76v-2.6
		l0.59-0.51c0,0-2.25-1.65-2.75-5.45c-0.5,3.81-2.75,5.45-2.75,5.45l0.59,0.51v2.6c0,0-3.31,1.58-3.34,3.54
		c-0.03,1.96-1.77,3.51-1.77,3.51h1.18v6.5c0,0-1.18-3.23-4.63-3.23c-1.92,0-2.85,1.13-2.85,1.13v-7.15h0.99
		c0,0-2.51-1.41-2.64-2.64c0,0,0.23-3.38-0.65-4.69c-0.88-1.31-3.04-1.05-4.18-3.42c-1.14-2.36-0.73-4.73-0.73-4.73l0.94-0.7
		c0,0-1.18-0.29-1.18-1.21c0-0.92,0.49-0.59,0.49-1.64s-1.6-1.82-2.33-2.4v-1.73c0,0,0.47-0.14,0.47-0.67s-0.56-0.75-0.56-0.75V114
		c0,0,0.36-0.3,0.45-0.51h1.45c0,0,0.39-0.05,0.39-0.25c0-0.2-0.39-0.25-0.39-0.25h-1.43c0,0-0.32-0.31-0.57-0.39v-1.26
		c0,0-0.06-0.34-0.29-0.34s-0.29,0.34-0.29,0.34v1.26c-0.25,0.08-0.57,0.39-0.57,0.39h-1.43c0,0-0.39,0.05-0.39,0.25
		c0,0.2,0.39,0.25,0.39,0.25h1.45c0.09,0.21,0.45,0.51,0.45,0.51v2.86c0,0-0.56,0.22-0.56,0.75s0.47,0.67,0.47,0.67v1.73
		c-0.72,0.58-2.33,1.35-2.33,2.4s0.49,0.71,0.49,1.64c0,0.92-1.18,1.21-1.18,1.21l0.94,0.7c0,0,0.41,2.37-0.73,4.73
		c-0.62,1.28-1.53,1.79-2.38,2.2c-0.85-0.41-1.76-0.92-2.38-2.2c-1.14-2.36-0.73-4.73-0.73-4.73l0.94-0.7c0,0-1.18-0.29-1.18-1.21
		c0-0.92,0.49-0.59,0.49-1.64s-1.6-1.82-2.33-2.4v-1.73c0,0,0.47-0.14,0.47-0.67s-0.56-0.75-0.56-0.75V114c0,0,0.36-0.3,0.45-0.51
		h1.45c0,0,0.39-0.05,0.39-0.25c0-0.2-0.39-0.25-0.39-0.25h-1.43c0,0-0.32-0.31-0.57-0.39v-1.26c0,0-0.06-0.34-0.29-0.34
		c-0.23,0-0.29,0.34-0.29,0.34v1.26c-0.25,0.08-0.57,0.39-0.57,0.39h-1.43c0,0-0.39,0.05-0.39,0.25c0,0.2,0.39,0.25,0.39,0.25h1.45
		c0.09,0.21,0.45,0.51,0.45,0.51v2.86c0,0-0.56,0.22-0.56,0.75s0.47,0.67,0.47,0.67v1.73c-0.72,0.58-2.33,1.35-2.33,2.4
		s0.49,0.71,0.49,1.64c0,0.92-1.18,1.21-1.18,1.21l0.94,0.7c0,0,0.41,2.37-0.73,4.73c-1.14,2.36-3.3,2.11-4.18,3.42
		c-0.88,1.31-0.65,4.69-0.65,4.69c-0.13,1.23-2.64,2.64-2.64,2.64h0.99v9.96l-0.51-0.73l-0.43-1.61l-0.28,1.39l-0.9,1.39v3.09
		l-0.83,0.64l0.8,0.45v1.6l-5.92,5.92h1.05v4.71l-1.5,0.76h0.56v7.42l-1.43,1.27h0.9v2.15h-0.9V200h728.51v-51.9L1401.05,146.99z
		 M861.38,181.2h-20.03v-12.09c0,0,0.73-7.94,10.02-7.94c9.28,0,10.02,7.94,10.02,7.94V181.2z M916.92,171.1v8.08h-5.43v-8.08
		c0,0-0.09-2.83,2.71-2.83C917.01,168.27,916.92,171.1,916.92,171.1z M1100.48,173.98c0,0-0.62-0.03-9.09-0.03
		c-8.46,0-23.09-3.88-23.09-3.88s-0.97-1.58-1.25-2.03c-0.28-0.45-0.99-0.62-1.29-0.99c-0.29-0.37-0.56-0.23-1.74-0.25
		c-1.18-0.03-1.68,0-2.83-0.48c-1.16-0.48-0.66,0.01-1.44,0.11c-0.78,0.11-1.63,0.28-2.86-0.2c-1.23-0.48-3.41-0.17-3.41-0.17
		s0,0.95-0.3,1.18c-0.3,0.23-0.4,0.54-0.37,1.04c0.03,0.5-0.46,0.11-0.84,0.27c-0.38,0.17-0.61,0.57-1.02,0.09
		c-0.4-0.49,0.01-0.79-0.63-1.37c-0.64-0.58-0.24,0.12-0.3,1.23c-0.06,1.1-0.37,0.64-0.16,1.24c0.21,0.6-0.63,0.71-0.93,1.14
		c-0.31,0.43-1.59,0.79-1.59,2.54c0,1.75,1.65,3.96,1.65,3.96l-3.09,0.91l-0.67,1.89h-8.38v-2.27l-0.94-0.17
		c0,0-0.64-0.62-0.79-1.36c-0.15-0.74-0.58-1.75-0.61-2.17s-0.48-0.73-0.39-1.73s0.29-2.01,0.29-2.01s1.56,2.35,2.29,1.91
		c0.73-0.44-0.69-1.15-0.8-1.51c-0.11-0.36,0.55-0.66,0.27-1.44c-0.28-0.79-1.91-1.83-1.91-1.83s-0.3-0.12-0.61-0.2
		c-0.31-0.08-0.18-1.3-0.82-1.86s-1.03-0.03-1.18-0.83c-0.16-0.81,0.46-0.42,1.06-1.44c0.6-1.03,0.21-1.45,0-2.12
		s-2.39-0.93-3.49-0.67c-1.11,0.25-1.58,0.86-1.92,1.27s-1.86,0.56-2.52,1.26c-0.66,0.7,0.41,0.39,1.44,0.89
		c1.03,0.5,1.97-0.28,2.7-0.66c0.73-0.38,0.61,0.36,0.61,0.36s-0.48,1.43-1.23,2.03c-0.76,0.6-0.88-0.32-1.07-0.17
		c-0.19,0.15,0.05,1.1,0.05,1.1s-0.43,0.55-0.58,0.5c-0.15-0.05-0.65-0.16-2.18-0.83c-1.53-0.66-0.42-0.24-1.59-0.43
		c-1.17-0.19-0.34,0.67-0.27,0.74c0.07,0.07,0.89,0.7,2.09,1.24c1.21,0.54,1.62,0.56,1.75,0.85c0.14,0.3,0.1,1.22-0.11,1.59
		c-0.21,0.37,0,0-0.68,0.79c-0.68,0.79-0.83,1.34-1.26,1.97c-0.43,0.62,0.2,0.98,1.08,1.6c0.88,0.62,0.52,0.65,0.52,0.65
		s-0.32,1.27-0.38,1.69c-0.06,0.42-0.73,1.05-0.73,1.05h-0.73v2.44l-28.96,0.46v0.88h-35.06c0,0,3.45-66.17,71.02-66.17
		c53.15,0,66.62,40.94,69.96,58.42H1100.48z"/>
	<g id="XMLID_124_">
		<g>
			<path class="st0" d="M538.16,169.98c0.01,0,0.02,0,0.03,0c0.01,0,0.01,0,0.02,0c0,0,0.01,0,0.01,0c0.01,0,0.01,0,0.02,0
				c0.24-0.01,0.48,0.06,0.59,0.18l15.52,16.69h3.17v2.55h-38v-2.55h2.62l15.52-16.69c0,0,0.01,0,0.01-0.01
				c0-0.01,0.01-0.01,0.02-0.02c0.01,0,0.01-0.01,0.02-0.01c0,0,0.01-0.01,0.02-0.01c0.01-0.01,0.01-0.01,0.02-0.01
				c0.01,0,0.01-0.01,0.02-0.01c0.01-0.01,0.02-0.01,0.02-0.01c0.01,0,0.01-0.01,0.02-0.01c0.01,0,0.02-0.01,0.03-0.01
				c0.01,0,0.01-0.01,0.02-0.01c0.01,0,0.02-0.01,0.03-0.01c0.01,0,0.02-0.01,0.02-0.01c0.01,0,0.02-0.01,0.02-0.01
				c0.01,0,0.02-0.01,0.03-0.01c0.01,0,0.01,0,0.02-0.01c0.01,0,0.02-0.01,0.03-0.01c0.01,0,0.01,0,0.02,0c0.01,0,0.02,0,0.03-0.01
				c0.01,0,0.02,0,0.02,0c0.01,0,0.02,0,0.03,0c0.01,0,0.02,0,0.03,0C538.14,169.98,538.15,169.98,538.16,169.98z M552.98,186.86
				l-2.66-2.86l-11.26,2.2c-0.08,0.02-0.16,0.03-0.24,0.03v0.63H552.98z M549.8,183.43l-2.02-2.17l-8.95,1.43v2.88L549.8,183.43z
				 M547.25,180.69l-2.6-2.8l-5.82,0.93v3.21L547.25,180.69z M544.12,177.33l-2.16-2.32l-3.13,0.5v2.67L544.12,177.33z
				 M541.43,174.44l-2.61-2.8v3.22L541.43,174.44z M537.59,186.86v-0.67l-11.41-2.23l-2.69,2.89H537.59z M537.59,185.52v-2.86
				l-8.8-1.41c-0.03,0-0.05-0.01-0.07-0.02l-2.01,2.16L537.59,185.52z M537.59,182.01v-3.19l-5.77-0.92l-2.58,2.78L537.59,182.01z
				 M537.59,178.17v-2.58l-3.15-0.51l-2.09,2.24L537.59,178.17z M537.59,174.94v-3.25l-2.63,2.83L537.59,174.94z"/>
		</g>
	</g>
	<rect y="189.21" class="st0" width="1399.87" height="12.79"/>
	<g id="XMLID_115_">
		<g>
			<rect x="603.49" y="187.29" class="st0" width="65.59" height="1.99"/>
			<path class="st0" d="M666.64,184.92h-2.65c-2.67-9.55-10.3-17.08-20-19.73c4.64,3.83,8.17,11.01,9.56,19.73h-1.5
				c-1.82-11.39-7.64-19.9-14.69-20.7v20.7h-2.18v-20.7c-7.04,0.81-12.87,9.31-14.68,20.7H619c1.39-8.72,4.92-15.9,9.56-19.73
				c-9.69,2.65-17.32,10.18-20,19.73h-2.65c3.67-13.12,15.87-22.75,30.37-22.75S662.97,171.81,666.64,184.92z"/>
		</g>
	</g>
	<g id="XMLID_119_">
		<g>
			<polygon class="st0" points="388.1,142.78 388.1,192.13 376.76,192.13 355.14,192.13 353.65,184.1 355.14,164.66 355.59,159.16
				372.72,155.52 372.1,154.6 355.59,158.12 355.59,154.2 372.72,150.55 372.1,149.63 355.59,153.15 355.59,149.07 372.72,145.42
				372.1,144.5 355.59,148.02 355.59,144.21 372.31,140.1 			"/>
			<path class="st0" d="M364.39,163.56v28.57h-21.48v-22.98l10.04-5.59H364.39z M362.49,190.28v-24.73h-7.36v24.73H362.49z"/>
		</g>
	</g>
	<path class="st0" d="M444.02,196.41v-24.98c0-0.32-0.27-0.59-0.6-0.59c-0.33,0-0.6,0.26-0.6,0.59v24.98h-2.04v-24.07
		c0-0.32-0.27-0.59-0.6-0.59c-0.33,0-0.6,0.26-0.6,0.59v24.07h-1.74v-23.07c0-0.33-0.27-0.59-0.6-0.59c-0.33,0-0.6,0.26-0.6,0.59
		v23.07h-1.98v-25.22l14.73-7.63l12.05,6.38v26.46H444.02z"/>
	<g>
		<g id="XMLID_149_">
			<g>
				<rect x="565.58" y="162.54" class="st0" width="32.04" height="0.85"/>
				<path class="st0" d="M587.7,185.41v-10.15c0-2.49-2.73-4.51-6.1-4.51c-3.37,0-6.1,2.02-6.1,4.51v10.15h-6.56h-1.56v-16.53h28.45
					v16.53h-1.56H587.7z"/>
				<rect x="565.58" y="167.43" class="st0" width="32.04" height="0.85"/>
				<rect x="567.38" y="164" class="st0" width="28.45" height="2.7"/>
				<path class="st0" d="M590.05,161.53h-0.73c-0.89-4.84-3.73-8.46-7.17-8.8v8.8h-1.07v-8.8c-3.44,0.34-6.29,3.96-7.17,8.8h-0.73
					c0.68-3.71,2.41-6.75,4.67-8.38c-4.73,1.13-8.46,4.33-9.77,8.38h-1.29c1.8-5.57,7.75-9.67,14.83-9.67
					c7.08,0,13.04,4.09,14.83,9.67h-1.29c-1.31-4.06-5.04-7.26-9.77-8.38C587.64,154.78,589.37,157.83,590.05,161.53z"/>
				<path class="st0" d="M568.94,185.73h25.32c2.08,0,3.77,1.25,3.77,2.79v0.87h-32.87v-0.87
					C565.17,186.98,566.86,185.73,568.94,185.73z"/>
				<path class="st0" d="M597.63,167.43h-32.04v0.85h-0.6v-4.89h0.6h32.04v-0.85h0.52v4.89H597.63z M567.38,166.71h28.45V164h-28.45
					V166.71z"/>
			</g>
		</g>
	</g>
	<g id="XMLID_117_">
		<g>
			<path class="st0" d="M199.51,152.46v44.33h-22.85v-44.33H199.51z"/>
		</g>
	</g>
	<g id="XMLID_1_">
		<g>
			<polygon class="st0" points="178.33,128.45 178.33,196.69 169.24,196.69 169.24,156.06 167.56,156.06 156.16,156.06
				156.16,151.11 167.84,146.06 167.42,144.79 156.16,149.66 156.16,144.24 167.84,139.19 167.42,137.92 156.16,142.79
				156.16,137.15 167.84,132.1 167.42,130.83 156.16,135.7 156.16,130.42 167.56,124.75 			"/>
			<path class="st0" d="M172.09,141.19l-0.63,55.51h-25.32v-31.78l10.85-15.98L172.09,141.19z"/>
		</g>
	</g>
	<g id="XMLID_2_">
		<g>
			<path class="st0" d="M251.79,163.14v30.72h-22.85v-30.72H251.79z"/>
		</g>
	</g>
	<g id="XMLID_5_">
		<g>
			<path class="st0" d="M33.22,125.75v70.29H16.49v-70.29H33.22z"/>
		</g>
	</g>
	<g id="XMLID_4_">
		<g>
			<polygon class="st0" points="16.98,143.74 16.98,195.97 10.33,195.97 10.33,164.87 9.1,164.87 0.76,164.87 0.76,161.08
				9.31,157.22 9,156.25 0.76,159.98 0.76,155.83 9.31,151.97 9,150.99 0.76,154.72 0.76,150.4 9.31,146.54 9,145.57 0.76,149.29
				0.76,145.26 9.1,140.92 			"/>
			<path class="st0" d="M12.42,153.49l-0.46,42.47H-6.58v-24.32l7.94-12.23L12.42,153.49z"/>
		</g>
	</g>
	<path class="st0" d="M42.34,181.59v-25.74l18.62-14.5l11.46,5.34v48.06l-6.04,0.49l0,0l-21.26-0.49L42.34,181.59z"/>
	<g id="XMLID_3_">
		<g>
			<path class="st0" d="M47.31,135.82v60.22H30.58v-60.22H47.31z"/>
		</g>
	</g>
</g>
</svg>
