<svg xmlns="http://www.w3.org/2000/svg" viewBox="0 0 276.99 37.81"><defs><style>.cls-1{fill:#263238;}.cls-2{fill:#e77270;}</style></defs><title>Scaleox logo</title><g id="Слой_1" data-name="Слой 1"><path class="cls-1" d="M304.7,301.81a9.12,9.12,0,0,0-3-3.26,26.9,26.9,0,0,0-6.1-2.94,29.33,29.33,0,0,1-5-2.24,6.71,6.71,0,0,1-2.32-2.17,5.83,5.83,0,0,1-.71-3,4.69,4.69,0,0,1,1.85-3.95,8.23,8.23,0,0,1,5.12-1.4,23.09,23.09,0,0,1,8.79,2l1.43-4a24.58,24.58,0,0,0-10.13-2.06,13.31,13.31,0,0,0-8.5,2.55,8.23,8.23,0,0,0-3.23,6.83,9.61,9.61,0,0,0,2.18,6.52c1.45,1.68,3.89,3.15,7.29,4.39a34.81,34.81,0,0,1,5.37,2.33,7.29,7.29,0,0,1,2.52,2.21,5.56,5.56,0,0,1,.75,3,5.16,5.16,0,0,1-2.09,4.35q-2.08,1.58-6.21,1.58a26.14,26.14,0,0,1-5.19-.57,26.64,26.64,0,0,1-5.1-1.59v4.42q3.56,1.74,10.09,1.74,6.18,0,9.66-2.76a9.17,9.17,0,0,0,3.46-7.57A9.33,9.33,0,0,0,304.7,301.81Z" transform="translate(-282.45 -278.73)"/><path class="cls-1" d="M327.86,308.63q-3.29-3.86-3.29-11c0-4.59,1.13-8.2,3.38-10.86a11.64,11.64,0,0,1,9.33-4,20,20,0,0,1,8.34,2l1.86-3.92a22.43,22.43,0,0,0-10.16-2.17,18.6,18.6,0,0,0-9.43,2.32,14.9,14.9,0,0,0-6.1,6.59,22.23,22.23,0,0,0-2.1,9.94q0,9.05,4.38,14t12.5,4.93a36.16,36.16,0,0,0,5-.31,23.4,23.4,0,0,0,4.5-1.17v-4a31.38,31.38,0,0,1-8.82,1.45Q331.16,312.5,327.86,308.63Z" transform="translate(-282.45 -278.73)"/><path class="cls-1" d="M376.08,279.15h-4.18L357.56,316h4.67l4.36-11.38h14.57L385.59,316h4.81Zm-7.92,21.41,4.18-11.14q.83-2.48,1.58-5.5l1.76,5.5,4.12,11.14Z" transform="translate(-282.45 -278.73)"/><path class="cls-1" d="M408.55,311.92V279.3h-4.62V316h20.67v-4.12Z" transform="translate(-282.45 -278.73)"/><path class="cls-1" d="M459.91,283.38V279.3H439.38V316h20.53V312H444V298.86h15v-4H444V283.38Z" transform="translate(-282.45 -278.73)"/><path class="cls-1" d="M504.1,283.75q-4.44-5-12.43-5-8.22,0-12.63,4.93t-4.4,13.91q0,9,4.43,14t12.55,5q8,0,12.47-5.05t4.46-13.87Q508.54,288.75,504.1,283.75Zm-3.52,25q-3.07,3.76-9,3.76c-3.95,0-7-1.27-9-3.81s-3.08-6.25-3.08-11.11,1-8.51,3.08-11,5.09-3.78,9.08-3.78,6.91,1.24,8.94,3.73,3,6.18,3,11.08S502.63,306.26,500.58,308.78Z" transform="translate(-282.45 -278.73)"/><polygon class="cls-2" points="254.8 18.94 240.4 37.81 235.31 37.81 249.71 18.94 235.25 0 240.34 0 254.8 18.94"/><polygon class="cls-2" points="262.54 18.94 276.94 37.81 271.85 37.81 257.45 18.94 271.9 0 276.99 0 262.54 18.94"/></g></svg>