<svg xmlns="http://www.w3.org/2000/svg" viewBox="0 0 276.55 37.75"><defs><style>.cls-1{fill:#b0bec5;}.cls-2{fill:#e77270;}</style></defs><title>Scaleox logo 2</title><g id="Слой_1" data-name="Слой 1"><path class="cls-1" d="M1166.78,301.8a9.1,9.1,0,0,0-3-3.25,26.85,26.85,0,0,0-6.09-2.93,29.28,29.28,0,0,1-5-2.23,6.7,6.7,0,0,1-2.31-2.16,5.82,5.82,0,0,1-.71-3,4.68,4.68,0,0,1,1.84-3.94,8.21,8.21,0,0,1,5.11-1.4,23,23,0,0,1,8.78,1.95l1.43-4a24.54,24.54,0,0,0-10.11-2.06,13.29,13.29,0,0,0-8.48,2.54,8.21,8.21,0,0,0-3.23,6.82,9.59,9.59,0,0,0,2.18,6.51c1.45,1.68,3.89,3.15,7.27,4.38a34.76,34.76,0,0,1,5.37,2.33,7.28,7.28,0,0,1,2.51,2.21,5.56,5.56,0,0,1,.75,3,5.16,5.16,0,0,1-2.08,4.34q-2.08,1.57-6.2,1.57a26.1,26.1,0,0,1-5.18-.56,26.6,26.6,0,0,1-5.1-1.59v4.41q3.55,1.73,10.07,1.73,6.17,0,9.64-2.76a9.16,9.16,0,0,0,3.46-7.56A9.31,9.31,0,0,0,1166.78,301.8Z" transform="translate(-1144.56 -278.77)"/><path class="cls-1" d="M1189.9,308.62q-3.29-3.85-3.28-10.95c0-4.59,1.13-8.19,3.38-10.84a11.62,11.62,0,0,1,9.32-4,20,20,0,0,1,8.32,2l1.86-3.91a22.4,22.4,0,0,0-10.14-2.16,18.57,18.57,0,0,0-9.41,2.31,14.88,14.88,0,0,0-6.09,6.58,22.19,22.19,0,0,0-2.1,9.92q0,9,4.37,14t12.48,4.92a36.1,36.1,0,0,0,5-.31,23.36,23.36,0,0,0,4.49-1.17v-4a31.33,31.33,0,0,1-8.81,1.45Q1193.19,312.48,1189.9,308.62Z" transform="translate(-1144.56 -278.77)"/><path class="cls-1" d="M1238,279.18h-4.17L1219.55,316h4.67l4.36-11.36h14.55l4.41,11.36h4.8Zm-7.91,21.38,4.17-11.12q.83-2.48,1.57-5.49l1.76,5.49,4.11,11.12Z" transform="translate(-1144.56 -278.77)"/><path class="cls-1" d="M1270.46,311.9V279.33h-4.61V316h20.64V311.9Z" transform="translate(-1144.56 -278.77)"/><path class="cls-1" d="M1321.74,283.4v-4.07h-20.49V316h20.49V312h-15.88v-13.1h15v-4h-15V283.4Z" transform="translate(-1144.56 -278.77)"/><path class="cls-1" d="M1365.85,283.77q-4.44-5-12.41-5-8.21,0-12.61,4.92t-4.4,13.89q0,9,4.42,14t12.53,4.95q8,0,12.45-5t4.45-13.85Q1370.29,288.76,1365.85,283.77Zm-3.51,25q-3.07,3.75-9,3.75c-3.94,0-7-1.26-9-3.81s-3.08-6.24-3.08-11.09,1-8.5,3.08-11,5.08-3.78,9.06-3.78,6.9,1.24,8.93,3.72,3,6.17,3,11.07S1364.39,306.25,1362.35,308.76Z" transform="translate(-1144.56 -278.77)"/><polygon class="cls-2" points="254.39 18.91 240.01 37.74 234.93 37.74 249.3 18.91 234.87 0 239.96 0 254.39 18.91"/><polygon class="cls-2" points="262.12 18.91 276.49 37.74 271.41 37.74 257.03 18.91 271.46 0 276.55 0 262.12 18.91"/></g></svg>