<svg version="1.1" id="Слой_1" xmlns="http://www.w3.org/2000/svg" x="0" y="0" viewBox="0 0 1400 200" xml:space="preserve"><style>.st0{fill:#d8dedf}</style><path class="st0" d="M512.46 190.33v-6.2h2.19c.33 0 .59-.26.59-.58v-13.9h3.38c.33 0 .59-.26.59-.58v-13.9h2.98c.33 0 .59-.26.59-.58v-13.9h2.58c.33 0 .59-.26.59-.58v-14.48c0-.32-.26-.58-.59-.58h-12.89v-5.29c0-.32-.26-.58-.59-.58H475.4c-.33 0-.59.26-.59.58v5.29h-10.12c-.33 0-.59.26-.59.58v14.48c0 .32.26.58.59.58h2.58v13.9c0 .32.26.58.59.58h2.98v13.9c0 .32.26.58.59.58h3.38v13.9c0 .32.26.58.59.58h2.19v6.2h-37.58v-3.48c0-.15-.06-.29-.16-.4l-12.82-13.5a.582.582 0 00-.43-.18h-2.67l-3.19-8.62a.584.584 0 00-.55-.38h-2.47l-1.58-8.52a.582.582 0 00-.58-.48h-4.03v-13.31h1.26c.33 0 .59-.26.59-.58v-7.05h.07c0-.3-.03-.58-.07-.87v-1.04l1.36-1.34c.11-.11.17-.26.17-.41v-3.41l3.24-3.48c.1-.11.16-.25.16-.39v-2.7l3.75-3.51a.56.56 0 00.18-.42v-6.34c0-.26-.18-.49-.44-.56l-3.93-1.02c-.1-.03-.2-.03-.3 0l-3.93 1.02c-.26.07-.44.3-.44.56v6.34c0 .16.07.31.18.42l1.64 1.53-4.21 4.68-.45-.24c.2-.45.31-.95.31-1.47 0-2.06-1.7-3.74-3.79-3.74s-3.79 1.68-3.79 3.74c0 .52.11 1.02.31 1.47l-.45.24-6.32-7.03v-3.33h1.51v-1.16h-1.51v-9.64h-1.18v9.64h-1.51v1.16h1.51v10.36c0 .15.06.29.16.39l3.24 3.48v3.41c0 .15.06.3.17.41l1.36 1.34v1.04c-.04.29-.07.57-.07.87h.07v7.05c0 .32.26.58.59.58h1.26v13.31h-2.55c-.28 0-.53.2-.58.48l-1.58 8.52h-2.47c-.25 0-.47.15-.55.38l-3.19 8.62h-2.67c-.16 0-.32.07-.43.18l-12.82 13.5c-.1.11-.16.25-.16.4v3.48h-24.25v-35.19c0-4.22-1.7-8.05-4.45-10.87v-26.6h2.4v-1.16h-2.41c-.3-5.77-5-10.4-10.84-10.7v-3.67h3.48v-1.16h-3.48v-4.24h-1.18v4.24h-3.48v1.16h3.48v3.67c-5.84.29-10.54 4.93-10.84 10.7h-2.41v1.16h2.4v8.28h-6.04v-22.28h3.84v-1.16h-3.85c-.3-8.62-7.35-15.58-16.08-15.88v-6h5.45v-1.16h-5.45V72.9h-1.18v6.57h-5.45v1.16h5.45v6c-8.73.3-15.78 7.26-16.08 15.88h-3.85v1.16h3.84v22.28h-6.04v-8.28h2.4v-1.16h-2.41c-.3-5.77-5-10.4-10.84-10.7v-3.67h3.48v-1.16h-3.48v-4.24h-1.18v4.24h-3.48v1.16h3.48v3.67c-5.84.29-10.54 4.93-10.84 10.7h-2.41v1.16h2.4v26.6c-2.75 2.82-4.45 6.65-4.45 10.87v35.19h-21.32v-9.21h3.06c.25 0 .47-.15.55-.38a.56.56 0 00-.17-.64l-3.44-2.93v-16.65h.3c.25 0 .47-.15.55-.38a.56.56 0 00-.17-.64l-3.44-2.93v-16.24h1.6c.25 0 .47-.15.55-.38a.56.56 0 00-.17-.64l-3.44-2.93v-5.2h1.37V130h-1.37v-10.28h1.37v-1.16h-1.37v-4.98c0-5.54-1.91-8.11-3.51-9.3-2.19-1.62-3.84-3.49-4.9-5.56-1.49-2.89-2.1-5.42-2.19-5.81v-6.95h1.81V84.8h-1.81v-2.94h-1.18v2.94h-1.81v1.16h1.81v6.95c-.09.39-.7 2.9-2.19 5.81-1.07 2.08-2.72 3.95-4.9 5.56-1.6 1.18-3.51 3.76-3.51 9.3v4.98h-1.37v1.16h1.37V130h-1.37v1.16h1.37v5.2l-3.44 2.93c-.19.16-.25.41-.17.64.09.23.31.38.55.38h1.6v16.24l-3.44 2.93c-.19.16-.25.41-.17.64.09.23.31.38.55.38h.3v16.65l-3.44 2.93c-.19.16-.25.41-.17.64.09.23.31.38.55.38h3.06v9.21H147.2v-7.88l1.84-2.01c.16-.17.2-.42.1-.63a.594.594 0 00-.54-.35h-1.4v-46.18c0-.32-.26-.58-.59-.58h-3v-4.26c0-.32-.26-.58-.59-.58h-3.64v-3.85h-1.18v3.85h-3.64c-.33 0-.59.26-.59.58v4.26h-4.1v-11.54h.95V120h-2.84v-9.06h2.85v-1.16h-22.57v-7.19h-1.18v7.19H84.52v1.16h2.85V120h-2.84v1.16h.95v11.54h-4.1v-4.26c0-.32-.26-.58-.59-.58h-3.64v-3.85h-1.18v3.85h-3.64c-.33 0-.59.26-.59.58v4.26h-3c-.33 0-.59.26-.59.58v46.18h-1.4c-.23 0-.44.14-.54.35-.09.21-.05.46.1.63l1.84 2.01v8.51c-31.54.94-67.63 3.28-67.63 9.05H589.2c0-8.54-53.81-9.58-76.74-9.68zm888.59-43.34l-11.84-.67v-5.63l-4.83-.44-.73-.52-4.23-.28-3 .36v1.63h-1.64v-1.31l-1.18-.2-1.09.28v1.03l-2.41 2.58-3.06-.24-1.09 1.11c-2.02-.07-4.78.04-4.78.04v-.91l-1.59-.24-.96.79v3.57l-2.09.24v1.35h-1.96l-1.28 1.85v1l-6.33-.47-2.46-1.51v-5.27l-7.42-.4-3.55.32v3.09l-3.32.12v-.44l-1.59-.83-1.82 1.39v.32l-3.19.28v8.21h-3.37l-1.68-.32v-.44h-.87v-2.62c-4.78-.38-9.11-.04-9.11-.04v2.62l-5.48.16V139.9h.77s-.28-1.07-2.28-1.07v-.95l-1.32-1.47v-4.03l-2.41-1.16v-2.7l-2.14-.67v-1.27l-3.32-.63 1.14-1.42v-.8l-1.14-1.7-.73-3.05-.73 3.05-1.14 1.7v.8l1.14 1.42-3.32.63v1.27l-2.14.67v2.7l-2.41 1.16v4.03l-1.32 1.47v.95c-1.99 0-2.28 1.07-2.28 1.07h.77v18.04h-3.99v-1.7h-6.88v2.58h-5.14v1.23h-5.14v4.74h-4.38v-24.87h.77s-.28-1.07-2.28-1.07v-.95l-1.32-1.47v-4.03l-2.41-1.16v-2.7l-2.14-.67v-1.27l-3.32-.63 1.14-1.42v-.8l-1.14-1.7-.73-3.05-.73 3.05-1.14 1.7v.8l1.14 1.42-3.32.63v1.27l-2.14.67v2.7l-2.41 1.16v4.03l-1.32 1.47v.95c-1.99 0-2.28 1.07-2.28 1.07h.77v40h-11.38v-26h-2.82l-3.01-1.82-1 .71h-4.01v-.48h-12.24l-2.06 2.14h-2.73v12.45h-.64v14.35h-2.67V147.6s-3.78-1.72-4.75-1.97c-.96-.25-7.78-.21-7.78-.21V67.73l-1.52-7.78-4.84.36v-4.16c-32.52 12.38-34.87 36.76-34.87 36.76v66.58l-10.05 4.75v17.49s-9.82-78.99-94.27-78.99c-84.46 0-94.27 78.99-94.27 78.99l-5.15-2.65h-5.9v-1.34h-1.29v-9.32l.79-1.39v-.74l.65-.7h-1.46v-1.05l.65-1.27v-.74h-2.61v-3.89l.25-.87v-.7h-.84v-3.28l.2-.5-.8-2.73-.8 2.73.2.5v3.28h-1.76s.22-1.59-.4-2.01c-.62-.42-1.06-1.24-1.06-1.24s.46-.52.23-.71c-.22-.2-.69-.47-.69-.47v-1.27l-.37-.74V99.45s1.52-2.16 1.02-2.62c-.26-.24-.39-.36-.45-.41.13.1.44.28.68-.31.3-.76.23-1.37.6-1.82.37-.45-.52-.76-.33-1 .18-.25.3-1.63.3-1.63s.07-.75-.05-.83l-.12-.08s-.31-.26-1.16 0c-.85.26-.46.35-1.14-.12-.68-.47-.49-.71-.49-.71s.51-.42.51-1.19c0-.51-.4-1-1.03-1.29l.13-1.26s.43-.22.72-.72.02-4.82.02-4.82c.51-.12.54-.47 1.07-1.01s.53-.36 1.01-.81c.47-.45.13-.48.09-1.38-.04-.9.64-.41 1.21-.94.57-.52.04-.34.28-1.18.24-.84.56-.27 1.11-.63.56-.36.35-.76.35-1.42 0-.66-.66-.49-1-.93-.34-.44-.91.38-.91.38s-.76.74-.85.79c-.09.06-1.18-.39-2.13-.89s-.69-.17-1.53-.23c-.83-.06-1.41.19-2.41.64-1 .45-1.14 1.6-1.2 1.85-.06.25-1.29-.38-1.8-.73-.52-.35-1.53-.03-1.86 0-.33.03-.06 1-.05 1 .01 0 .32.4.51.71.2.31.83.59 1.6.53.78-.07.58.29 1.21.94.64.65.42.86.93 1.8.51.94 1.17 1.55 1.17 1.55-.4.72-.38 5.25-.38 5.25.52.47.22 1.6.22 1.6-.54.29-.88.75-.88 1.21 0 .77.51 1.19.51 1.19s.19.24-.49.71c-.68.47-.29.38-1.14.12-.85-.26-1.16 0-1.16 0l-.12.08c-.12.08-.05.83-.05.83s.12 1.38.3 1.63-.7.55-.33 1c.37.45.3 1.07.6 1.82.24.59.55.42.68.31-.06.06-.18.17-.45.41-.5.47 1.02 2.62 1.02 2.62v51.16l-.37.74v1.27s-.46.27-.69.47c-.22.2.23.71.23.71s-.44.82-1.06 1.24c-.62.42-.4 2.01-.4 2.01h-1.76v-3.28l.2-.5-.8-2.73-.8 2.73.2.5v3.28h-.84v.7l.25.87v3.89h-2.61v.74l.65 1.27v1.05h-1.46l.65.7v.74l.79 1.39v9.32h-1.29v1.34h-5.9l-5.15 2.65h-1.09v-16.4h-3.71v-5.25h-3.33v-4.58h-2.08v-3.22l.99-.57v-1.8l-2.06-.74H869.6v-1.48h-1.27v-12.26l.28-.7h-4.11l-.61-1.36h-.61s-1.46-2.64-4.23-2.64c-1.63 0-3.11 1.32-3.11 1.32l-.67-1.33v-2.8s-.7-3.43-4.11-3.43-4.11 3.43-4.11 3.43v2.8l-.67 1.33s-1.48-1.32-3.11-1.32c-2.77 0-4.23 2.64-4.23 2.64h-.61l-.61 1.36h-4.11l.28.7v12.26h-1.27v1.48h-10.08l-2.06.74v1.8l.99.57v3.22h-2.08v4.58h-3.33v5.25h-3.71l.01 12.38-1.42-1.27v-7.42h.56l-1.5-.76v-4.71h1.05l-5.92-5.92v-1.6l.8-.45-.83-.64v-3.09l-.9-1.39-.28-1.39-.43 1.61-.51.73v-9.96h.99s-2.51-1.41-2.64-2.64c0 0 .23-3.38-.65-4.69-.88-1.31-3.04-1.05-4.18-3.42-1.14-2.36-.73-4.73-.73-4.73l.94-.7s-1.18-.29-1.18-1.21c0-.92.49-.59.49-1.64s-1.6-1.82-2.33-2.4v-1.73s.47-.14.47-.67-.56-.75-.56-.75V114s.36-.3.45-.51h1.45s.39-.05.39-.25-.39-.25-.39-.25h-1.43s-.32-.31-.57-.39v-1.26s-.06-.34-.29-.34c-.23 0-.29.34-.29.34v1.26c-.25.08-.57.39-.57.39h-1.43s-.39.05-.39.25.39.25.39.25h1.45c.09.21.45.51.45.51v2.86s-.56.22-.56.75.47.67.47.67v1.73c-.72.58-2.33 1.35-2.33 2.4s.49.71.49 1.64c0 .92-1.18 1.21-1.18 1.21l.94.7s.41 2.37-.73 4.73c-.62 1.28-1.53 1.79-2.38 2.2-.85-.41-1.76-.92-2.38-2.2-1.14-2.36-.73-4.73-.73-4.73l.94-.7s-1.18-.29-1.18-1.21c0-.92.49-.59.49-1.64s-1.6-1.82-2.33-2.4v-1.73s.47-.14.47-.67-.56-.75-.56-.75V114s.36-.3.45-.51h1.45s.39-.05.39-.25-.39-.25-.39-.25h-1.43s-.32-.31-.57-.39v-1.26s-.06-.34-.29-.34-.29.34-.29.34v1.26c-.25.08-.57.39-.57.39h-1.43s-.39.05-.39.25.39.25.39.25h1.45c.09.21.45.51.45.51v2.86s-.56.22-.56.75.47.67.47.67v1.73c-.72.58-2.33 1.35-2.33 2.4s.49.71.49 1.64c0 .92-1.18 1.21-1.18 1.21l.94.7s.41 2.37-.73 4.73c-1.14 2.36-3.3 2.11-4.18 3.42-.88 1.31-.65 4.69-.65 4.69-.13 1.23-2.64 2.64-2.64 2.64h.99v7.15s-.94-1.13-2.85-1.13c-3.44 0-4.63 3.23-4.63 3.23v-6.5h1.18s-1.74-1.55-1.77-3.51c-.03-1.96-3.34-3.54-3.34-3.54v-2.6l.59-.51s-2.25-1.65-2.75-5.45c-.5 3.81-2.75 5.45-2.75 5.45l.59.51v2.6s-1.48.71-2.47 1.76v-3.64l-.63-.61v-3.82l.73-1.06h1.22s-4.28-2.19-4.28-3.51c0-1.32.98-1.81.98-3.8 0-1.99-1.88-3.1-2.86-3.87s-2.82-1.8-2.82-3.59v-5.76l1.16-.91s-2.07-.16-2.07-.87c0-1.32 1.23-1.43 1.23-2.86 0-1.42-.68-1.63-1.41-2.08-.73-.45-1.95-.78-1.95-1.96v-2.82s.47-.14.47-.67-.56-.75-.56-.75v-3.59s.36-.3.45-.51h1.45s.39-.05.39-.25-.39-.25-.39-.25h-1.43s-.32-.31-.57-.39v-1.26s-.06-.34-.29-.34-.29.34-.29.34v1.26c-.25.08-.57.39-.57.39h-1.43s-.39.05-.39.25.39.25.39.25h1.45c.09.21.45.51.45.51v3.59s-.56.22-.56.75.47.67.47.67v2.82c0 1.17-1.22 1.51-1.95 1.96s-1.41.66-1.41 2.08 1.23 1.54 1.23 2.86c0 .71-2.07.87-2.07.87l1.16.91V115c0 1.79-1.84 2.82-2.82 3.59-.98.77-2.86 1.87-2.86 3.87 0 1.99.98 2.48.98 3.8 0 1.32-4.28 3.51-4.28 3.51h1.22l.73 1.06v3.82l-.63.61v3.64c-.99-1.05-2.47-1.76-2.47-1.76v-2.6l.59-.51s-2.25-1.65-2.75-5.45c-.5 3.81-2.75 5.45-2.75 5.45l.59.51v2.6s-3.31 1.58-3.34 3.54c-.03 1.96-1.77 3.51-1.77 3.51h1.18v6.5s-1.18-3.23-4.63-3.23c-1.92 0-2.85 1.13-2.85 1.13v-7.15h.99s-2.51-1.41-2.64-2.64c0 0 .23-3.38-.65-4.69-.88-1.31-3.04-1.05-4.18-3.42-1.14-2.36-.73-4.73-.73-4.73l.94-.7s-1.18-.29-1.18-1.21c0-.92.49-.59.49-1.64s-1.6-1.82-2.33-2.4v-1.73s.47-.14.47-.67-.56-.75-.56-.75V114s.36-.3.45-.51h1.45s.39-.05.39-.25-.39-.25-.39-.25h-1.43s-.32-.31-.57-.39v-1.26s-.06-.34-.29-.34-.29.34-.29.34v1.26c-.25.08-.57.39-.57.39h-1.43s-.39.05-.39.25.39.25.39.25h1.45c.09.21.45.51.45.51v2.86s-.56.22-.56.75.47.67.47.67v1.73c-.72.58-2.33 1.35-2.33 2.4s.49.71.49 1.64c0 .92-1.18 1.21-1.18 1.21l.94.7s.41 2.37-.73 4.73c-.62 1.28-1.53 1.79-2.38 2.2-.85-.41-1.76-.92-2.38-2.2-1.14-2.36-.73-4.73-.73-4.73l.94-.7s-1.18-.29-1.18-1.21c0-.92.49-.59.49-1.64s-1.6-1.82-2.33-2.4v-1.73s.47-.14.47-.67-.56-.75-.56-.75V114s.36-.3.45-.51h1.45s.39-.05.39-.25-.39-.25-.39-.25h-1.43s-.32-.31-.57-.39v-1.26s-.06-.34-.29-.34c-.23 0-.29.34-.29.34v1.26c-.25.08-.57.39-.57.39h-1.43s-.39.05-.39.25.39.25.39.25h1.45c.09.21.45.51.45.51v2.86s-.56.22-.56.75.47.67.47.67v1.73c-.72.58-2.33 1.35-2.33 2.4s.49.71.49 1.64c0 .92-1.18 1.21-1.18 1.21l.94.7s.41 2.37-.73 4.73c-1.14 2.36-3.3 2.11-4.18 3.42-.88 1.31-.65 4.69-.65 4.69-.13 1.23-2.64 2.64-2.64 2.64h.99v9.96l-.51-.73-.43-1.61-.28 1.39-.9 1.39v3.09l-.83.64.8.45v1.6l-5.92 5.92h1.05v4.71l-1.5.76h.56v7.42l-1.43 1.27h.9v2.15h-.9V200h728.51v-51.9l-.63-1.11zM861.38 181.2h-20.03v-12.09s.73-7.94 10.02-7.94c9.28 0 10.02 7.94 10.02 7.94v12.09zm55.54-10.1v8.08h-5.43v-8.08s-.09-2.83 2.71-2.83c2.81 0 2.72 2.83 2.72 2.83zm183.56 2.88s-.62-.03-9.09-.03c-8.46 0-23.09-3.88-23.09-3.88s-.97-1.58-1.25-2.03c-.28-.45-.99-.62-1.29-.99-.29-.37-.56-.23-1.74-.25-1.18-.03-1.68 0-2.83-.48-1.16-.48-.66.01-1.44.11-.78.11-1.63.28-2.86-.2-1.23-.48-3.41-.17-3.41-.17s0 .95-.3 1.18c-.3.23-.4.54-.37 1.04.03.5-.46.11-.84.27-.38.17-.61.57-1.02.09-.4-.49.01-.79-.63-1.37-.64-.58-.24.12-.3 1.23-.06 1.1-.37.64-.16 1.24s-.63.71-.93 1.14c-.31.43-1.59.79-1.59 2.54s1.65 3.96 1.65 3.96l-3.09.91-.67 1.89h-8.38v-2.27l-.94-.17s-.64-.62-.79-1.36c-.15-.74-.58-1.75-.61-2.17s-.48-.73-.39-1.73.29-2.01.29-2.01 1.56 2.35 2.29 1.91c.73-.44-.69-1.15-.8-1.51-.11-.36.55-.66.27-1.44-.28-.79-1.91-1.83-1.91-1.83s-.3-.12-.61-.2c-.31-.08-.18-1.3-.82-1.86s-1.03-.03-1.18-.83c-.16-.81.46-.42 1.06-1.44.6-1.03.21-1.45 0-2.12s-2.39-.93-3.49-.67c-1.11.25-1.58.86-1.92 1.27s-1.86.56-2.52 1.26c-.66.7.41.39 1.44.89s1.97-.28 2.7-.66c.73-.38.61.36.61.36s-.48 1.43-1.23 2.03c-.76.6-.88-.32-1.07-.17-.19.15.05 1.1.05 1.1s-.43.55-.58.5c-.15-.05-.65-.16-2.18-.83-1.53-.66-.42-.24-1.59-.43-1.17-.19-.34.67-.27.74.07.07.89.7 2.09 1.24 1.21.54 1.62.56 1.75.85.14.3.1 1.22-.11 1.59-.21.37 0 0-.68.79s-.83 1.34-1.26 1.97c-.43.62.2.98 1.08 1.6.88.62.52.65.52.65s-.32 1.27-.38 1.69c-.06.42-.73 1.05-.73 1.05h-.73v2.44l-28.96.46v.88h-35.06s3.45-66.17 71.02-66.17c53.15 0 66.62 40.94 69.96 58.42h-.69z"/><path class="st0" d="M538.16 169.98h.08c.24-.01.48.06.59.18l15.52 16.69h3.17v2.55h-38v-2.55h2.62l15.52-16.69s.01 0 .01-.01.01-.01.02-.02c.01 0 .01-.01.02-.01 0 0 .01-.01.02-.01.01-.01.01-.01.02-.01s.01-.01.02-.01c.01-.01.02-.01.02-.01.01 0 .01-.01.02-.01s.02-.01.03-.01c.01 0 .01-.01.02-.01s.02-.01.03-.01c.01 0 .02-.01.02-.01.01 0 .02-.01.02-.01.01 0 .02-.01.03-.01.01 0 .01 0 .02-.01.01 0 .02-.01.03-.01h.02c.01 0 .02 0 .03-.01h.1zm14.82 16.88l-2.66-2.86-11.26 2.2c-.08.02-.16.03-.24.03v.63h14.16zm-3.18-3.43l-2.02-2.17-8.95 1.43v2.88l10.97-2.14zm-2.55-2.74l-2.6-2.8-5.82.93v3.21l8.42-1.34zm-3.13-3.36l-2.16-2.32-3.13.5v2.67l5.29-.85zm-2.69-2.89l-2.61-2.8v3.22l2.61-.42zm-3.84 12.42v-.67l-11.41-2.23-2.69 2.89h14.1zm0-1.34v-2.86l-8.8-1.41c-.03 0-.05-.01-.07-.02l-2.01 2.16 10.88 2.13zm0-3.51v-3.19l-5.77-.92-2.58 2.78 8.35 1.33zm0-3.84v-2.58l-3.15-.51-2.09 2.24 5.24.85zm0-3.23v-3.25l-2.63 2.83 2.63.42z" id="XMLID_124_"/><path class="st0" d="M0 189.21h1399.87V202H0z"/><path class="st0" d="M603.49 187.29h65.59v1.99h-65.59zm63.15-2.37h-2.65c-2.67-9.55-10.3-17.08-20-19.73 4.64 3.83 8.17 11.01 9.56 19.73h-1.5c-1.82-11.39-7.64-19.9-14.69-20.7v20.7h-2.18v-20.7c-7.04.81-12.87 9.31-14.68 20.7H619c1.39-8.72 4.92-15.9 9.56-19.73-9.69 2.65-17.32 10.18-20 19.73h-2.65c3.67-13.12 15.87-22.75 30.37-22.75s26.69 9.64 30.36 22.75z" id="XMLID_115_"/><g id="XMLID_119_"><path class="st0" d="M388.1 142.78v49.35h-32.96l-1.49-8.03 1.49-19.44.45-5.5 17.13-3.64-.62-.92-16.51 3.52v-3.92l17.13-3.65-.62-.92-16.51 3.52v-4.08l17.13-3.65-.62-.92-16.51 3.52v-3.81l16.72-4.11z"/><path class="st0" d="M364.39 163.56v28.57h-21.48v-22.98l10.04-5.59h11.44zm-1.9 26.72v-24.73h-7.36v24.73h7.36z"/></g><path class="st0" d="M444.02 196.41v-24.98a.6.6 0 00-.6-.59c-.33 0-.6.26-.6.59v24.98h-2.04v-24.07a.6.6 0 00-.6-.59c-.33 0-.6.26-.6.59v24.07h-1.74v-23.07c0-.33-.27-.59-.6-.59-.33 0-.6.26-.6.59v23.07h-1.98v-25.22l14.73-7.63 12.05 6.38v26.46h-17.42z"/><g id="XMLID_149_"><path class="st0" d="M565.58 162.54h32.04v.85h-32.04zm22.12 22.87v-10.15c0-2.49-2.73-4.51-6.1-4.51-3.37 0-6.1 2.02-6.1 4.51v10.15h-8.12v-16.53h28.45v16.53h-8.13zm-22.12-17.98h32.04v.85h-32.04zm1.8-3.43h28.45v2.7h-28.45zm22.67-2.47h-.73c-.89-4.84-3.73-8.46-7.17-8.8v8.8h-1.07v-8.8c-3.44.34-6.29 3.96-7.17 8.8h-.73c.68-3.71 2.41-6.75 4.67-8.38-4.73 1.13-8.46 4.33-9.77 8.38h-1.29c1.8-5.57 7.75-9.67 14.83-9.67s13.04 4.09 14.83 9.67h-1.29c-1.31-4.06-5.04-7.26-9.77-8.38 2.25 1.63 3.98 4.68 4.66 8.38zm-21.11 24.2h25.32c2.08 0 3.77 1.25 3.77 2.79v.87h-32.87v-.87c.01-1.54 1.7-2.79 3.78-2.79z"/><path class="st0" d="M597.63 167.43h-32.04v.85h-.6v-4.89h32.64v-.85h.52v4.89h-.52zm-30.25-.72h28.45V164h-28.45v2.71z"/></g><path class="st0" d="M199.51 152.46v44.33h-22.85v-44.33h22.85z" id="XMLID_117_"/><g id="XMLID_1_"><path class="st0" d="M178.33 128.45v68.24h-9.09v-40.63h-13.08v-4.95l11.68-5.05-.42-1.27-11.26 4.87v-5.42l11.68-5.05-.42-1.27-11.26 4.87v-5.64l11.68-5.05-.42-1.27-11.26 4.87v-5.28l11.4-5.67z"/><path class="st0" d="M172.09 141.19l-.63 55.51h-25.32v-31.78l10.85-15.98 15.1-7.75z"/></g><path class="st0" d="M251.79 163.14v30.72h-22.85v-30.72h22.85z" id="XMLID_2_"/><path class="st0" d="M33.22 125.75v70.29H16.49v-70.29h16.73z" id="XMLID_5_"/><g id="XMLID_4_"><path class="st0" d="M16.98 143.74v52.23h-6.65v-31.1H.76v-3.79l8.55-3.86-.31-.97-8.24 3.73v-4.15l8.55-3.86-.31-.98-8.24 3.73v-4.32l8.55-3.86-.31-.97-8.24 3.72v-4.03l8.34-4.34z"/><path class="st0" d="M12.42 153.49l-.46 42.47H-6.58v-24.32l7.94-12.23 11.06-5.92z"/></g><path class="st0" d="M42.34 181.59v-25.74l18.62-14.5 11.46 5.34v48.06l-6.04.49-21.26-.49-2.78-13.16z"/><path class="st0" d="M47.31 135.82v60.22H30.58v-60.22h16.73z" id="XMLID_3_"/></svg>