<svg xmlns="http://www.w3.org/2000/svg" viewBox="0 0 276.55 37.75"><g id="Слой_1" data-name="Слой 1"><path d="M1166.78 301.8a9.1 9.1 0 00-3-3.25 26.85 26.85 0 00-6.09-2.93 29.28 29.28 0 01-5-2.23 6.7 6.7 0 01-2.31-2.16 5.82 5.82 0 01-.71-3 4.68 4.68 0 011.84-3.94 8.21 8.21 0 015.11-1.4 23 23 0 018.78 1.95l1.43-4a24.54 24.54 0 00-10.11-2.06 13.29 13.29 0 00-8.48 2.54 8.21 8.21 0 00-3.23 6.82 9.59 9.59 0 002.18 6.51c1.45 1.68 3.89 3.15 7.27 4.38a34.76 34.76 0 015.37 2.33 7.28 7.28 0 012.51 2.21 5.56 5.56 0 01.75 3 5.16 5.16 0 01-2.08 4.34q-2.08 1.57-6.2 1.57a26.1 26.1 0 01-5.18-.56 26.6 26.6 0 01-5.1-1.59v4.41q3.55 1.73 10.07 1.73 6.17 0 9.64-2.76a9.16 9.16 0 003.46-7.56 9.31 9.31 0 00-.92-4.35zm23.12 6.82q-3.29-3.85-3.28-10.95c0-4.59 1.13-8.19 3.38-10.84a11.62 11.62 0 019.32-4 20 20 0 018.32 2l1.86-3.91a22.4 22.4 0 00-10.14-2.16 18.57 18.57 0 00-9.41 2.31 14.88 14.88 0 00-6.09 6.58 22.19 22.19 0 00-2.1 9.92q0 9 4.37 14t12.48 4.92a36.1 36.1 0 005-.31 23.36 23.36 0 004.49-1.17v-4a31.33 31.33 0 01-8.81 1.45q-6.1.02-9.39-3.84zm48.1-29.44h-4.17L1219.55 316h4.67l4.36-11.36h14.55l4.41 11.36h4.8zm-7.91 21.38l4.17-11.12q.83-2.48 1.57-5.49l1.76 5.49 4.11 11.12zm40.37 11.34v-32.57h-4.61V316h20.64v-4.1zm51.28-28.5v-4.07h-20.49V316h20.49v-4h-15.88v-13.1h15v-4h-15v-11.5zm44.11.37q-4.44-5-12.41-5-8.21 0-12.61 4.92t-4.4 13.89q0 9 4.42 14t12.53 4.95q8 0 12.45-5t4.45-13.85q.01-8.92-4.43-13.91zm-3.51 25q-3.07 3.75-9 3.75c-3.94 0-7-1.26-9-3.81s-3.08-6.24-3.08-11.09 1-8.5 3.08-11 5.08-3.78 9.06-3.78 6.9 1.24 8.93 3.72 3 6.17 3 11.07-.94 8.62-2.98 11.13z" transform="translate(-1144.56 -278.77)" fill="#f7a5a4"/><path d="M254.39 18.91l-14.38 18.83h-5.08l14.37-18.83L234.87 0h5.09l14.43 18.91zm7.73 0l14.37 18.83h-5.08l-14.38-18.83L271.46 0h5.09l-14.43 18.91z" fill="#d76f6e"/></g></svg>