<?xml version="1.0" encoding="utf-8"?>
<!-- Generator: Adobe Illustrator 23.1.0, SVG Export Plug-In . SVG Version: 6.00 Build 0)  -->
<svg version="1.1" id="Слой_1" xmlns="http://www.w3.org/2000/svg" xmlns:xlink="http://www.w3.org/1999/xlink" x="0px" y="0px"
	 viewBox="0 0 65.5 65.5" style="enable-background:new 0 0 65.5 65.5;" xml:space="preserve">
<g fill="#697276">
	<g>
		<path d="M35.75,9.5h-20C13.68,9.5,12,7.82,12,5.75v-5C12,0.34,12.34,0,12.75,0h26c0.41,0,0.75,0.34,0.75,0.75v5
			C39.5,7.82,37.82,9.5,35.75,9.5z M13.5,1.5v4.25C13.5,6.99,14.51,8,15.75,8h20C36.99,8,38,6.99,38,5.75V1.5H13.5z"/>
	</g>
	<g>
		<path d="M10.75,21.5h-4C5.79,21.5,5,20.72,5,19.75v-4C5,14.79,5.79,14,6.75,14h4c0.96,0,1.75,0.79,1.75,1.75v4
			C12.5,20.72,11.72,21.5,10.75,21.5z M6.75,15.5c-0.14,0-0.25,0.11-0.25,0.25v4C6.5,19.89,6.61,20,6.75,20h4
			c0.14,0,0.25-0.11,0.25-0.25v-4c0-0.14-0.11-0.25-0.25-0.25H6.75z"/>
	</g>
	<g>
		<path d="M10.75,33.5h-4C5.79,33.5,5,32.72,5,31.75v-4C5,26.79,5.79,26,6.75,26h4c0.96,0,1.75,0.79,1.75,1.75v4
			C12.5,32.72,11.72,33.5,10.75,33.5z M6.75,27.5c-0.14,0-0.25,0.11-0.25,0.25v4C6.5,31.89,6.61,32,6.75,32h4
			c0.14,0,0.25-0.11,0.25-0.25v-4c0-0.14-0.11-0.25-0.25-0.25H6.75z"/>
	</g>
	<g>
		<path d="M10.75,45.51h-4C5.79,45.51,5,44.72,5,43.76v-4c0-0.96,0.79-1.75,1.75-1.75h4c0.96,0,1.75,0.79,1.75,1.75v4
			C12.5,44.72,11.72,45.51,10.75,45.51z M6.75,39.51c-0.14,0-0.25,0.11-0.25,0.25v4c0,0.14,0.11,0.25,0.25,0.25h4
			c0.14,0,0.25-0.11,0.25-0.25v-4c0-0.14-0.11-0.25-0.25-0.25H6.75z"/>
	</g>
	<g>
		<path d="M10.75,57.51h-4C5.79,57.51,5,56.72,5,55.76v-4c0-0.96,0.79-1.75,1.75-1.75h4c0.96,0,1.75,0.79,1.75,1.75v4
			C12.5,56.72,11.72,57.51,10.75,57.51z M6.75,51.51c-0.14,0-0.25,0.11-0.25,0.25v4c0,0.14,0.11,0.25,0.25,0.25h4
			c0.14,0,0.25-0.11,0.25-0.25v-4c0-0.14-0.11-0.25-0.25-0.25H6.75z"/>
	</g>
	<g>
		<path d="M20.35,16.5h-4.6c-0.41,0-0.75-0.34-0.75-0.75c0-0.41,0.34-0.75,0.75-0.75h4.6c0.41,0,0.75,0.34,0.75,0.75
			C21.1,16.17,20.76,16.5,20.35,16.5z"/>
	</g>
	<g>
		<path d="M27.75,20.5h-12c-0.41,0-0.75-0.34-0.75-0.75c0-0.41,0.34-0.75,0.75-0.75h12c0.41,0,0.75,0.34,0.75,0.75
			C28.5,20.17,28.16,20.5,27.75,20.5z"/>
	</g>
	<g>
		<path d="M22.75,28.5h-7c-0.41,0-0.75-0.34-0.75-0.75c0-0.41,0.34-0.75,0.75-0.75h7c0.41,0,0.75,0.34,0.75,0.75
			C23.5,28.17,23.16,28.5,22.75,28.5z"/>
	</g>
	<g>
		<path d="M21.75,32.5h-6c-0.41,0-0.75-0.34-0.75-0.75c0-0.41,0.34-0.75,0.75-0.75h6c0.41,0,0.75,0.34,0.75,0.75
			C22.5,32.17,22.16,32.5,21.75,32.5z"/>
	</g>
	<g>
		<path d="M21.75,40.51h-6c-0.41,0-0.75-0.34-0.75-0.75c0-0.41,0.34-0.75,0.75-0.75h6c0.41,0,0.75,0.34,0.75,0.75
			C22.5,40.17,22.16,40.51,21.75,40.51z"/>
	</g>
	<g>
		<path d="M22.75,44.51h-7c-0.41,0-0.75-0.34-0.75-0.75c0-0.41,0.34-0.75,0.75-0.75h7c0.41,0,0.75,0.34,0.75,0.75
			C23.5,44.17,23.16,44.51,22.75,44.51z"/>
	</g>
	<g>
		<path d="M27.75,52.51h-12c-0.41,0-0.75-0.34-0.75-0.75c0-0.41,0.34-0.75,0.75-0.75h12c0.41,0,0.75,0.34,0.75,0.75
			C28.5,52.17,28.16,52.51,27.75,52.51z"/>
	</g>
	<g>
		<path d="M22.75,56.51h-7c-0.41,0-0.75-0.34-0.75-0.75c0-0.41,0.34-0.75,0.75-0.75h7c0.41,0,0.75,0.34,0.75,0.75
			C23.5,56.17,23.16,56.51,22.75,56.51z"/>
	</g>
	<path d="M50,55.03v6.72c0,1.24-1.01,2.25-2.25,2.25h-44c-1.24,0-2.25-1.01-2.25-2.25v-58c0-1.24,1.01-2.25,2.25-2.25h44
		C48.99,1.5,50,2.51,50,3.75v12.72c0.51,0.14,1.01,0.3,1.5,0.47V3.75C51.5,1.69,49.82,0,47.75,0h-44C1.68,0,0,1.69,0,3.75v58
		c0,2.07,1.68,3.75,3.75,3.75h44c2.07,0,3.75-1.68,3.75-3.75v-7.19C51.01,54.74,50.51,54.9,50,55.03z"/>
	<g>
		<path d="M44.75,56.5C33.31,56.5,24,47.19,24,35.75S33.31,15,44.75,15S65.5,24.31,65.5,35.75S56.19,56.5,44.75,56.5z M44.75,16.5
			c-10.61,0-19.25,8.64-19.25,19.25C25.5,46.37,34.14,55,44.75,55C55.37,55,64,46.37,64,35.75C64,25.14,55.37,16.5,44.75,16.5z"/>
	</g>
	<g>
		<path d="M44.75,48.5C37.72,48.5,32,42.78,32,35.75c0-5.18,3.1-9.81,7.89-11.79c0.39-0.15,0.82,0.02,0.98,0.41
			c0.16,0.38-0.02,0.82-0.41,0.98c-4.23,1.75-6.96,5.83-6.96,10.4c0,6.2,5.05,11.25,11.25,11.25S56,41.96,56,35.75
			c0-0.41,0.34-0.75,0.75-0.75c0.41,0,0.75,0.34,0.75,0.75C57.5,42.78,51.78,48.5,44.75,48.5z"/>
	</g>
	<g>
		<polygon points="40.21,26.73 42.87,23.9 39.09,23 		"/>
	</g>
	<g>
		<path d="M44.75,33.25c0.26,0,0.51,0.05,0.75,0.13v-9.63c0-0.41-0.34-0.75-0.75-0.75C44.34,23,44,23.34,44,23.75v9.63
			C44.24,33.31,44.49,33.25,44.75,33.25z"/>
		<path d="M53.75,35h-6.63c0.08,0.24,0.13,0.49,0.13,0.75c0,0.26-0.05,0.51-0.13,0.75h6.63c0.41,0,0.75-0.34,0.75-0.75
			C54.5,35.34,54.16,35,53.75,35z"/>
	</g>
	<g>
		<path d="M44.75,39c-1.79,0-3.25-1.46-3.25-3.25c0-1.79,1.46-3.25,3.25-3.25S48,33.96,48,35.75C48,37.55,46.54,39,44.75,39z
			 M44.75,34C43.79,34,43,34.79,43,35.75c0,0.96,0.79,1.75,1.75,1.75c0.96,0,1.75-0.79,1.75-1.75C46.5,34.79,45.71,34,44.75,34z"/>
	</g>
</g>
</svg>
