<?xml version="1.0" encoding="utf-8"?>
<!-- Generator: Adobe Illustrator 23.1.0, SVG Export Plug-In . SVG Version: 6.00 Build 0)  -->
<svg version="1.1" id="Слой_1" xmlns="http://www.w3.org/2000/svg" xmlns:xlink="http://www.w3.org/1999/xlink" x="0px" y="0px"
	 viewBox="0 0 306.24 306.28" style="enable-background:new 0 0 306.24 306.28;" xml:space="preserve">
<style type="text/css">
	.st0{fill:#b0bec5;}
</style>
<g>
	<g>
		<path class="st0" d="M131.01,262.02C58.77,262.02,0,203.25,0,131.01C0,58.77,58.77,0,131.01,0c72.24,0,131,58.77,131,131.01
			C262.02,203.25,203.25,262.02,131.01,262.02z M131.01,7.47C62.89,7.47,7.47,62.89,7.47,131.01c0,68.12,55.42,123.54,123.54,123.54
			c68.12,0,123.53-55.42,123.53-123.54C254.55,62.89,199.13,7.47,131.01,7.47z"/>
	</g>
	<g>
		<path class="st0" d="M278.26,306.28c-5.78,0-11.2-2.24-15.26-6.3l-61.92-61.91c-1.46-1.46-1.46-3.82,0-5.28s3.82-1.46,5.28,0
			l61.92,61.91c2.65,2.65,6.19,4.11,9.98,4.11c3.7,0,7.31-1.5,9.91-4.11l6.53-6.53c5.43-5.48,5.43-14.41-0.01-19.91l-61.91-61.91
			c-1.46-1.46-1.46-3.82,0-5.28c1.46-1.46,3.82-1.46,5.28,0L299.99,263c8.33,8.4,8.33,22.06,0.01,30.45l-6.54,6.54
			C289.47,303.99,283.93,306.28,278.26,306.28z"/>
	</g>
	<g>
		<path class="st0" d="M225.85,261.3c-0.96,0-1.91-0.36-2.64-1.09c-1.46-1.46-1.46-3.82,0-5.28l31.71-31.71
			c1.46-1.46,3.82-1.46,5.28,0c1.46,1.46,1.46,3.82,0,5.28l-31.71,31.71C227.76,260.93,226.81,261.3,225.85,261.3z"/>
	</g>
	<g>
		<path class="st0" d="M131.01,206.68c-23.42,0-42.47-26.5-42.47-59.07c0-32.57,19.05-59.07,42.47-59.07
			c23.42,0,42.47,26.5,42.47,59.07C173.48,180.18,154.43,206.68,131.01,206.68z M131.01,96.01c-19.3,0-35,23.15-35,51.6
			c0,28.45,15.7,51.6,35,51.6c19.3,0,35-23.15,35-51.6C166.01,119.16,150.31,96.01,131.01,96.01z"/>
	</g>
	<g>
		<path class="st0" d="M147.61,101.41c-2.06,0-3.73-1.67-3.73-3.74V81.2c0-7.09-5.77-12.86-12.87-12.86
			c-7.09,0-12.87,5.77-12.87,12.86v16.45c0,2.06-1.67,3.73-3.73,3.73c-2.06,0-3.73-1.67-3.73-3.73V81.2
			c0-11.21,9.12-20.33,20.34-20.33c11.21,0,20.34,9.12,20.34,20.33v16.47C151.35,99.73,149.67,101.41,147.61,101.41z"/>
	</g>
	<g>
		<path class="st0" d="M202.94,145.81h-33.42c-2.06,0-3.74-1.67-3.74-3.74c0-2.06,1.67-3.73,3.74-3.73h33.42
			c2.06,0,3.73,1.67,3.73,3.73C206.68,144.14,205.01,145.81,202.94,145.81z"/>
	</g>
	<g>
		<path class="st0" d="M92.49,145.81H59.07c-2.06,0-3.73-1.67-3.73-3.74c0-2.06,1.67-3.73,3.73-3.73h33.42
			c2.06,0,3.73,1.67,3.73,3.73C96.23,144.14,94.56,145.81,92.49,145.81z"/>
	</g>
	<g>
		<path class="st0" d="M161.89,118.04c-1.29,0-2.54-0.67-3.23-1.86c-1.03-1.79-0.43-4.07,1.36-5.11l14.6-8.47
			c1.83-1.03,3.07-2.78,3.54-4.97l4.52-22.69c0.4-2.02,2.38-3.33,4.39-2.93c2.02,0.4,3.34,2.37,2.93,4.39l-4.53,22.75
			c-0.92,4.3-3.52,7.91-7.16,9.95l-14.56,8.44C163.17,117.87,162.53,118.04,161.89,118.04z"/>
	</g>
	<g>
		<path class="st0" d="M100.13,118.04c-0.64,0-1.28-0.16-1.87-0.5l-14.6-8.47c-3.59-2.01-6.2-5.62-7.1-9.87L72.01,76.4
			c-0.4-2.02,0.91-3.99,2.93-4.39c2.01-0.4,3.99,0.91,4.39,2.93l4.53,22.75c0.45,2.1,1.72,3.9,3.48,4.89l14.65,8.49
			c1.78,1.03,2.39,3.32,1.36,5.11C102.67,117.37,101.41,118.04,100.13,118.04z"/>
	</g>
	<g>
		<path class="st0" d="M191.88,217.75c-1.74,0-3.3-1.23-3.66-3.01L183.68,192c-0.45-2.1-1.72-3.9-3.48-4.88L163,178.2
			c-1.83-0.95-2.55-3.2-1.6-5.03c0.95-1.83,3.21-2.54,5.03-1.6l17.32,8.97c3.74,2.1,6.35,5.7,7.25,9.95l4.54,22.8
			c0.4,2.02-0.91,3.99-2.93,4.39C192.36,217.73,192.12,217.75,191.88,217.75z"/>
	</g>
	<g>
		<path class="st0" d="M70.14,217.75c-0.24,0-0.49-0.02-0.73-0.07c-2.02-0.4-3.34-2.37-2.93-4.39l4.54-22.75
			c0.91-4.29,3.52-7.9,7.15-9.94l17.43-9.03c1.82-0.95,4.08-0.23,5.03,1.6c0.95,1.83,0.23,4.09-1.6,5.03l-17.32,8.97
			c-1.65,0.93-2.93,2.73-3.38,4.87l-4.53,22.7C73.45,216.52,71.89,217.75,70.14,217.75z"/>
	</g>
	<g>
		<path class="st0" d="M142.28,72.8c-0.4,0-0.81-0.07-1.21-0.2c-1.95-0.67-2.99-2.79-2.32-4.75l2.43-7.08
			c2.08-6.06,5.58-11.65,10.11-16.18l4.75-4.75c1.46-1.46,3.82-1.46,5.28,0c1.46,1.46,1.46,3.82,0,5.28l-4.75,4.75
			c-3.73,3.73-6.61,8.34-8.32,13.33l-2.43,7.08C145.28,71.82,143.83,72.8,142.28,72.8z"/>
	</g>
	<g>
		<path class="st0" d="M119.74,72.8c-1.55,0-3-0.97-3.53-2.52l-2.43-7.08c-1.71-4.99-4.59-9.59-8.32-13.32l-4.75-4.75
			c-1.46-1.46-1.46-3.82,0-5.28c1.46-1.46,3.82-1.46,5.28,0l4.75,4.76c4.53,4.53,8.02,10.12,10.1,16.17l2.43,7.09
			c0.67,1.95-0.37,4.08-2.32,4.75C120.56,72.73,120.15,72.8,119.74,72.8z"/>
	</g>
	<g>
		<path class="st0" d="M131.01,206.68c-2.06,0-3.73-1.67-3.73-3.73V92.27c0-2.06,1.67-3.73,3.73-3.73c2.06,0,3.74,1.67,3.74,3.73
			v110.67C134.74,205.01,133.07,206.68,131.01,206.68z"/>
	</g>
</g>
</svg>
