<svg height="512" viewBox="0 0 60 60" width="512" xmlns="http://www.w3.org/2000/svg"><g id="Page-1" fill="none" fill-rule="evenodd"><g id="037---Cloud-Data" fill="#b0bec5" fill-rule="nonzero" transform="translate(-1)"><path id="Shape" d="m51.2 12.176c-1.2537871-6.93694064-7.2221866-12.02952878-14.27-12.176-4.755562.01501298-9.1925213 2.39316023-11.838 6.345-.8053845-.17650413-1.6275015-.26535446-2.452-.265-5.6616184.11650521-10.4832538 4.1483899-11.6 9.7-5.74674863.4803658-10.1369042 5.3340239-10.04 11.1-.07171486 4.9812051 3.20847679 9.3906027 8 10.754v17.366c.00330612 2.7600532 2.2399468 4.9966939 5 5h34c2.7600532-.0033061 4.9966939-2.2399468 5-5v-17.9c4.8999821-2.0444169 8.0662077-6.8610376 8-12.17.104257-6.0155037-3.9605501-11.3055598-9.8-12.754zm-32.2 45.824c-.5522847 0-1-.4477153-1-1v-18c0-.5522847.4477153-1 1-1h24c.5522847 0 1 .4477153 1 1v18c0 .5522847-.4477153 1-1 1zm32-3c0 1.6568542-1.3431458 3-3 3h-2.184c.1184378-.320257.1806856-.6585603.184-1v-18c0-1.6568542-1.3431458-3-3-3h-24c-1.6568542 0-3 1.3431458-3 3v18c.0033144.3414397.0655622.679743.184 1h-2.184c-1.6568542 0-3-1.3431458-3-3v-23h13c.5522847 0 1-.4477153 1-1s-.4477153-1-1-1h-13v-3c0-.5522847.4477153-1 1-1h12c2.4840234.0077365 4.5887158 1.831378 4.95 4.289.1430898.9798909.9817229 1.7075284 1.972 1.711h19.078c.5522847 0 1 .4477153 1 1zm-14-40c-1.1045695 0-2-.8954305-2-2s.8954305-2 2-2 2 .8954305 2 2-.8954305 2-2 2zm16 19.907v-1.907c0-1.6568542-1.3431458-3-3-3h-6.152l2.777-2.222c.2363172-.1892035.3742046-.4752739.375-.778v-4.142c1.9503067-.503567 3.2219252-2.3787867 2.9681188-4.3770005s-1.9538507-3.4959828-3.9681188-3.4959828-3.7143124 1.497769-3.9681188 3.4959828 1.0178121 3.8734335 2.9681188 4.3770005v3.662l-4.356 3.48h-2.644v-13.142c1.9503067-.503567 3.2219252-2.3787867 2.9681188-4.3770005s-1.9538507-3.49598285-3.9681188-3.49598285-3.7143124 1.49776905-3.9681188 3.49598285 1.0178121 3.8734335 2.9681188 4.3770005v13.148h-5.069c-.5073788-3.4404216-3.4533899-5.9932629-6.931-6.006h-12c-1.6568542 0-3 1.3431458-3 3v8.541c-3.6474407-1.3054311-6.05964399-4.7874465-6-8.661-.113007-4.9120546 3.76836112-8.9901741 8.68-9.12h.2c.4967704-.000359.9179619-.3653349.989-.857.6351568-4.9483583 4.7837025-8.69440454 9.771-8.823.886808-.00079966 1.7692523.12410948 2.621.371.4321596.12574912.8950766-.05270518 1.131-.436 2.2189525-3.71001793 6.2151067-5.99098844 10.538-6.015 6.3225054.15534778 11.5895272 4.89316354 12.411 11.164.0621532.4286268.3931685.7685231.82.842 5.2176072.9960092 8.9537168 5.6134163 8.839 10.924.0519352 4.1938773-2.2711688 8.056812-6 9.977zm-7-13.907c-1.1045695 0-2-.8954305-2-2s.8954305-2 2-2 2 .8954305 2 2-.8954305 2-2 2z"/><path id="Shape" d="m21 44h14c.5522847 0 1-.4477153 1-1s-.4477153-1-1-1h-14c-.5522847 0-1 .4477153-1 1s.4477153 1 1 1z"/><path id="Shape" d="m41 42h-2c-.5522847 0-1 .4477153-1 1s.4477153 1 1 1h2c.5522847 0 1-.4477153 1-1s-.4477153-1-1-1z"/><path id="Shape" d="m41 47h-20c-.5522847 0-1 .4477153-1 1s.4477153 1 1 1h20c.5522847 0 1-.4477153 1-1s-.4477153-1-1-1z"/><path id="Shape" d="m24 52h-3c-.5522847 0-1 .4477153-1 1s.4477153 1 1 1h3c.5522847 0 1-.4477153 1-1s-.4477153-1-1-1z"/><path id="Shape" d="m41 52h-13c-.5522847 0-1 .4477153-1 1s.4477153 1 1 1h13c.5522847 0 1-.4477153 1-1s-.4477153-1-1-1z"/></g></g></svg>
