<?xml version="1.0" encoding="utf-8"?>
<!-- Generator: Adobe Illustrator 23.1.0, SVG Export Plug-In . SVG Version: 6.00 Build 0)  -->
<svg version="1.1" id="Слой_1" xmlns="http://www.w3.org/2000/svg" xmlns:xlink="http://www.w3.org/1999/xlink" x="0px" y="0px"
	 viewBox="0 0 68 65.66" style="enable-background:new 0 0 68 65.66;" xml:space="preserve">
<g fill="#697276">
	<g>
		<path d="M20.12,41.38C9.03,41.38,0,32.12,0,20.74C0,9.36,9.03,0.1,20.12,0.1c11.09,0,20.12,9.26,20.12,20.64
			C40.24,32.12,31.22,41.38,20.12,41.38z M20.12,1.53c-10.33,0-18.73,8.62-18.73,19.22c0,10.6,8.4,19.22,18.73,19.22
			s18.73-8.62,18.73-19.22C38.85,10.15,30.45,1.53,20.12,1.53z"/>
	</g>
	<g>
		<path d="M6.55,20.74c0-0.25,0.05-0.49,0.12-0.71H0.69C0.31,20.03,0,20.35,0,20.74s0.31,0.71,0.69,0.71h5.98
			C6.6,21.23,6.55,20.99,6.55,20.74z"/>
		<path d="M39.55,20.03H11.06c0.07,0.23,0.12,0.46,0.12,0.71c0,0.25-0.05,0.49-0.12,0.71h28.49c0.38,0,0.69-0.32,0.69-0.71
			S39.93,20.03,39.55,20.03z"/>
	</g>
	<g>
		<path d="M8.87,23.83c-1.66,0-3.01-1.38-3.01-3.08c0-1.7,1.35-3.08,3.01-3.08s3.01,1.38,3.01,3.08
			C11.87,22.44,10.52,23.83,8.87,23.83z M8.87,19.08c-0.89,0-1.62,0.75-1.62,1.66c0,0.92,0.73,1.66,1.62,1.66
			c0.89,0,1.62-0.75,1.62-1.66C10.48,19.83,9.76,19.08,8.87,19.08z"/>
	</g>
	<g>
		<path d="M17.81,12.49c0-0.3,0.06-0.58,0.16-0.85C13.78,11.15,9.9,9.25,6.87,6.15c-0.27-0.28-0.71-0.28-0.98,0
			c-0.27,0.28-0.27,0.73,0,1.01c3.27,3.35,7.46,5.4,11.99,5.91C17.84,12.88,17.81,12.69,17.81,12.49z"/>
		<path d="M34.35,6.15c-0.27-0.28-0.71-0.28-0.98,0c-3.03,3.1-6.91,5-11.09,5.49c0.1,0.26,0.16,0.55,0.16,0.85
			c0,0.2-0.03,0.39-0.08,0.58c4.53-0.51,8.72-2.56,11.99-5.91C34.62,6.88,34.62,6.43,34.35,6.15z"/>
	</g>
	<g>
		<path d="M20.12,15.57c-1.66,0-3.01-1.38-3.01-3.08s1.35-3.08,3.01-3.08c1.66,0,3.01,1.38,3.01,3.08S21.78,15.57,20.12,15.57z
			 M20.12,10.83c-0.89,0-1.62,0.75-1.62,1.66c0,0.92,0.73,1.66,1.62,1.66c0.89,0,1.62-0.75,1.62-1.66
			C21.74,11.57,21.01,10.83,20.12,10.83z"/>
	</g>
	<g>
		<path d="M29.77,30.81c-2.93-1.65-6.22-2.53-9.65-2.53c0,0-0.01,0-0.01,0c-5.37,0-10.42,2.15-14.22,6.04
			c-0.27,0.28-0.27,0.73,0,1.01c0.27,0.28,0.71,0.28,0.98,0c3.54-3.63,8.24-5.63,13.24-5.63c0,0,0.01,0,0.01,0
			c3.16,0,6.19,0.8,8.9,2.3C29.15,31.54,29.42,31.13,29.77,30.81z"/>
		<path d="M34.35,34.33c-0.21-0.22-0.44-0.41-0.66-0.61c-0.2,0.44-0.52,0.81-0.92,1.07c0.2,0.19,0.4,0.36,0.6,0.55
			c0.14,0.14,0.31,0.21,0.49,0.21s0.36-0.07,0.49-0.21C34.62,35.06,34.62,34.61,34.35,34.33z"/>
	</g>
	<g>
		<path d="M31.42,35.94c-1.79,0-3.25-1.46-3.25-3.25s1.46-3.25,3.25-3.25s3.25,1.46,3.25,3.25S33.21,35.94,31.42,35.94z
			 M31.42,30.94c-0.96,0-1.75,0.79-1.75,1.75c0,0.96,0.79,1.75,1.75,1.75c0.96,0,1.75-0.79,1.75-1.75
			C33.17,31.72,32.38,30.94,31.42,30.94z"/>
	</g>
	<g>
		<path d="M59.1,23.92L59.1,23.92c-0.2,0-0.39-0.08-0.53-0.22l-7.14-7.14c-0.21-0.21-0.28-0.54-0.16-0.82
			c0.12-0.28,0.39-0.46,0.69-0.46h3.12C53.65,5.48,39.7,1.51,39.56,1.47c-0.36-0.1-0.59-0.45-0.54-0.82C39.06,0.28,39.38,0,39.75,0
			c8.97,0,15.53,2.16,19.49,6.41c3.2,3.44,3.73,7.24,3.8,8.87h3.2c0.3,0,0.58,0.18,0.69,0.46c0.12,0.28,0.05,0.6-0.16,0.82
			l-7.14,7.14C59.49,23.84,59.3,23.92,59.1,23.92z M53.77,16.77l5.33,5.33l5.33-5.33h-2.14c-0.21,0-0.41-0.09-0.55-0.24
			c-0.14-0.15-0.21-0.36-0.2-0.56c0-0.05,0.26-4.63-3.42-8.57c-2.96-3.16-7.55-5.06-13.68-5.68c4.77,2.19,11.67,6.65,12.22,14.25
			c0.01,0.21-0.06,0.41-0.2,0.56c-0.14,0.15-0.34,0.24-0.55,0.24H53.77z"/>
	</g>
	<g>
		<path d="M27.73,65.5c-8.97,0-15.53-2.16-19.49-6.41c-3.2-3.44-3.73-7.24-3.8-8.87h-3.2c-0.3,0-0.58-0.18-0.69-0.46
			c-0.12-0.28-0.05-0.6,0.16-0.82l7.14-7.14c0.28-0.28,0.78-0.28,1.06,0l7.14,7.14c0.21,0.21,0.28,0.54,0.16,0.82
			c-0.12,0.28-0.39,0.46-0.69,0.46h-3.12c1.42,9.79,15.38,13.76,15.52,13.8c0.36,0.1,0.59,0.45,0.54,0.82
			C28.42,65.22,28.1,65.5,27.73,65.5z M3.05,48.73h2.14c0.21,0,0.41,0.09,0.55,0.24c0.14,0.15,0.21,0.36,0.2,0.56
			c0,0.05-0.26,4.63,3.42,8.57c2.96,3.16,7.55,5.06,13.68,5.68c-4.77-2.19-11.67-6.65-12.22-14.25c-0.01-0.21,0.06-0.41,0.2-0.56
			c0.14-0.15,0.34-0.24,0.55-0.24h2.14L8.38,43.4L3.05,48.73z"/>
	</g>
	<g>
		<path d="M48.58,65.73c-10.74,0-19.49-8.52-19.49-19s8.74-19,19.49-19c10.74,0,19.49,8.52,19.49,19S59.33,65.73,48.58,65.73z
			 M48.58,29.04c-10,0-18.14,7.94-18.14,17.69s8.14,17.69,18.14,17.69c10,0,18.14-7.94,18.14-17.69S58.59,29.04,48.58,29.04z"/>
	</g>
	<g>
		<path d="M48.58,51.55c-4.79,0-8.68-4.56-8.68-10.17c0-5.19,3.49-8.68,8.68-8.68c5.19,0,8.68,3.49,8.68,8.68
			C57.26,46.99,53.37,51.55,48.58,51.55z M48.58,34.01c-4.46,0-7.34,2.89-7.34,7.37c0,4.89,3.29,8.86,7.34,8.86
			c4.05,0,7.34-3.97,7.34-8.86C55.92,36.9,53.04,34.01,48.58,34.01z"/>
	</g>
	<g>
		<path d="M48.58,51.55c-4.79,0-8.68-4.56-8.68-10.17c0-0.97,0.12-1.91,0.36-2.77c0.06-0.23,0.25-0.4,0.48-0.46
			c1.79-0.44,4.64-0.71,8.06,0.52l0,0c2.82,1.01,5.61,0.67,7.45,0.21c0.18-0.05,0.37-0.02,0.53,0.08c0.16,0.1,0.27,0.25,0.3,0.43
			c0.12,0.63,0.18,1.3,0.18,2C57.26,46.99,53.37,51.55,48.58,51.55z M41.46,39.33c-0.15,0.65-0.22,1.34-0.22,2.05
			c0,4.89,3.29,8.86,7.34,8.86c4.05,0,7.34-3.97,7.34-8.86c0-0.37-0.02-0.73-0.06-1.08c-2,0.41-4.74,0.59-7.52-0.41l0,0
			C45.49,38.87,43.08,38.99,41.46,39.33z"/>
	</g>
	<g>
		<path d="M48.59,65.66c-0.18,0-0.35-0.07-0.47-0.19c-0.13-0.12-0.2-0.29-0.2-0.46v-7.69c0-0.24,0.14-0.46,0.35-0.58l6.63-3.45
			c0.18-0.09,0.4-0.1,0.59-0.02c0.23,0.1,0.48,0.17,0.73,0.22l4.68,0.79c1.49,0.25,2.84,1.02,3.8,2.17c0.19,0.22,0.2,0.54,0.04,0.78
			C61.12,62.51,55.09,65.66,48.59,65.66z M49.26,57.71v6.63c5.62-0.2,10.81-2.94,14.08-7.43c-0.72-0.71-1.65-1.18-2.66-1.35
			l-4.68-0.79c-0.25-0.04-0.5-0.11-0.74-0.19L49.26,57.71z"/>
	</g>
	<g>
		<path d="M48.59,65.66c-6.5,0-12.54-3.15-16.16-8.44c-0.16-0.24-0.15-0.55,0.04-0.78c0.96-1.15,2.31-1.92,3.8-2.17l4.68-0.79
			c0.25-0.04,0.5-0.12,0.73-0.22c0.19-0.08,0.4-0.07,0.59,0.02l6.64,3.45c0.22,0.11,0.35,0.33,0.35,0.58v7.69
			C49.26,65.37,48.96,65.66,48.59,65.66z M33.83,56.92c3.27,4.49,8.46,7.23,14.08,7.43v-6.63l-6.01-3.12
			c-0.24,0.08-0.48,0.15-0.74,0.19l-4.68,0.79C35.48,55.74,34.56,56.21,33.83,56.92z"/>
	</g>
	<path d="M55.49,53.28c-0.87-0.38-1.5-1.11-1.74-2.02l-0.47-1.83c-0.08-0.29-0.34-0.49-0.65-0.49h-0.49c-1.06,0.7-2.28,1.1-3.58,1.1
		c-1.3,0-2.52-0.4-3.58-1.1h-0.45c-0.31,0-0.57,0.2-0.65,0.49l-0.47,1.83c-0.23,0.9-0.87,1.64-1.74,2.02
		c-0.23,0.1-0.39,0.32-0.4,0.57c-0.01,0.25,0.13,0.48,0.35,0.6l6.64,3.45c0.1,0.05,0.21,0.08,0.31,0.08c0.11,0,0.22-0.03,0.31-0.08
		l6.63-3.45c0.23-0.12,0.36-0.35,0.35-0.6C55.88,53.6,55.72,53.38,55.49,53.28z M48.59,56.58l-5.31-2.76
		c0.7-0.58,1.2-1.35,1.43-2.24l0.35-1.33h7.05l0.34,1.33c0.23,0.89,0.73,1.67,1.43,2.24L48.59,56.58z"/>
	<g>
		<path d="M20.12,14.86c-0.24,0-0.47-0.05-0.69-0.12v25.93c0,0.39,0.31,0.71,0.69,0.71c0.38,0,0.69-0.32,0.69-0.71V14.74
			C20.59,14.81,20.36,14.86,20.12,14.86z"/>
		<path d="M20.12,10.12c0.24,0,0.47,0.05,0.69,0.12V0.81c0-0.39-0.31-0.71-0.69-0.71c-0.38,0-0.69,0.32-0.69,0.71v9.42
			C19.65,10.17,19.88,10.12,20.12,10.12z"/>
	</g>
	<path d="M20.47,0.2c-0.22-0.13-0.48-0.13-0.7,0C13.23,4.11,8.97,11.06,8.28,18.68c0.14-0.03,0.29-0.04,0.43-0.04
		c0.34,0,0.65,0.08,0.94,0.21c0.62-7.04,4.5-13.48,10.46-17.2c6.53,4.11,10.56,11.35,10.56,19c0,7.81-4.04,15.12-10.56,19.19
		c-5.86-3.69-9.71-9.92-10.43-16.69c-0.3,0.14-0.63,0.23-0.98,0.23c-0.14,0-0.27-0.02-0.4-0.04c0.79,7.34,5.02,14.06,11.45,17.95
		c0.11,0.07,0.23,0.1,0.35,0.1c0.12,0,0.24-0.03,0.35-0.1c7.15-4.28,11.6-12.19,11.6-20.64C32.07,12.36,27.63,4.52,20.47,0.2z"/>
</g>
</svg>
