<?xml version="1.0" encoding="utf-8"?>
<!-- Generator: Adobe Illustrator 23.1.0, SVG Export Plug-In . SVG Version: 6.00 Build 0)  -->
<svg version="1.1" id="Слой_1" xmlns="http://www.w3.org/2000/svg" xmlns:xlink="http://www.w3.org/1999/xlink" x="0px" y="0px"
	 viewBox="0 0 168.7 279.54" style="enable-background:new 0 0 168.7 279.54;" xml:space="preserve">
<g fill="#b0bec5">
	<g>
		<path d="M144.81,279.54H23.89C10.72,279.54,0,268.82,0,255.65V23.89C0,10.72,10.72,0,23.89,0h120.92
			c13.17,0,23.89,10.72,23.89,23.89v231.76C168.7,268.82,157.98,279.54,144.81,279.54z M23.89,7.47c-9.05,0-16.42,7.37-16.42,16.42
			v231.76c0,9.05,7.37,16.42,16.42,16.42h120.92c9.05,0,16.42-7.37,16.42-16.42V23.89c0-9.05-7.37-16.42-16.42-16.42
			C144.81,7.47,23.89,7.47,23.89,7.47z"/>
	</g>
	<g>
		<path d="M99.46,27.62H69.23c-2.06,0-3.73-1.67-3.73-3.73s1.67-3.73,3.73-3.73h30.23c2.06,0,3.73,1.67,3.73,3.73
			C103.2,25.95,101.53,27.62,99.46,27.62z"/>
	</g>
	<g>
		<path d="M164.96,47.78H3.73C1.67,47.78,0,46.1,0,44.04c0-2.06,1.67-3.73,3.73-3.73h161.23c2.06,0,3.73,1.67,3.73,3.73
			C168.7,46.1,167.02,47.78,164.96,47.78z"/>
	</g>
	<g>
		<path d="M164.96,249.31H3.73c-2.06,0-3.73-1.67-3.73-3.73s1.67-3.74,3.73-3.74h161.23c2.06,0,3.73,1.67,3.73,3.74
			C168.7,247.64,167.02,249.31,164.96,249.31z"/>
	</g>
	<g>
		<path d="M124.66,23.89c0-2.78-2.26-5.04-5.04-5.04c-2.79,0-5.04,2.25-5.04,5.04c0,2.78,2.25,5.04,5.04,5.04
			C122.4,28.93,124.66,26.67,124.66,23.89z"/>
	</g>
	<g>
		<path d="M84.35,143.5c-0.57,0-1.15-0.13-1.67-0.39L32.3,117.92c-1.26-0.63-2.06-1.93-2.06-3.34c0-1.42,0.8-2.71,2.06-3.34
			l50.38-25.19c1.05-0.53,2.29-0.53,3.34,0l50.38,25.19c1.26,0.63,2.06,1.93,2.06,3.34c0,1.42-0.8,2.71-2.06,3.34l-50.38,25.19
			C85.49,143.37,84.92,143.5,84.35,143.5z M42.32,114.58l42.03,21.02l42.03-21.02L84.35,93.56L42.32,114.58z"/>
	</g>
	<g>
		<path d="M84.35,203.97c-0.57,0-1.15-0.13-1.67-0.39L32.3,178.39c-1.26-0.63-2.06-1.93-2.06-3.34v-60.46
			c0-2.06,1.67-3.73,3.73-3.73s3.74,1.67,3.74,3.73v58.15l46.65,23.32L131,172.73v-58.15c0-2.06,1.67-3.73,3.74-3.73
			c2.06,0,3.73,1.67,3.73,3.73v60.46c0,1.42-0.8,2.71-2.06,3.34l-50.38,25.19C85.49,203.84,84.92,203.97,84.35,203.97z"/>
	</g>
	<g>
		<path d="M84.35,203.97c-2.06,0-3.73-1.67-3.73-3.73v-60.46c0-2.06,1.67-3.73,3.73-3.73c2.06,0,3.73,1.67,3.73,3.73v60.46
			C88.08,202.3,86.41,203.97,84.35,203.97z"/>
	</g>
</g>
</svg>
