<?xml version="1.0" encoding="utf-8"?>
<!-- Generator: Adobe Illustrator 23.1.0, SVG Export Plug-In . SVG Version: 6.00 Build 0)  -->
<svg version="1.1" id="Слой_1" xmlns="http://www.w3.org/2000/svg" xmlns:xlink="http://www.w3.org/1999/xlink" x="0px" y="0px"
	 viewBox="0 0 65.5 65.5" style="enable-background:new 0 0 65.5 65.5;" xml:space="preserve">
<g fill="#697276">
	<g>
		<path d="M2.53,53.38c0.16,0.18,0.31,0.36,0.49,0.52c0.03-0.12,0.05-0.24,0.09-0.35C2.91,53.5,2.72,53.45,2.53,53.38z"/>
	</g>
	<path d="M12.75,65.5C8.48,65.5,5,62.03,5,57.75c0-0.57,0.06-1.13,0.19-1.69C2.1,54.99,0,52.08,0,48.75C0,44.48,3.48,41,7.75,41
		c1.85,0,3.6,0.65,5,1.83c1.4-1.19,3.15-1.83,5-1.83c4.27,0,7.75,3.48,7.75,7.75c0,3.33-2.1,6.23-5.19,7.31
		c0.13,0.56,0.19,1.12,0.19,1.69C20.5,62.03,17.02,65.5,12.75,65.5z M7.75,42.5c-3.45,0-6.25,2.8-6.25,6.25
		c0,2.9,1.97,5.39,4.79,6.07c0.2,0.05,0.38,0.18,0.48,0.37c0.1,0.18,0.12,0.4,0.06,0.6c-0.21,0.64-0.32,1.3-0.32,1.97
		C6.5,61.2,9.3,64,12.75,64S19,61.2,19,57.75c0-0.66-0.11-1.33-0.32-1.96c-0.07-0.2-0.05-0.42,0.06-0.6
		c0.1-0.18,0.28-0.32,0.48-0.37c2.82-0.68,4.79-3.17,4.79-6.07c0-3.45-2.8-6.25-6.25-6.25c-1.69,0-3.28,0.67-4.46,1.88
		c-0.28,0.29-0.79,0.29-1.07,0C11.03,43.17,9.44,42.5,7.75,42.5z"/>
	<g>
		<path d="M7.75,52.25c-1.93,0-3.5-1.57-3.5-3.5s1.57-3.5,3.5-3.5s3.5,1.57,3.5,3.5S9.68,52.25,7.75,52.25z M7.75,46.75
			c-1.1,0-2,0.9-2,2s0.9,2,2,2s2-0.9,2-2S8.85,46.75,7.75,46.75z"/>
	</g>
	<g>
		<path d="M17.75,52.25c-1.93,0-3.5-1.57-3.5-3.5s1.57-3.5,3.5-3.5s3.5,1.57,3.5,3.5S19.68,52.25,17.75,52.25z M17.75,46.75
			c-1.1,0-2,0.9-2,2s0.9,2,2,2s2-0.9,2-2S18.85,46.75,17.75,46.75z"/>
	</g>
	<g>
		<path d="M12.75,61.25c-1.93,0-3.5-1.57-3.5-3.5s1.57-3.5,3.5-3.5s3.5,1.57,3.5,3.5S14.68,61.25,12.75,61.25z M12.75,55.75
			c-1.1,0-2,0.9-2,2s0.9,2,2,2s2-0.9,2-2S13.85,55.75,12.75,55.75z"/>
	</g>
	<g>
		<path d="M12.75,44.61c-0.41,0-0.75-0.34-0.75-0.75V0.77c0-0.41,0.34-0.75,0.75-0.75s0.75,0.34,0.75,0.75v43.09
			C13.5,44.27,13.17,44.61,12.75,44.61z"/>
	</g>
	<g>
		<path d="M12.75,20.02h-12C0.34,20.02,0,19.68,0,19.27v-5c0-0.41,0.34-0.75,0.75-0.75H7v-3.5H0.75C0.34,10.01,0,9.68,0,9.26v-5
			c0-0.41,0.34-0.75,0.75-0.75h12c0.41,0,0.75,0.34,0.75,0.75v15C13.5,19.68,13.17,20.02,12.75,20.02z M1.5,18.52H12V5.01H1.5v3.5
			h6.25c0.41,0,0.75,0.34,0.75,0.75v5c0,0.41-0.34,0.75-0.75,0.75H1.5V18.52z"/>
	</g>
	<g>
		<path d="M54.28,49.5H31.23c-0.41,0-0.75-0.34-0.75-0.75V47.5c0-3.2-1.27-6.25-3.47-8.37c-4.65-4.46-7.2-10.7-6.99-17.14
			c0.38-11.7,9.82-21.34,21.49-21.97c6.31-0.34,12.32,1.87,16.9,6.2c4.58,4.34,7.1,10.21,7.1,16.51c0,6.16-2.43,11.92-6.85,16.24
			c-2.34,2.29-3.63,5.22-3.63,8.27v1.49C55.03,49.17,54.69,49.5,54.28,49.5z M31.98,48h21.55v-0.74c0-3.46,1.45-6.78,4.08-9.35
			c4.13-4.03,6.4-9.42,6.4-15.17c0-5.89-2.36-11.37-6.63-15.42S47.5,1.21,41.6,1.53c-10.9,0.58-19.72,9.59-20.07,20.52
			c-0.19,6.01,2.19,11.84,6.53,16.01c2.5,2.4,3.93,5.84,3.93,9.45V48H31.98z"/>
	</g>
	<g>
		<path d="M50.75,57.5h-16c-1.52,0-2.75-1.23-2.75-2.75S33.23,52,34.75,52h16c1.52,0,2.75,1.23,2.75,2.75S52.27,57.5,50.75,57.5z
			 M34.75,53.5c-0.69,0-1.25,0.56-1.25,1.25S34.06,56,34.75,56h16c0.69,0,1.25-0.56,1.25-1.25s-0.56-1.25-1.25-1.25H34.75z"/>
	</g>
	<g>
		<path d="M50.75,61.5h-16c-1.52,0-2.75-1.23-2.75-2.75S33.23,56,34.75,56h16c1.52,0,2.75,1.23,2.75,2.75S52.27,61.5,50.75,61.5z
			 M34.75,57.5c-0.69,0-1.25,0.56-1.25,1.25S34.06,60,34.75,60h16c0.69,0,1.25-0.56,1.25-1.25s-0.56-1.25-1.25-1.25H34.75z"/>
	</g>
	<g>
		<path d="M50.75,53.5h-16c-1.52,0-2.75-1.23-2.75-2.75v-2c0-0.41,0.34-0.75,0.75-0.75h20c0.41,0,0.75,0.34,0.75,0.75v2
			C53.5,52.27,52.27,53.5,50.75,53.5z M33.5,49.5v1.25c0,0.69,0.56,1.25,1.25,1.25h16c0.69,0,1.25-0.56,1.25-1.25V49.5H33.5z"/>
	</g>
	<g>
		<path d="M48.75,65.5h-12c-0.41,0-0.75-0.34-0.75-0.75S36.34,64,36.75,64h12c0.41,0,0.75,0.34,0.75,0.75
			C49.5,65.17,49.17,65.5,48.75,65.5z"/>
	</g>
	<g>
		<path d="M48.79,36.5H36.72c-0.23,0-0.44-0.1-0.58-0.28c-0.14-0.17-0.2-0.41-0.15-0.63l2.27-10.76c-1.46-1.29-2.29-3.11-2.29-5.05
			c0-3.74,3.04-6.78,6.78-6.78c3.74,0,6.78,3.04,6.78,6.78c0,1.94-0.83,3.75-2.29,5.05l2.27,10.76c0.05,0.22-0.01,0.45-0.15,0.63
			C49.23,36.4,49.01,36.5,48.79,36.5z M37.65,35h10.22L45.7,24.7c-0.06-0.28,0.05-0.57,0.28-0.75c1.32-1.02,2.07-2.54,2.07-4.17
			c0-2.91-2.37-5.28-5.28-5.28s-5.28,2.37-5.28,5.28c0,1.63,0.76,3.15,2.07,4.17c0.23,0.18,0.33,0.47,0.28,0.75L37.65,35z"/>
	</g>
</g>
</svg>
