<?xml version="1.0" encoding="utf-8"?>
<!-- Generator: Adobe Illustrator 23.1.0, SVG Export Plug-In . SVG Version: 6.00 Build 0)  -->
<svg version="1.1" id="Слой_1" xmlns="http://www.w3.org/2000/svg" xmlns:xlink="http://www.w3.org/1999/xlink" x="0px" y="0px"
	 viewBox="0 0 65.5 65.5" style="enable-background:new 0 0 65.5 65.5;" xml:space="preserve">
<g fill="#697276">
	<g>
		<path d="M64.75,9.5h-48C16.34,9.5,16,9.16,16,8.75c0-4-3.25-7.25-7.25-7.25C8.34,1.5,8,1.16,8,0.75S8.34,0,8.75,0h48
			c4.83,0,8.75,3.92,8.75,8.75C65.5,9.16,65.16,9.5,64.75,9.5z M17.47,8h46.49c-0.38-3.65-3.47-6.5-7.21-6.5H13.64
			C15.77,2.94,17.24,5.3,17.47,8z"/>
	</g>
	<g>
		<path d="M18.75,40.5C11.17,40.5,5,34.33,5,26.75C5,19.17,11.17,13,18.75,13c7.58,0,13.75,6.17,13.75,13.75
			C32.5,34.33,26.33,40.5,18.75,40.5z M18.75,14.5C12,14.5,6.5,19.99,6.5,26.75C6.5,33.5,12,39,18.75,39C25.5,39,31,33.5,31,26.75
			C31,19.99,25.5,14.5,18.75,14.5z"/>
	</g>
	<g>
		<path d="M18.41,21.04c0.26,0,0.52,0.02,0.78,0.05v-7.32c0-0.43-0.35-0.78-0.78-0.78c-0.43,0-0.78,0.35-0.78,0.78v7.32
			C17.89,21.06,18.15,21.04,18.41,21.04z"/>
		<path d="M27.31,16.12c-0.33-0.27-0.83-0.21-1.09,0.12l-4.56,5.72c0.45,0.27,0.86,0.6,1.22,0.97l4.56-5.71
			C27.7,16.88,27.65,16.39,27.31,16.12z"/>
	</g>
	<g>
		<path d="M18.75,33.5c-3.72,0-6.75-3.03-6.75-6.75c0-3.72,3.03-6.75,6.75-6.75c3.72,0,6.75,3.03,6.75,6.75
			C25.5,30.47,22.47,33.5,18.75,33.5z M18.75,21.5c-2.89,0-5.25,2.36-5.25,5.25c0,2.89,2.36,5.25,5.25,5.25
			c2.89,0,5.25-2.36,5.25-5.25C24,23.85,21.64,21.5,18.75,21.5z"/>
	</g>
	<g>
		<path d="M61.75,55.5h-6c-0.41,0-0.75-0.34-0.75-0.75v-18c0-0.41,0.34-0.75,0.75-0.75h9c0.41,0,0.75,0.34,0.75,0.75v15
			C65.5,53.82,63.82,55.5,61.75,55.5z M56.5,54h5.25c1.24,0,2.25-1.01,2.25-2.25V37.5h-7.5V54z"/>
	</g>
	<g>
		<path d="M64.75,37.5h-9c-0.41,0-0.75-0.34-0.75-0.75v-9c0-0.41,0.34-0.75,0.75-0.75h9c0.41,0,0.75,0.34,0.75,0.75v9
			C65.5,37.17,65.16,37.5,64.75,37.5z M56.5,36H64v-7.5h-7.5V36z"/>
	</g>
	<g>
		<path d="M55.74,37.5h-9c-0.41,0-0.75-0.34-0.75-0.75v-9c0-0.41,0.34-0.75,0.75-0.75h9c0.41,0,0.75,0.34,0.75,0.75v9
			C56.49,37.17,56.15,37.5,55.74,37.5z M47.49,36h7.5v-7.5h-7.5V36z"/>
	</g>
	<g>
		<path d="M46.75,37.5h-9c-0.41,0-0.75-0.34-0.75-0.75v-9c0-0.41,0.34-0.75,0.75-0.75h9c0.41,0,0.75,0.34,0.75,0.75v9
			C47.5,37.17,47.16,37.5,46.75,37.5z M38.5,36H46v-7.5h-7.5V36z"/>
	</g>
	<g>
		<path d="M55.74,46.5h-9c-0.41,0-0.75-0.34-0.75-0.75v-9c0-0.41,0.34-0.75,0.75-0.75h9c0.41,0,0.75,0.34,0.75,0.75v9
			C56.49,46.17,56.15,46.5,55.74,46.5z M47.49,45h7.5v-7.5h-7.5V45z"/>
	</g>
	<g>
		<path d="M46.75,46.5h-9c-0.41,0-0.75-0.34-0.75-0.75v-9c0-0.41,0.34-0.75,0.75-0.75h9c0.41,0,0.75,0.34,0.75,0.75v9
			C47.5,46.17,47.16,46.5,46.75,46.5z M38.5,45H46v-7.5h-7.5V45z"/>
	</g>
	<g>
		<path d="M55.74,55.5h-9c-0.41,0-0.75-0.34-0.75-0.75v-9c0-0.41,0.34-0.75,0.75-0.75h9c0.41,0,0.75,0.34,0.75,0.75v9
			C56.49,55.17,56.15,55.5,55.74,55.5z M47.49,54h7.5v-7.5h-7.5V54z"/>
	</g>
	<g>
		<path d="M46.75,55.5h-6c-2.07,0-3.75-1.68-3.75-3.75v-6c0-0.41,0.34-0.75,0.75-0.75h9c0.41,0,0.75,0.34,0.75,0.75v9
			C47.5,55.17,47.16,55.5,46.75,55.5z M38.5,46.5v5.25c0,1.24,1.01,2.25,2.25,2.25H46v-7.5H38.5z"/>
	</g>
	<g>
		<path d="M64.75,28.5h-27c-0.41,0-0.75-0.34-0.75-0.75v-6c0-2.07,1.68-3.75,3.75-3.75h21c2.07,0,3.75,1.68,3.75,3.75v6
			C65.5,28.17,65.16,28.5,64.75,28.5z M38.5,27H64v-5.25c0-1.24-1.01-2.25-2.25-2.25h-21c-1.24,0-2.25,1.01-2.25,2.25V27z"/>
	</g>
	<g>
		<path d="M49.75,23.75c-0.27,0-0.53-0.11-0.71-0.29c-0.19-0.19-0.29-0.45-0.29-0.71c0-0.26,0.1-0.52,0.29-0.71
			c0.37-0.37,1.04-0.37,1.41,0c0.19,0.19,0.3,0.45,0.3,0.71c0,0.26-0.11,0.52-0.3,0.71C50.27,23.64,50.01,23.75,49.75,23.75z"/>
	</g>
	<g>
		<path d="M53.75,22.75c0-0.55,0.45-1,1-1l0,0c0.55,0,1,0.45,1,1l0,0c0,0.55-0.45,1-1,1l0,0C54.2,23.75,53.75,23.3,53.75,22.75z"/>
	</g>
	<g>
		<path d="M59.75,23.75c-0.27,0-0.52-0.11-0.71-0.29c-0.19-0.19-0.29-0.45-0.29-0.71c0-0.26,0.1-0.52,0.29-0.71
			c0.38-0.37,1.04-0.37,1.42,0c0.18,0.19,0.29,0.45,0.29,0.71c0,0.26-0.11,0.52-0.29,0.71C60.27,23.64,60.01,23.75,59.75,23.75z"/>
	</g>
	<g>
		<path d="M8.35,55.21c-1.39,0-2.61-0.77-3.11-1.97c-0.16-0.38,0.02-0.82,0.4-0.98c0.38-0.16,0.82,0.02,0.98,0.4
			c0.26,0.63,0.96,1.05,1.73,1.05c1.01,0,1.84-0.72,1.84-1.6c0-1.06-0.62-1.6-1.85-1.6C5.88,50.5,5,48.9,5,47.4
			c0-1.71,1.5-3.1,3.34-3.1c1.39,0,2.61,0.77,3.11,1.97c0.16,0.38-0.02,0.82-0.4,0.98c-0.38,0.16-0.82-0.02-0.98-0.4
			c-0.26-0.63-0.96-1.05-1.73-1.05c-1.01,0-1.84,0.72-1.84,1.6c0,1.06,0.62,1.6,1.84,1.6c2.47,0,3.35,1.6,3.35,3.1
			C11.69,53.81,10.19,55.21,8.35,55.21z"/>
	</g>
	<g>
		<path d="M8.34,45.79c-0.41,0-0.75-0.34-0.75-0.75v-1.29c0-0.41,0.34-0.75,0.75-0.75s0.75,0.34,0.75,0.75v1.29
			C9.09,45.46,8.75,45.79,8.34,45.79z"/>
	</g>
	<g>
		<path d="M8.34,56.5c-0.41,0-0.75-0.34-0.75-0.75v-1.29c0-0.41,0.34-0.75,0.75-0.75s0.75,0.34,0.75,0.75v1.29
			C9.09,56.16,8.75,56.5,8.34,56.5z"/>
	</g>
	<g>
		<path d="M32.75,50.5h-4.84c-0.41,0-0.75-0.34-0.75-0.75S27.5,49,27.91,49h4.84c0.41,0,0.75,0.34,0.75,0.75S33.16,50.5,32.75,50.5z
			"/>
	</g>
	<g>
		<path d="M23.91,50.5h-8.84c-0.41,0-0.75-0.34-0.75-0.75S14.66,49,15.07,49h8.84c0.41,0,0.75,0.34,0.75,0.75S24.33,50.5,23.91,50.5
			z"/>
	</g>
	<g>
		<path d="M32.75,45.5h-8.84c-0.41,0-0.75-0.34-0.75-0.75c0-0.41,0.34-0.75,0.75-0.75h8.84c0.41,0,0.75,0.34,0.75,0.75
			C33.5,45.16,33.16,45.5,32.75,45.5z"/>
	</g>
	<g>
		<path d="M19.91,45.5h-4.84c-0.41,0-0.75-0.34-0.75-0.75c0-0.41,0.34-0.75,0.75-0.75h4.84c0.41,0,0.75,0.34,0.75,0.75
			C20.66,45.16,20.33,45.5,19.91,45.5z"/>
	</g>
	<g>
		<path d="M28.75,55.5h-4.84c-0.41,0-0.75-0.34-0.75-0.75S23.5,54,23.91,54h4.84c0.41,0,0.75,0.34,0.75,0.75S29.16,55.5,28.75,55.5z
			"/>
	</g>
	<g>
		<path d="M19.91,55.5h-4.84c-0.41,0-0.75-0.34-0.75-0.75S14.66,54,15.07,54h4.84c0.41,0,0.75,0.34,0.75,0.75S20.33,55.5,19.91,55.5
			z"/>
	</g>
	<g>
		<rect x="55.03" y="8.25" width="1.47" height="10.76"/>
		<path d="M55.03,27.01v35.74c0,0.69-0.55,1.25-1.23,1.25H2.7c-0.68,0-1.23-0.56-1.23-1.25v-54c0-4,3.2-7.25,7.12-7.25h44.41V1.25
			h3.49v-0.5C56.5,0.34,56.17,0,55.76,0H8.6C3.86,0,0,3.92,0,8.75v54c0,1.52,1.21,2.75,2.7,2.75h51.1c1.49,0,2.7-1.23,2.7-2.75
			V27.01H55.03z"/>
	</g>
	<g>
		<path d="M13.78,30.9l-4.52,4.76c-0.29,0.3-0.27,0.77,0.03,1.06c0.14,0.14,0.33,0.21,0.52,0.21c0.2,0,0.4-0.08,0.54-0.23l4.55-4.8
			C14.49,31.61,14.12,31.27,13.78,30.9z"/>
		<path d="M30.91,31.41l-6.52-2.94c-0.14,0.49-0.34,0.95-0.59,1.38l6.49,2.93c0.38,0.17,0.82,0,0.99-0.38
			C31.46,32.03,31.29,31.58,30.91,31.41z"/>
	</g>
</g>
</svg>
