<?xml version="1.0" encoding="utf-8"?>
<!-- Generator: Adobe Illustrator 23.1.0, SVG Export Plug-In . SVG Version: 6.00 Build 0)  -->
<svg version="1.1" id="Слой_1" xmlns="http://www.w3.org/2000/svg" xmlns:xlink="http://www.w3.org/1999/xlink" x="0px" y="0px"
	 viewBox="0 0 480.04 480" style="enable-background:new 0 0 480.04 480;" xml:space="preserve">
<g id="Online_Shopping-Shopping-Smartphone-Shopping_Bag-Commerce" fill="#b0bec5">
	<path d="M128,32h16v16h-16V32z"/>
	<path d="M160,32h64v16h-64V32z"/>
	<path d="M312,344c-0.03,22.08-17.92,39.97-40,40H125.86l27.5-47.63c-0.87,2.45-1.33,5.03-1.36,7.63c0,13.25,10.75,24,24,24h32
		c13.25,0,24-10.75,24-24s-10.75-24-24-24h-32c-7.73,0.01-14.97,3.76-19.46,10.06c6.89-16.23-0.68-34.97-16.91-41.85
		c-14.85-6.3-32.07-0.53-40.13,13.45l-27.2,47.14c-0.2-1.59-0.3-3.18-0.3-4.78V56c0.03-22.08,17.92-39.97,40-40h160
		c14.28,0.03,27.47,7.65,34.64,20l13.85-8C310.45,10.71,291.99,0.05,272,0H112C81.09,0.04,56.04,25.09,56,56v154.4
		c-5.09,2.37-9.19,6.45-11.58,11.53L8.1,300.7c-5.38,11.56-8.14,24.15-8.1,36.9V480h16V337.6c-0.04-10.42,2.23-20.72,6.62-30.17
		L56,235.02V344c-0.01,9.55,2.44,18.95,7.11,27.29c1.8,4.03,6.53,5.84,10.57,4.04c1.55-0.69,2.84-1.86,3.68-3.33l36-62.35
		c4.47-7.62,14.27-10.18,21.89-5.71c7.55,4.43,10.14,14.1,5.82,21.71l-36,62.35c-1.46,2.52-1.43,5.63,0.07,8.13l17.14,28.48
		c3.74,6.23,5.71,13.36,5.72,20.62v34.69h16v-34.69c0-10.17-2.77-20.15-8-28.86L126.15,400H272c30.91-0.04,55.96-25.09,56-56v-40
		h-16V344z M176,336h32c4.42,0,8,3.58,8,8s-3.58,8-8,8h-32c-4.42,0-8-3.58-8-8S171.58,336,176,336z"/>
	<path d="M456.88,94.56C416.39,36.61,336.6,22.45,278.64,62.94c-48.77,34.08-67.64,97.27-45.52,152.5l-27.04,45.84
		c-1.59,2.69-1.47,6.07,0.32,8.64c1.83,2.56,4.98,3.84,8.08,3.28l52.24-9.76c17.74,15.9,39.58,26.52,63.04,30.64
		c7.37,1.27,14.84,1.91,22.32,1.92c70.69-0.02,127.98-57.34,127.96-128.04C480.04,141.7,471.95,116.07,456.88,94.56L456.88,94.56z
		 M462.32,187.44c-10.74,60.92-68.83,101.59-129.75,90.85c-21.75-3.83-41.88-14.01-57.85-29.25c-1.5-1.39-3.47-2.16-5.52-2.16
		c-0.48-0.01-0.96,0.01-1.44,0.08l-38.96,7.28l20.16-34.08c1.27-2.22,1.45-4.91,0.48-7.28c-8.92-20.19-11.62-42.59-7.76-64.32
		c10.74-60.93,68.83-101.62,129.76-90.88S473.06,126.51,462.32,187.44z"/>
	<path d="M408,120h-24v-8c0-17.67-14.33-32-32-32s-32,14.33-32,32v8h-24c-4.42,0-8,3.58-8,8v96c0.04,13.24,10.76,23.96,24,24h80
		c13.24-0.04,23.96-10.76,24-24v-96C416,123.58,412.42,120,408,120z M336,112c0-8.84,7.16-16,16-16s16,7.16,16,16v8h-32V112z
		 M400,224c0,4.42-3.58,8-8,8h-80c-4.42,0-8-3.58-8-8v-8h96V224z M400,200h-96v-64h16v16h16v-16h32v16h16v-16h16V200z"/>
	<path d="M162.34,106.34l-12.32,12.32c-18.48-12.23-43.37-7.17-55.6,11.31s-7.17,43.37,11.31,55.6s43.37,7.17,55.6-11.31
		c8.89-13.43,8.89-30.86,0-44.29l12.32-12.32L162.34,106.34z M152,152c0,13.25-10.75,24-24,24s-24-10.75-24-24s10.75-24,24-24
		c3.56,0.01,7.08,0.83,10.28,2.4l-23.94,23.94l11.31,11.31l23.94-23.93C151.17,144.92,151.99,148.44,152,152L152,152z"/>
	<path d="M184,128h32v16h-32V128z"/>
	<path d="M184,160h32v16h-32V160z"/>
</g>
</svg>
