<?xml version="1.0" encoding="utf-8"?>
<!-- Generator: Adobe Illustrator 23.1.0, SVG Export Plug-In . SVG Version: 6.00 Build 0)  -->
<svg version="1.1" id="Слой_1" xmlns="http://www.w3.org/2000/svg" xmlns:xlink="http://www.w3.org/1999/xlink" x="0px" y="0px"
	 viewBox="0 0 273.9 204.83" style="enable-background:new 0 0 273.9 204.83;" xml:space="preserve">
<style type="text/css">
	.st0{fill:#b0bec5;}
</style>
<g>
	<g>
		<path class="st0" d="M28.4,18.54c0-2.73-2.21-4.93-4.93-4.93c-2.73,0-4.94,2.21-4.94,4.93c0,2.73,2.21,4.94,4.94,4.94
			C26.19,23.47,28.4,21.26,28.4,18.54z"/>
	</g>
	<g>
		<path class="st0" d="M48.14,18.54c0-2.73-2.21-4.93-4.93-4.93c-2.73,0-4.93,2.21-4.93,4.93c0,2.73,2.2,4.94,4.93,4.94
			C45.93,23.47,48.14,21.26,48.14,18.54z"/>
	</g>
	<g>
		<path class="st0" d="M67.88,18.54c0-2.73-2.21-4.93-4.94-4.93c-2.73,0-4.94,2.21-4.94,4.93c0,2.73,2.21,4.94,4.94,4.94
			C65.67,23.47,67.88,21.26,67.88,18.54z"/>
	</g>
	<g>
		<path class="st0" d="M250.43,204.83H23.47C10.53,204.83,0,194.3,0,181.36V23.47C0,10.53,10.53,0,23.47,0h226.96
			c12.94,0,23.47,10.53,23.47,23.47v157.89C273.9,194.3,263.37,204.83,250.43,204.83z M23.47,7.47c-8.82,0-16,7.18-16,16v157.89
			c0,8.82,7.18,16,16,16h226.96c8.82,0,16-7.18,16-16V23.47c0-8.82-7.18-16-16-16H23.47z"/>
	</g>
	<g>
		<path class="st0" d="M270.17,37.07H3.73C1.67,37.07,0,35.4,0,33.34c0-2.06,1.67-3.73,3.73-3.73h266.43c2.06,0,3.73,1.67,3.73,3.73
			C273.9,35.4,272.23,37.07,270.17,37.07z"/>
	</g>
	<g>
		<path class="st0" d="M186.29,155.48c-0.86,0-1.72-0.3-2.43-0.9c-1.57-1.34-1.75-3.7-0.4-5.27l27.52-32.1l-27.52-32.11
			c-1.34-1.57-1.16-3.92,0.4-5.27c1.57-1.34,3.92-1.16,5.27,0.41l29.6,34.54c1.2,1.4,1.2,3.46,0,4.86l-29.6,34.53
			C188.38,155.04,187.34,155.48,186.29,155.48z"/>
	</g>
	<g>
		<path class="st0" d="M87.61,155.48c-1.05,0-2.1-0.44-2.84-1.3l-29.6-34.53c-1.2-1.4-1.2-3.46,0-4.86l29.6-34.54
			c1.34-1.56,3.7-1.75,5.27-0.41c1.57,1.34,1.75,3.7,0.4,5.27l-27.52,32.11l27.52,32.1c1.34,1.57,1.16,3.92-0.4,5.27
			C89.33,155.19,88.47,155.48,87.61,155.48z"/>
	</g>
	<g>
		<path class="st0" d="M112.28,175.22c-0.52,0-1.04-0.11-1.54-0.34c-1.88-0.85-2.71-3.07-1.85-4.95L158.22,61.4
			c0.85-1.88,3.05-2.71,4.95-1.86c1.88,0.85,2.71,3.07,1.85,4.95l-49.34,108.55C115.05,174.41,113.7,175.22,112.28,175.22z"/>
	</g>
</g>
</svg>
