<?xml version="1.0" encoding="utf-8"?>
<!-- Generator: Adobe Illustrator 23.1.0, SVG Export Plug-In . SVG Version: 6.00 Build 0)  -->
<svg version="1.1" id="Слой_1" xmlns="http://www.w3.org/2000/svg" xmlns:xlink="http://www.w3.org/1999/xlink" x="0px" y="0px"
	 viewBox="0 0 65.5 65.81" style="enable-background:new 0 0 65.5 65.81;" xml:space="preserve">
<style type="text/css">
	.st0{fill:#697276;}
</style>
<g>
	<g>
		<path class="st0" d="M32.28,39.5h-5c-6.78,0-12.3-5.59-12.3-12.45c0-0.35,0.28-0.63,0.63-0.63h5c6.78,0,12.3,5.59,12.3,12.45
			C32.9,39.21,32.62,39.5,32.28,39.5z M16.24,27.68c0.32,5.87,5.15,10.55,11.03,10.55h4.36c-0.32-5.87-5.15-10.55-11.03-10.55H16.24
			z"/>
	</g>
	<g>
		<path class="st0" d="M37.08,43.76h-5.04c-0.35,0-0.63-0.28-0.63-0.63c0-6.83,5.56-12.38,12.4-12.38h5.04
			c0.35,0,0.63,0.28,0.63,0.63C49.48,38.21,43.92,43.76,37.08,43.76z M32.68,42.5h4.4c5.93,0,10.79-4.65,11.12-10.5h-4.4
			C37.87,32.01,33.01,36.66,32.68,42.5z"/>
	</g>
	<g>
		<path class="st0" d="M32.16,25.5c-7.03,0-12.75-5.72-12.75-12.75C19.41,5.72,25.13,0,32.16,0s12.75,5.72,12.75,12.75
			C44.91,19.78,39.19,25.5,32.16,25.5z M32.16,1.5c-6.2,0-11.25,5.05-11.25,11.25c0,6.2,5.05,11.25,11.25,11.25
			s11.25-5.05,11.25-11.25C43.41,6.55,38.36,1.5,32.16,1.5z"/>
	</g>
	<g>
		<path class="st0" d="M32.17,19.85c-1.76,0-3.32-0.98-3.96-2.5c-0.16-0.38,0.02-0.82,0.4-0.98c0.38-0.16,0.82,0.02,0.98,0.4
			c0.4,0.95,1.43,1.58,2.57,1.58c1.51,0,2.74-1.09,2.74-2.42c0-1.11-0.48-2.42-2.76-2.42c-3.13,0-4.24-2.03-4.24-3.92
			c0-2.16,1.9-3.92,4.24-3.92c1.76,0,3.32,0.98,3.96,2.5c0.16,0.38-0.02,0.82-0.4,0.98c-0.38,0.16-0.82-0.02-0.98-0.4
			c-0.4-0.95-1.43-1.58-2.57-1.58c-1.51,0-2.74,1.09-2.74,2.42c0,1.11,0.48,2.42,2.74,2.42c3.14,0,4.26,2.03,4.26,3.92
			C36.41,18.09,34.51,19.85,32.17,19.85z"/>
	</g>
	<g>
		<path class="st0" d="M32.15,7.15c-0.41,0-0.75-0.34-0.75-0.75V4.66c0-0.41,0.34-0.75,0.75-0.75c0.41,0,0.75,0.34,0.75,0.75V6.4
			C32.9,6.82,32.57,7.15,32.15,7.15z"/>
	</g>
	<g>
		<path class="st0" d="M32.15,21.6c-0.41,0-0.75-0.34-0.75-0.75V19.1c0-0.41,0.34-0.75,0.75-0.75c0.41,0,0.75,0.34,0.75,0.75v1.75
			C32.9,21.26,32.57,21.6,32.15,21.6z"/>
	</g>
	<g>
		<path class="st0" d="M32.16,48.34c-0.41,0-0.75-0.2-0.75-0.44V24.44c0-0.24,0.34-0.44,0.75-0.44c0.41,0,0.75,0.2,0.75,0.44V47.9
			C32.91,48.15,32.57,48.34,32.16,48.34z"/>
	</g>
	<g>
		<path class="st0" d="M44.29,49.51c3.67-0.79,6.5-1.86,8.78-2.72c2.11-0.8,3.78-1.43,5.15-1.45c1.2,0,2.26,0.45,2.95,1.3
			c0.75,0.93,0.12,2.47,0.39,1.4c-0.3,1.89-1.28,3.23-3.07,3.91l-12.56,3.88C45.32,56.08,44.29,49.51,44.29,49.51z M58.28,46.85
			c-0.01,0-0.03,0-0.04,0c-1.11,0.01-2.67,0.6-4.64,1.35c-2.32,0.88-5.21,1.97-8.93,2.76c0,0-0.29,4.28,0.73,3.89l12.46-4.25
			c1.3-0.5,2.43-2.3,2.53-3.58c0-0.02,0.5,2.84,0.49,2.82c-0.4-0.75-0.42-1.67-0.89-2.25C59.6,47.1,59.03,46.85,58.28,46.85z"/>
	</g>
	<g>
		<path class="st0" d="M29.49,65.81c-11.86,0-20.82-2.96-20.99-3.02C8.2,62.69,8,62.41,8,62.09V44.11c0-0.2,0.08-0.39,0.22-0.53
			c0.14-0.14,0.33-0.22,0.53-0.22c0,0,0,0,0,0c15.11,0.07,17.69,1.56,19.97,2.87c1.86,1.07,3.48,2,12.81,1.89
			c0.05,0,1.93-0.09,3.24,1.25c0.91,0.92,1.31,2.25,1.2,3.95c-0.03,0.4-0.13,0.85-0.37,1.3c5.67-1.32,9.69-2.97,12.48-4.12
			c3.23-1.33,5-2.06,6.25-1.02h0c1.01,0.84,1.18,1.74,1.15,2.34c-0.1,1.85-2.13,3.26-2.37,3.42C52.31,63.58,39.81,65.81,29.49,65.81
			z M9.5,61.54c4.08,1.23,31.71,8.69,52.76-7.51c0.47-0.32,1.7-1.35,1.74-2.28c0.01-0.14,0.03-0.58-0.61-1.11l0,0
			c-0.56-0.46-2.31,0.26-4.73,1.25c-3.33,1.37-8.38,3.44-15.85,4.86c-0.38,0.07-0.76-0.16-0.86-0.53c-0.1-0.37,0.09-0.77,0.46-0.9
			c1.31-0.5,2.01-1.2,2.07-2.09c0.08-1.25-0.17-2.19-0.77-2.79c-0.84-0.85-2.11-0.8-2.13-0.8c-9.78,0.11-11.55-0.91-13.61-2.09
			c-2.08-1.2-4.43-2.55-18.48-2.67V61.54z"/>
	</g>
	<g>
		<path class="st0" d="M35.7,57.59c-2.53,0-5.45-0.22-8.74-0.65c-0.41-0.05-0.7-0.43-0.65-0.84c0.05-0.41,0.43-0.71,0.84-0.65
			c8.55,1.13,13.04,0.54,15.3-0.16c0.4-0.12,0.82,0.1,0.94,0.5c0.12,0.4-0.1,0.82-0.5,0.94C41.02,57.3,38.62,57.59,35.7,57.59z"/>
	</g>
	<g>
		<path class="st0" d="M8.75,62.86h-8C0.34,62.86,0,62.53,0,62.11v-18c0-0.41,0.34-0.75,0.75-0.75h8c0.41,0,0.75,0.34,0.75,0.75v18
			C9.5,62.53,9.16,62.86,8.75,62.86z M1.5,61.36H8v-16.5H1.5V61.36z"/>
	</g>
	<g>
		<circle class="st0" cx="4.75" cy="58.11" r="1"/>
	</g>
</g>
</svg>
