<?xml version="1.0" encoding="utf-8"?>
<!-- Generator: Adobe Illustrator 23.1.0, SVG Export Plug-In . SVG Version: 6.00 Build 0)  -->
<svg version="1.1" id="Слой_1" xmlns="http://www.w3.org/2000/svg" xmlns:xlink="http://www.w3.org/1999/xlink" x="0px" y="0px"
	 viewBox="0 0 65.5 63.27" style="enable-background:new 0 0 65.5 63.27;" xml:space="preserve">
<g fill="#697276">
  <g>
    <path d="M60.75,63.27h-56C4.34,63.27,4,62.94,4,62.52v-7c0-0.41,0.34-0.75,0.75-0.75h56c0.41,0,0.75,0.34,0.75,0.75v7
      C61.5,62.94,61.16,63.27,60.75,63.27z M5.5,61.77H60v-5.5H5.5V61.77z"/>
  </g>
  <g>
    <path d="M64.75,56.27h-64c-0.3,0-0.56-0.17-0.68-0.44c-0.12-0.27-0.07-0.58,0.12-0.81l8-9c0.14-0.16,0.35-0.25,0.56-0.25h48
      c0.21,0,0.42,0.09,0.56,0.25l8,9c0.2,0.22,0.24,0.54,0.12,0.81C65.31,56.1,65.05,56.27,64.75,56.27z M2.42,54.77h60.66l-6.67-7.5
      H9.09L2.42,54.77z"/>
  </g>
  <g>
    <path d="M30.65,38.24l-3.46-0.91c0.02,0.01-0.97,0.02-0.95,0.03c0.25,0.13,0.41,0.39,0.41,0.68c0,0.28-0.09,0.59-0.23,0.9
      l3.85,0.75c1.02,0.27,1.74,1.19,1.74,2.25v3.84H13.5v-3.84c0-1.06,0.71-1.98,1.74-2.25l3.85-0.75c-0.14-0.31-0.22-0.61-0.23-0.9
      c-0.01-0.29,0.16-0.56,0.42-0.69c0.02-0.01,0.03-0.02,0.04-0.03l-4.47,0.91C13.18,38.68,12,40.2,12,41.94v4.59
      c0,0.41,0.34,0.75,0.75,0.75h20c0.41,0,0.75-0.34,0.75-0.75v-4.59C33.5,40.2,32.33,38.68,30.65,38.24z"/>
  </g>
  <g>
    <path d="M22.75,37.04c-3.07,0-5.56-2.92-5.56-6.52c0-3.39,2.29-5.75,5.56-5.75c3.27,0,5.56,2.36,5.56,5.75
      C28.31,34.12,25.82,37.04,22.75,37.04z M22.75,26.27c-2.47,0-4.06,1.67-4.06,4.25c0,2.77,1.82,5.02,4.06,5.02
      c2.24,0,4.06-2.25,4.06-5.02C26.81,27.94,25.22,26.27,22.75,26.27z"/>
  </g>
  <g>
    <path d="M50.64,36.24l-3.46-0.91c0.02,0.01-0.97,0.02-0.95,0.03c0.25,0.13,0.41,0.39,0.41,0.68c-0.01,0.32-0.1,0.61-0.26,0.89
      l3.88,0.76c1.02,0.27,1.74,1.19,1.74,2.25v5.84H33.5v-5.84c0-1.06,0.71-1.98,1.74-2.25l3.89-0.76c-0.15-0.28-0.26-0.57-0.26-0.89
      c-0.01-0.29-0.84-0.56-0.58-0.69c0.02-0.01,0.03-0.02,0.04-0.03l-3.47,0.91C33.17,36.68,32,38.2,32,39.94v6.59
      c0,0.41,0.34,0.75,0.75,0.75h20c0.41,0,0.75-0.34,0.75-0.75v-6.59C53.5,38.2,52.32,36.68,50.64,36.24z"/>
  </g>
  <g>
    <path d="M42.75,35.04c-3.06,0-5.56-2.92-5.56-6.52c0-3.39,2.29-5.75,5.56-5.75c3.27,0,5.56,2.36,5.56,5.75
      C48.31,32.12,45.81,35.04,42.75,35.04z M42.75,24.27c-2.47,0-4.06,1.67-4.06,4.25c0,2.77,1.82,5.02,4.06,5.02
      c2.24,0,4.06-2.25,4.06-5.02C46.81,25.94,45.21,24.27,42.75,24.27z"/>
  </g>
  <g>
    <path d="M42.75,47.27c-0.41,0-0.75-0.34-0.75-0.75v-7.6c0-0.41,0.34-0.75,0.75-0.75c0.41,0,0.75,0.34,0.75,0.75v7.6
      C43.5,46.94,43.16,47.27,42.75,47.27z"/>
  </g>
  <g>
    <path d="M10.68,27.27c-0.12,0-0.23-0.03-0.33-0.1c-0.2-0.14-0.31-0.38-0.27-0.63l0.7-4.28H8.24C7,22.26,6,21.23,6,19.97V8.28
      c0-1.27,1-2.3,2.24-2.3h19.53C29,5.99,30,7.02,30,8.28v11.69c0,1.27-1,2.3-2.24,2.3h-9.58l-7.17,4.9
      C10.91,27.24,10.8,27.27,10.68,27.27z M8.24,7.24c-0.56,0-1.02,0.47-1.02,1.04v11.69c0,0.58,0.46,1.04,1.02,1.04h3.26
      c0.18,0,0.35,0.08,0.47,0.22c0.12,0.14,0.17,0.33,0.14,0.51l-0.58,3.58l6.15-4.21c0.1-0.07,0.22-0.11,0.34-0.11h9.76
      c0.56,0,1.02-0.47,1.02-1.04V8.28c0-0.58-0.46-1.04-1.02-1.04H8.24z"/>
  </g>
  <g>
    <path d="M54.48,23.27c-0.13,0-0.25-0.04-0.36-0.11l-7.69-5.36H36.15c-1.32,0-2.4-1.13-2.4-2.51V2.51c0-1.38,1.08-2.51,2.4-2.51
      H57.1c1.32,0,2.4,1.13,2.4,2.51v12.78c0,1.38-1.08,2.51-2.4,2.51h-2.72l0.75,4.68c0.04,0.27-0.07,0.54-0.29,0.69
      C54.73,23.23,54.61,23.27,54.48,23.27z M36.15,1.37c-0.6,0-1.09,0.51-1.09,1.14v12.78c0,0.63,0.49,1.14,1.09,1.14h10.47
      c0.13,0,0.26,0.04,0.36,0.11l6.6,4.6l-0.62-3.92c-0.03-0.2,0.02-0.4,0.15-0.55c0.12-0.15,0.31-0.24,0.5-0.24h3.49
      c0.6,0,1.09-0.51,1.09-1.14V2.51c0-0.63-0.49-1.14-1.09-1.14H36.15z"/>
  </g>
  <g>
    <path d="M42.75,39.7c-0.07,0-0.14-0.01-0.21-0.03c-0.77-0.23-4.63-1.49-4.68-3.6c-0.01-0.29,0.16-0.56,0.42-0.69
      c0.68-0.34,1.15-0.93,1.29-1.64c0.01-0.1,0.03,0.59,0.04,0.32c0.01-0.24,0.02-0.45,0.03-0.52c0.04-0.38,0.36-0.66,0.74-0.66l2.37,2
      l2.37-2h0c0.38,0,0.7,0.29,0.75,0.67c0.01,0.06,0.02,0.27,0.03,0.51c0.01,0.25,0.02-0.45,0.03-0.35c0.13,0.7,0.62,1.34,1.31,1.69
      c0.25,0.13,0.41,0.39,0.41,0.68c-0.03,2.12-3.9,3.37-4.68,3.6C42.89,39.69,42.82,39.7,42.75,39.7z M39.51,36.39
      c0.46,0.6,1.89,1.34,3.24,1.77c1.36-0.44,2.8-1.18,3.25-1.78c-0.81-0.59-1.38-1.47-1.56-2.43c-0.01-0.07-0.03-0.32-0.04-0.58
      l-1.76,1l-1.55-1c-0.02,0.29-0.03,0.56-0.05,0.65C40.85,34.99,40.3,35.83,39.51,36.39z"/>
  </g>
  <g>
    <path d="M22.75,43.74c-0.16,0-0.33-0.05-0.46-0.16c-1.03-0.81-4.38-3.59-4.43-5.47c-0.01-0.29,0.16-0.56,0.42-0.69
      c0.68-0.33,1.15-0.93,1.29-1.64c0.01-0.1,0.03-0.41,0.04-0.68c0.01-0.24,0.02,0.55,0.03,0.48c0.04-0.38,0.36,0.34,0.74,0.34l4.74,0
      l0.31-0.3c0.38,0,0.39-0.41,0.44-0.04c0.01,0.06,0.02-0.73,0.03-0.49c0.01,0.25,0.02,0.55,0.03,0.65c0.13,0.7,0.62,1.34,1.31,1.69
      c0.25,0.13,0.41,0.39,0.41,0.68c-0.03,1.88-3.4,4.67-4.43,5.47C23.08,43.69,22.92,43.74,22.75,43.74z M19.47,38.46
      c0.39,0.87,1.83,2.36,3.29,3.57c1.46-1.21,2.91-2.7,3.29-3.57c-0.83-0.59-1.42-1.48-1.6-2.46c-0.01-0.07-0.03,0.68-0.04,0.42
      l-3.31,0c-0.02,0.29-0.03-0.44-0.05-0.35C20.85,37.05,20.29,37.89,19.47,38.46z"/>
  </g>
</g>
</svg>
