<svg width="23" height="32" fill="none" xmlns="http://www.w3.org/2000/svg"><path fill-rule="evenodd" clip-rule="evenodd" d="M2.06 29.43L11.32 32l9.29-2.57 2.06-23.14H0l2.06 23.14zm2.92-9.83h9.84l-.33 3.68-3.16.86-3.17-.86-.2-2.26H5.11l.4 4.46 5.81 1.61h.02l5.8-1.61.71-7.95.07-.77.52-5.74H4.22l.26 2.84h10.84l-.25 2.9H4.73l.25 2.84zM5.34 0h3.43v1.44h-2v1.44h2V4.3H5.34V0zm4.12 0h3.44v1.25h-2v.25h2v2.88H9.46V3.06h2v-.25h-2V0zm4.13 0h3.43v1.25h-2v.25h2v2.88H13.6V3.06h2v-.25h-2V0z" fill="#111"/></svg>