<svg width="23" height="32" fill="none" xmlns="http://www.w3.org/2000/svg"><path d="M2.1 0h1.45v1.43h1.32V0h1.44v4.32H4.87V2.87H3.55v1.45H2.11V0z" fill="#111"/><path fill-rule="evenodd" clip-rule="evenodd" d="M2.06 29.43L0 6.29h22.67l-2.06 23.14L11.32 32l-9.26-2.57zm5.52-12.67l-.26-2.9h10.86l.26-2.84H4.22l.76 8.58h9.84l-.33 3.68-3.16.86-3.17-.86-.2-2.26H5.11l.4 4.46 5.81 1.61 5.82-1.61.71-7.95.07-.77H7.58z" fill="#111"/><path d="M6.94 1.43h1.27v2.89h1.44V1.43h1.27V0H6.94v1.43zM11.55 0h1.5l.93 1.52.93-1.52h1.5v4.32h-1.43V2.18l-1 1.53h-.02l-1-1.53v2.14h-1.4V0zm7.02 0h-1.44v4.32h3.47V2.89h-2.03V0z" fill="#111"/></svg>