<svg width="34" height="34" fill="none" xmlns="http://www.w3.org/2000/svg"><path fill-rule="evenodd" clip-rule="evenodd" d="M0 0h34v34H0V0zm32.09 25.9c-.25-1.56-1.26-2.86-4.26-4.08l-.6-.26c-.85-.36-1.66-.7-1.94-1.35-.13-.46-.14-.71-.07-1 .23-.9 1.3-1.18 2.16-.92.55.19 1.07.61 1.38 1.29a221.29 221.29 0 012.49-1.6 6.34 6.34 0 00-.82-1.1c-.88-.99-2.09-1.5-4.01-1.45a124.3 124.3 0 00-1 .13c-.96.24-1.88.74-2.41 1.42a4.45 4.45 0 00.8 6.34c.82.6 1.79 1.01 2.67 1.39 1.21.51 2.25.95 2.46 1.74.35 1.66-1.22 2.2-2.78 2-1.15-.24-1.79-.82-2.48-1.89l-1.27.74-1.3.75h-.01c.26.58.54.9.94 1.34l.21.24c2.47 2.5 8.63 2.37 9.74-1.4.04-.14.34-1 .1-2.34zM16.17 15.62h3.19v9.53c.03 1.48.05 2.82-.57 3.96a4.02 4.02 0 01-2.56 2.01c-1.7.4-3.34.17-4.55-.56a5.11 5.11 0 01-1.87-2.15 698.03 698.03 0 002.58-1.58 1.21 1.21 0 01.18.3c.33.54.62.94 1.18 1.21.55.19 1.75.3 2.22-.66.23-.4.21-1.49.2-2.8v-9.26z" fill="#111"/></svg>