<svg width="34" height="24" fill="none" xmlns="http://www.w3.org/2000/svg"><path fill-rule="evenodd" clip-rule="evenodd" d="M31 7.55c1.1 1.44 2.7 3.49 2.86 3.66.25.25.17.46-.24.59-.36.12-3.72 1.04-4.65 1.29a709.3 709.3 0 013.62 5v.01c.3.44.52.74.59.82.32.45.04.58-.4.79-.45.21-10.35 3.88-11.04 4.09l-.11.03c-.78.23-1.17.35-1.7-.45-.36-.5-1.83-3.23-3-5.39l-.85-1.57c-2.14.59-6.02 1.63-7.15 1.92-1.1.25-1.58-.42-1.74-.83l-2.72-6.09C2.6 7.23.4 2.32.16 1.76-.24.76.2.59.6.55.83.55 2.8.38 4.57.24 5.9.13 7.12.02 7.43 0c.7-.04.8.11 1.1.57l.04.05 8.16 14.13 10.3-2.55c-.34-.52-1.42-2.1-2.27-3.35L23.64 7.2c-.28-.41 0-.58.44-.66.25-.03 1.6-.26 2.8-.47l1.93-.32.12-.02c.3-.04.55-.08 1.05.52L31 7.56zM12.26 15.9l2.88-.72c.12-.04.2-.12.04-.33L7.51 1.17l-.04-.07c-.03-.07-.04-.1-.2-.1l-3.54.32-2.08.19c-.08 0-.08.16 0 .33.08.1 2.4 5.05 4.36 9.2 1.4 2.98 2.6 5.54 2.64 5.59 0 .13 0 .17.32.08l3.3-.82zm19.13 2.4l.04.08c.07.12.1.2-.16.26l-6.29 2.22-3.65 1.28c-.2.08-.33.12-.57-.25-.24-.38-3.31-5.83-3.31-5.83l10.06-2.71.03-.01c.22-.08.3-.1.45.13a202.63 202.63 0 003.4 4.84zm-3.27-6.33s3.67-.95 3.92-1c.24-.04.4-.12.28-.25-.07-.07-1.03-1.33-1.84-2.38l-1.07-1.4c-.2-.3-.32-.26-.47-.22h-.02c-.1.03-1.46.28-2.52.48l-1.28.23c-.2.04-.12.17-.04.3l3.04 4.24z" fill="#111"/></svg>