<svg width="50" height="34" fill="none" xmlns="http://www.w3.org/2000/svg"><path d="M41.484 4.487c.89.773 2.76.152 2.425-1.386-1.384-.115-2.185.355-2.425 1.386zM47.57 2.93v.001c-.243.467-.568 1.09-.568 2.16-.001.217-.164.366-.167.031.011-1.128.285-1.671.596-2.292h.001l.09-.18c.162-.288.259-.17.17.039a6.138 6.138 0 01-.122.242zm-.266-.187c.057-.089.108-.17.15-.241.107-.2.02-.327-.166-.055-.035.059-.072.118-.11.179-.389.629-.846 1.368-.957 2.49-.026.335.15.2.17-.015.094-1.07.593-1.855.913-2.358zm-.323-.163c.105-.13.194-.24.256-.326.122-.19.046-.325-.161-.068-.079.107-.17.223-.267.348-.48.615-1.127 1.445-1.313 2.455-.055.33.131.212.17-.001.175-1.005.881-1.874 1.315-2.409zM45.04 4.905c.39-1.204 1.625-2.528 2.003-2.928.148-.171.091-.315-.15-.09-.547.56-1.629 1.823-2.022 2.995-.1.32.1.228.17.023z" fill="#111"/><path fill-rule="evenodd" clip-rule="evenodd" d="M48.15.18c.238-.107.372-.167.753-.18.703-.021 1.085.39 1.096 1.13.034 2.296-.984 3.272-2.097 4.276a15.93 15.93 0 01-1.012.818c-.839.642-1.72 1.316-2.54 2.575-.483.74-.756 2.167-1.049 3.7-.174.913-.356 1.863-.593 2.73-.197.715-.392 1.48-.586 2.241-.393 1.544-.784 3.077-1.178 4.172-.622 1.727-.113 5.647 1.729 6.169-2.1 1.529-5.482 1.077-6.726-.834-1.25.329-1.887 1.326-2.525 2.326-.5.784-1.002 1.57-1.802 2.035-1.481.862-2.895 1.253-4.857 1.739-1.091.206-2.047.168-1.73-.174.291-.43.602-.838.913-1.247.787-1.036 1.576-2.072 2.033-3.437a293.04 293.04 0 01-1.777-.264c-3.696-.556-7.322-1.101-10.527-.674-2.14.285-3.502 1.25-4.82 2.184-.451.319-.897.634-1.366.918-3.961 2.391-8.318 1.783-8.69.886-.22-.533.4-.923.972-1.282.344-.216.669-.42.784-.638-1.477.196-1.806-.016-2.555-.774 1.289-1.514 3.439-1.65 5.393-1.774 1.574-.1 3.022-.192 3.791-.989.766-.792 1.178-1.472 1.564-2.11.427-.707.823-1.361 1.634-2.06 1.99-1.715 4.391-3.127 6.586-3.815 1.165-.365 2.272-.6 3.456-.858 2.362-.513 4.83-1.05 7.284-2.435 2.392-1.351 3.799-3.743 5.274-6.178 1.648-2.72 3.302-5.448 6.161-6.648 1.188-.536 2.31-.598 3.46-.726C45.335.9 46.047.82 46.704.659c.846-.208 1.2-.368 1.445-.478zM8.4 30.124c-2.264.982-3.98 1.386-6.8.982-.158-.212.224-.452.689-.743.59-.37 1.311-.823 1.23-1.409-.397-.044-.734-.037-1.047-.031-.559.01-1.043.02-1.657-.26.106-.195.262-.357.458-.493.857-.593 2.485-.677 4.082-.758 1.679-.086 3.324-.17 4.009-.842.74-.726 1.252-1.483 1.754-2.225l.173-.256c.543-.8 1.105-1.577 1.962-2.277.33-.27.672-.524 1.024-.764 1.46-.998 3.264-1.904 5.04-2.528 1.136-.4 2.278-.626 3.438-.857 1.311-.26 2.597-.508 4.013-1.049 1.593-.609 3.325-1.361 4.738-2.413.332-.247.648-.515.946-.803 1.482-1.436 2.44-3.145 3.441-4.87 1.837-3.169 3.608-6.224 7.682-6.642a14.562 14.562 0 011.431-.062c.18-.002.352-.003.52-.008.653-.02 1.232-.096 1.86-.45.186.633.477.924 1.733 1.04-.183 1.593-1.246 2.464-2.437 3.3l-.373.259c-.94.649-1.872 1.258-2.562 2.332-.423.659-.76 2.21-1.18 4.147-.33 1.522-.712 3.282-1.228 5.032-1.013 3.436-2.543 6.832-5.215 8.321-.145-.322-.129-.668-.145-1.05-.022-.561-.045-1.122-.375-1.376a21.882 21.882 0 01-1.241 2.911c-1.568 2.997-3.89 5.241-7.769 5.926 1.84-2.49 3.6-5.063 3.639-9.356-.67.145-.987 1.034-1.32 1.972-.31.875-.637 1.791-1.279 2.186-.853.093-1.718.093-2.588.04-1.026-.061-2.06-.194-3.09-.326-2.561-.328-5.108-.654-7.49.11-1.31.42-2.481 1.169-3.607 1.888-.832.532-1.654 1.054-2.458 1.402zm32.705-2.398c-.616-.58-1.313-2.964-1.388-4.166-.153.161-.335.338-.531.527-.744.719-1.681 1.625-1.898 2.597.533.85 2.611 1.335 3.817 1.042z" fill="#111"/></svg>