<svg width="30" height="15" fill="none" xmlns="http://www.w3.org/2000/svg"><path d="M10.42 11.52L12.69 0h2.7l-.56 2.99h2.56c2.27.14 3.12 1.28 2.84 2.7l-1 5.83H16.4l1-5.26c.14-.72.14-1.14-.86-1.14H14.4l-1.28 6.4h-2.7z" fill="#111"/><path fill-rule="evenodd" clip-rule="evenodd" d="M2.27 2.99L0 14.5h2.7l.57-2.98h2.56c2.42.14 5.12-1.85 5.12-5.26 0-2-1.14-3.13-3.41-3.27H2.27zm2.28 2.13l-.71 4.26h1.7c1.28-.14 2.42-.56 2.56-2.98 0-.86-.7-1.28-1.7-1.28H4.55zm16.78-2.13L19.05 14.5h2.7l.57-2.98h2.56C27.3 11.66 30 9.67 30 6.26c0-2-1.14-3.13-3.41-3.27h-5.26zm2.27 2.13l-.7 4.26h1.7c1.28-.14 2.41-.56 2.56-2.98 0-.86-.71-1.28-1.71-1.28H23.6z" fill="#111"/></svg>