<svg width="24" height="24" fill="none" xmlns="http://www.w3.org/2000/svg"><path fill-rule="evenodd" clip-rule="evenodd" d="M23.072 12c0 6.115-4.957 11.072-11.072 11.072C5.886 23.072.93 18.115.93 12 .929 5.886 5.886.93 12 .93 18.115.929 23.072 5.886 23.072 12zm-9.087-5.466c.73-.856 1.71-1.475 2.833-1.514 1.123-.037 1.97.471 1.998 1.276.012.342-.185 1.009-.87 1.03-.512.02-.865-.286-.881-.751a.794.794 0 01.155-.494l.051-.1c.07-.134.087-.165.085-.246-.01-.293-.453-.305-.574-.298-1.66.054-2.097 2.294-2.451 4.115l-.174.96c.955.141 1.634-.032 2.012-.277.323-.208.2-.42.073-.643-.084-.146-.17-.295-.136-.45.087-.402.452-.595.742-.603.406-.01.695.41.686.838-.014.705-.951 1.676-2.825 1.636a6.633 6.633 0 01-.634-.044l-.353 1.95-.01.046c-.315 1.473-.743 3.47-2.232 5.213-1.292 1.536-2.604 1.775-3.191 1.796-1.099.037-1.827-.55-1.854-1.331-.025-.757.645-1.17 1.084-1.186.587-.019.993.406 1.008.896.015.414-.201.544-.344.622l-.045.034c-.09.067-.194.146-.19.292.004.073.083.24.326.233.45-.015.754-.232.969-.385l.02-.014c1.07-.892 1.482-2.446 2.022-5.276l.112-.686.01-.049c.182-.908.384-1.915.69-2.92-.23-.173-.432-.359-.63-.54-.453-.417-.887-.816-1.592-1.008-.696-.189-1.12-.028-1.418.349-.353.447-.236 1.028.105 1.369l.564.623c.691.799 1.069 1.42.927 2.256-.226 1.334-1.816 2.358-3.695 1.78-1.604-.494-1.904-1.63-1.711-2.256.17-.55.607-.655 1.035-.523.458.14.638.698.506 1.126l-.004.014c-.015.046-.038.118-.082.21-.022.05-.052.096-.082.144a.893.893 0 00-.112.215c-.103.337.358.575.678.673.718.222 1.418-.154 1.596-.735.165-.534-.172-.906-.312-1.049l-.68-.728c-.31-.346-.994-1.311-.661-2.396.129-.417.4-.86.793-1.154.83-.619 1.732-.72 2.591-.474.836.241 1.345.716 1.84 1.178.165.153.327.305.5.446.386-1.137.924-2.25 1.732-3.19z" fill="#111"/></svg>